<?xml version="1.0" encoding="UTF-8" standalone="no"?>
<svg
   class="main-svg"
   width="1056.1738"
   height="389.0134"
   inkscape:version="1.1.2 (0a00cf5339, 2022-02-04)"
   sodipodi:docname="processing-production.svg"
   version="1.1"
   viewBox="0 0 1056.1738 389.0134"
   id="svg34428"
   xmlns:inkscape="http://www.inkscape.org/namespaces/inkscape"
   xmlns:sodipodi="http://sodipodi.sourceforge.net/DTD/sodipodi-0.dtd"
   xmlns="http://www.w3.org/2000/svg"
   xmlns:svg="http://www.w3.org/2000/svg">
  <sodipodi:namedview
     bordercolor="#666666"
     borderopacity="1.0"
     inkscape:current-layer="svg34428"
     inkscape:cx="956.49955"
     inkscape:cy="330.86854"
     inkscape:lockguides="false"
     inkscape:pagecheckerboard="0"
     inkscape:pageopacity="0.0"
     inkscape:pageshadow="2"
     inkscape:window-height="1051"
     inkscape:window-maximized="1"
     inkscape:window-width="1920"
     inkscape:window-x="0"
     inkscape:window-y="29"
     inkscape:zoom="3.2127563"
     pagecolor="#ffffff"
     showgrid="false"
     id="namedview34192"
     fit-margin-top="0"
     fit-margin-left="0"
     fit-margin-right="0"
     fit-margin-bottom="0" />
  <path
     id="0"
     style="fill:#ae9e80;stroke:none"
     class="sankey-link"
     d="m 981.47852,8.2660018 c -352.85,0 -352.84922,4.6542972 -705.69922,4.6542972 h -48 c -65.708,0 -76.70694,9.300781 -142.419925,9.300781 v 5.970703 c 65.712995,0 76.711925,-9.300781 142.419925,-9.300781 h 48 2 v -0.0039 c 350.59757,-0.01979 351.60216,-4.650397 703.69922,-4.650397 l 10,-2.986328 z" />
  <path
     id="1"
     style="fill:#ae9e80;stroke:none"
     class="sankey-link"
     d="m 227.7793,18.890625 c -65.708,0 -76.70693,9.300781 -142.419925,9.300781 V 38.240234 C 148.67469,37.073364 164.05543,27.710938 234.18945,27.710938 h 41.58399 c 257.14,0 268.14125,241.000002 525.28125,241.000002 h 50.05859 v -8.83399 c 64.63704,-0.34161 65.02466,-31.28125 130.375,-31.28125 l 10.00002,-1.82617 -0.012,-0.002 -9.95121,-0.14649 c -65.71712,0 -65.71669,31.29688 -131.42969,31.29688 v 1.5293 h -48.98632 v -0.008 C 544.64576,259.43922 532.95391,20.17909 277.779,18.919692 v -0.0293 h -2 z" />
  <path
     id="2"
     style="fill:#ae9e80;stroke:none"
     class="sankey-link"
     d="m 233.18945,27.717174 c -70.13402,0 -84.51475,9.356567 -147.830075,10.523437 l -0.0058,74.452459 c 65.708015,0 75.712735,-9.30207 141.425735,-9.30207 h 49.19336 c 65.51781,0.0855 65.58981,42.31445 131.23632,42.31445 l 10,-37.83203 -10,-37.83398 c -65.37316,0 -65.74096,-41.860606 -130.42968,-42.298829 v -0.02344 z"
     sodipodi:nodetypes="sccsccccccs" />
  <path
     id="3"
     style="fill:#dec580;stroke:none"
     class="sankey-link"
     d="m 981.47852,14.240611 c -352.85,0 -352.84922,100.320309 -705.69922,100.320309 v -0.002 h -50 v -0.002 c -65.708,0 -76.70692,-1.86915 -142.419925,-1.86914 v 1.49218 c 65.712995,0 76.711925,1.86914 142.419925,1.86914 v 0.002 h 50 v 0.002 c 352.85,0 352.84922,-100.320311 705.69922,-100.320311 l 10,-0.746094 z" />
  <path
     id="4"
     style="fill:#dec580;stroke:none"
     class="sankey-link"
     d="m 83.359375,114.18202 v 21.6875 c 65.712995,0 76.711945,1.86914 142.419925,1.86914 v 0.002 h 50 v -0.006 c 65.717,0 65.71668,29.6582 131.42968,29.6582 l 10,-10.84179 -10,-10.8418 c -65.717,0 -65.71668,-29.6582 -131.42968,-29.6582 v 0.002 h -50 v -0.002 c -65.708,0 -76.70693,-1.86914 -142.419925,-1.86914 z" />
  <path
     id="5"
     style="fill:#dec580;stroke:none"
     class="sankey-link"
     d="m 83.359375,135.86328 v 1.83399 c 65.708005,0 76.706925,1.86914 142.419925,1.86914 h 50 c 257.13731,0 268.1393,141.26853 525.27148,141.27148 v 0.0117 h 50 v -1.76563 h -49.67773 c -257.14,0 -268.45375,-141.35351 -525.59375,-141.35351 v 0.004 h -50 v -0.002 c -65.70798,0 -76.70692,-1.86914 -142.419925,-1.86914 z m 905.480465,95.4336 -7.35156,0.17382 c -65.71294,0 -65.71268,46.125 -131.42969,46.125 v 1.40039 c 65.71701,0 65.71675,-46.125 131.42969,-46.125 z" />
  <path
     id="6"
     style="fill:#f2f78a;stroke:none"
     class="sankey-link"
     d="m 981.47852,15.730469 c -352.85,0 -352.84922,130.339841 -705.69922,130.339841 v -0.002 h -49.99805 l -0.002,-0.008 c -65.708,0 -76.70691,-8.36524 -142.419925,-8.36524 v 1.04297 c 65.713005,10e-6 76.711925,8.36524 142.419925,8.36524 l 0.002,0.008 h 49.99805 v 0.002 c 352.85,0 352.84922,-130.339842 705.69922,-130.339842 l 10,-0.521485 z" />
  <path
     id="7"
     style="fill:#f2f78a;stroke:none"
     class="sankey-link"
     d="m 83.359375,138.73828 v 14.16211 c 65.713005,0 76.711925,8.36523 142.419925,8.36523 l 0.002,0.006 h 49.99805 v 0.5254 c 65.717,0 65.71668,20.27929 131.42968,20.27929 l 10,-7.34179 -10,-7.34376 c -65.717,0 -65.71668,-20.27929 -131.42968,-20.27929 v -0.002 H 225.7813 l -0.002,-0.006 c -65.708,0 -76.70692,-8.36523 -142.419925,-8.36524 z m 192.417965,6.80469 v 0.52344 h 0.002 v -0.52344 z" />
  <path
     id="8"
     style="fill:#f2f78a;stroke:none"
     class="sankey-link"
     d="m 83.359375,152.90039 v 1.77344 c 65.708015,0 76.706925,8.36328 142.419925,8.36328 v 0.006 h 50 c 257.14,0 268.13929,126.90039 525.27929,126.90039 h 50 v -0.96875 h -50 v 0.002 C 544.19969,288.88106 532.82273,161.80078 275.7793,161.80078 v -0.5293 h -49.99805 l -0.002,-0.006 c -65.708,0 -76.70692,-8.36523 -142.419925,-8.36523 z m 904.822265,80.88086 -6.69336,0.91211 c -65.71296,0 -65.71269,53.09961 -131.42969,53.09961 v 0.89844 c 65.71696,0 65.71669,-53.09766 131.42969,-53.09766 l 10,-1.36133 z" />
  <path
     class="sankey-link"
     d="m 84.358958,201.4604 c 161.430002,0 161.430002,-19.383 322.850002,-19.383 l 10,15.152 -10,15.152 c -161.43,0 -161.43,19.383 -322.850002,19.383 z"
     style="fill:#a5d7d4;stroke:none"
     id="9" />
  <path
     class="sankey-link"
     d="m 84.358958,274.6304 c 161.430002,0 161.430002,-62.252 322.850002,-62.252 l 10,2.3274 -10,2.3274 c -161.43,0 -161.43,62.252 -322.850002,62.252 z"
     style="fill:#a5d7d4;stroke:none"
     id="10" />
  <path
     class="sankey-link"
     d="m 84.358958,308.1904 c 161.430002,0 161.430002,-91.152 322.850002,-91.152 l 10,0.2685 -10,0.26849 c -161.43,0 -161.43,91.152 -322.850002,91.152 z"
     style="fill:#f2f78a;stroke:none"
     id="11" />
  <path
     class="sankey-link"
     d="m 84.358958,334.9704 c 161.430002,0 161.430002,-117.4 322.850002,-117.4 l 10,3.1032 -10,3.1032 c -161.43,0 -161.43,117.4 -322.850002,117.4 z"
     style="fill:#a5d7d4;stroke:none"
     id="12" />
  <path
     id="13"
     style="fill:#ae9e80;stroke:none"
     class="sankey-link"
     d="m 981.47849,65.597038 c -161.42,0 -161.41961,0.603516 -322.84961,0.603516 h -50 c -65.708,0 -74.70693,3.839844 -140.41993,3.839844 l -0.006,7.921874 c 65.713,0 74.71779,-3.861328 140.42579,-3.861328 h 50 c 161.42,0 161.41961,-0.603515 322.84961,-0.603515 l 10,-3.949219 z" />
  <path
     id="14"
     style="fill:#ae9e80;stroke:none"
     class="sankey-link"
     d="m 608.62891,74.099986 c -65.708,0 -76.70693,3.837891 -142.41993,3.837891 V 90.57069 c 65.71299,0 76.71193,-3.837891 142.41993,-3.837891 h 50 v 0.002 c 161.42,0 161.41961,61.017581 322.84961,61.017581 l 10,-6.31641 -10,-6.31836 c -161.42,0 -161.41961,-61.017577 -322.84961,-61.017577 z" />
  <path
     id="15"
     style="fill:#ae9e80;stroke:none"
     class="sankey-link"
     d="m 608.62891,86.734752 c -64.97107,0 -76.64383,3.738106 -140.41993,3.822266 v 5.15625 c 63.7761,-0.0842 75.44886,-3.822266 140.41993,-3.822266 h 50 v 0.002 c 161.42,0 161.41961,101.830078 322.84961,101.830078 l 10,-2.57617 -10,-2.57617 c -161.42,0 -161.41961,-101.830082 -322.84961,-101.830082 v -0.0059 z"
     sodipodi:nodetypes="sccscccccccs" />
  <path
     id="16"
     style="fill:#ae9e80;stroke:none"
     class="sankey-link"
     d="m 608.62891,66.191783 v 0.0098 h 50 v -0.0098 z m 0,20.542969 c -64.97106,0 -76.64383,3.738106 -140.41993,3.822266 v 0.002 c 63.7761,-0.0842 75.44886,-3.822266 140.41993,-3.822266 h 50 v -0.002 z m 50,5.15625 v 0.002 h -50 c -64.97107,0 -76.64383,3.738106 -140.41993,3.822266 v 2.71875 c 63.7761,-0.0842 75.44886,-3.822266 140.41993,-3.822266 h 50 v -0.0059 c 161.42,0 161.41961,175.121098 322.84961,175.121098 l 10,-1.35938 -10,-1.35742 c -161.42,0 -161.41961,-175.119142 -322.84961,-175.119142 z" />
  <path
     id="17"
     style="fill:#ae9e80;stroke:none"
     class="sankey-link"
     d="m 658.61914,66.208984 v 7.892578 12.632813 h -50 c -6.87553,0 -12.85532,0.0615 -18.6582,0.136719 5.79938,-0.0748 11.793,-0.134766 18.6582,-0.134766 h 50 v 0.002 3.642578 h 0.006 V 77.748047 69.855469 h 0.004 v -3.646485 z m 0,24.173828 v 1.509766 2.71875 h -50 c -64.96741,0 -76.64351,3.737656 -140.41016,3.822266 v 6.347656 h 0.006 v -2.70117 c 63.76665,-0.0846 75.44275,-3.822268 140.41016,-3.822268 h 50 v -2.71875 -5.154296 -0.002 z m -189.60742,0.166016 c -0.28816,5.4e-4 -0.54226,0.0029 -0.80274,0.0059 v 0.0039 c 0.29327,-0.001 0.5098,-0.0088 0.80274,-0.0098 z m 189.61719,4.060547 0.006,3.648437 c 65.712,0 76.76551,161.189458 142.47851,161.189458 h 48.94336 v 0.44335 c 0.0134,0 0.0256,10e-6 0.0391,0 v -0.44335 h 0.96289 v -1.54297 c 64.72648,-0.31218 65.08081,-31.28321 130.4668,-31.28321 l 9.96289,0.14649 -10,-1.82422 c -65.67271,0 -65.72257,31.25276 -131.30273,31.29492 h -49.12696 v 0.002 c -65.717,0 -76.71668,-161.630855 -142.42968,-161.630855 z" />
  <path
     id="18"
     style="fill:#ae9e80;stroke:none"
     class="sankey-link"
     d="m 608.61911,98.257726 c -64.96741,0 -76.64351,3.737664 -140.41016,3.822264 v 2.69141 c 65.70224,-2.5e-4 76.70323,-3.83789 142.41407,-3.83789 v -0.002 c 17.66732,-0.0433 35.60587,0.01 53.00976,0.01 7.06535,1e-5 12.79295,5.72761 12.79297,12.79296 v 255.41016 c -2e-5,7.06536 -5.72761,12.79294 -12.79297,12.79297 H 19.353485 c -7.065355,-3e-5 -12.792952,-5.72762 -12.792969,-12.79297 v -17.96289 c 1.7e-5,-7.06535 5.727614,-12.79295 12.792969,-12.79297 h 5 l 10,-1.33985 -10,-1.33789 h -5 c -8.544168,1.6e-4 -15.470543,6.92654 -15.470703,15.47071 v 17.96289 c 1.66e-4,8.54416 6.926539,15.47054 15.470703,15.4707 H 663.63278 c 8.54417,-1.6e-4 15.47053,-6.92653 15.47071,-15.4707 V 113.73429 c -1.7e-4,-8.54417 -6.92654,-15.470545 -15.47071,-15.470705 -18.17901,0.049 -36.68079,-0.0059 -55.01367,-0.0059 z"
     sodipodi:nodetypes="ccccccccccssscccccccccccc" />
  <path
     id="19"
     style="fill:#dec580;stroke:none"
     class="sankey-link"
     d="m 981.47852,73.504283 c -161.42,0 -161.41961,44.476557 -322.84961,44.476557 h -47.99805 l -0.002,-0.006 c -65.708,0 -76.70693,-13.20312 -142.41993,-13.20312 v 7.41992 c 65.713,0 76.71193,13.20313 142.41993,13.20313 l 0.002,0.006 h 47.99805 v 0.002 c 161.42,0 161.41961,-44.476562 322.84961,-44.476562 l 10,-3.710937 z" />
  <path
     id="20"
     style="fill:#dec580;stroke:none"
     class="sankey-link"
     d="m 468.21289,112.19764 v 3.86524 c 65.71117,2.8e-4 76.71065,13.20312 142.41797,13.20312 l 0.002,0.006 h 47.99805 v -0.006 c 161.41792,1.9e-4 161.41835,22.35742 322.84766,22.35742 l 10,-1.93359 -10,-1.93164 c -161.42,0 -161.41961,-22.35742 -322.84961,-22.35742 v 0.006 h -47.9961 l -0.002,-0.006 c -65.70732,0 -76.7068,-13.20286 -142.41797,-13.20313 z" />
  <path
     id="21"
     style="fill:#dec580;fill-opacity:1;stroke:none"
     class="sankey-link"
     d="m 468.2207,116.06288 v 1.5 c 65.70387,10e-4 76.70559,13.20312 142.41016,13.20312 l 0.002,0.006 h 47.99805 v -0.0117 c 161.41798,5.4e-4 161.41833,64.46094 322.84766,64.46094 l 10,-0.75 -10,-0.75 c -161.42,0 -161.41961,-64.46094 -322.84961,-64.46094 v 0.0117 h -49.99805 v -0.0195 C 544.72082,128.98315 533.23563,116.06424 468.2207,116.06288 Z" />
  <path
     id="22"
     style="fill:#dec580;stroke:none"
     class="sankey-link"
     d="m 468.2207,117.56288 v 0.2207 c 65.70387,0.001 76.70559,13.20312 142.41016,13.20312 l 0.002,0.006 h 47.99805 v -0.0176 c 161.41802,0.001 161.41832,138.95899 322.84766,138.95899 l 10,-0.10742 -10,-0.10547 c -161.42,0 -161.41961,-138.96094 -322.84961,-138.96094 v 0.0117 h -49.99805 v -0.0195 c -63.91009,-0.2693 -75.39527,-13.18822 -140.41021,-13.18958 z" />
  <path
     id="23"
     style="fill:#dec580;stroke:none"
     class="sankey-link"
     d="m 468.2207,117.7832 v 3.01172 c 65.70753,8.3e-4 76.70812,13.20313 142.41407,13.20313 l 0.002,0.006 h 47.99805 v -0.0117 c 65.68675,0.006 76.76751,143.50376 142.41601,143.60742 v 0.006 l 50.00781,-0.004 v -1.50781 c 64.68873,-0.47762 65.05651,-46.10352 130.42969,-46.10352 l 6.57617,0.008 -6.57617,-1.40821 c -65.71703,0 -65.71669,46.125 -131.42969,46.125 v 0.006 h -49 c -65.717,0 -76.71668,-143.74023 -142.42968,-143.74023 v 0.0117 h -49.99805 v -0.0195 c -63.91014,-0.26988 -75.39528,-13.18864 -140.41021,-13.19 z" />
  <path
     id="24"
     style="fill:#dec580;stroke:none"
     class="sankey-link"
     d="m 468.2207,120.7953 v 1.79297 c 65.713,0 76.71192,13.20312 142.41992,13.20312 l 0.002,0.006 h 47.99804 v 0 c 65.70513,0.0228 76.81864,188.75979 142.52768,188.75979 v 0 l -0.10938,-1.58678 c -65.717,0 -76.71119,-188.96612 -142.42419,-188.96612 v 0 l -50.00373,1.7e-4 v -0.0195 C 544.72082,133.71557 533.23563,120.79666 468.2207,120.7953 Z"
     sodipodi:nodetypes="cccccccccccccc" />
  <path
     id="25"
     style="fill:#dec580;stroke:none"
     class="sankey-link"
     d="m 468.2207,122.58827 v 0.88281 c 65.02399,0 76.50653,12.92026 140.41992,13.18945 v 0.0195 h 50 l 4.99805,-0.0137 c 6.57824,-0.0182 11.91211,5.3319 11.91211,11.91016 V 369.1468 c 0,6.57826 -5.33385,11.91016 -11.91211,11.91016 H 19.359375 c -6.578264,0 -11.9121094,-5.3319 -11.9121094,-11.91016 v -17.96289 c 5.523e-4,-6.57787 5.3342364,-11.91016 11.9121094,-11.91016 h 5 l 10,-0.4414 -10,-0.44141 h -5 c -7.065379,0 -12.7929687,5.72759 -12.7929688,12.79297 v 17.96289 c 0,7.06538 5.7275898,12.79297 12.7929688,12.79297 H 663.63867 c 7.06538,0 12.79297,-5.72759 12.79297,-12.79297 V 148.57655 c 0,-7.06538 -5.72759,-12.79297 -12.79297,-12.79297 l -5.00781,0.0137 h -50 v -0.0195 C 544.72082,135.50854 533.23563,122.58963 468.2207,122.58827 Z" />
  <path
     id="26"
     style="fill:#f2f78a;stroke:none"
     class="sankey-link"
     d="m 981.47852,80.926158 c -161.42,0 -161.41961,70.843752 -322.84961,70.843752 h -47.99805 l -0.002,-0.006 c -65.708,0 -76.70693,-28.30274 -142.41993,-28.30274 v 12.33203 c 65.713,0 76.71193,28.30274 142.41993,28.30274 l 0.002,0.008 h 47.99805 c 161.42,0 161.41961,-70.843747 322.84961,-70.843747 l 10,-6.167969 z" />
  <path
     id="27"
     style="fill:#f2f78a;stroke:none"
     class="sankey-link"
     d="m 468.20898,135.79334 v 2.24219 c 65.713,0 76.71193,28.30274 142.41993,28.30274 l 0.002,0.006 h 47.99805 c 161.42,0 161.41961,-12.47851 322.84961,-12.47851 l 10,-1.12109 -10,-1.12305 c -161.42,0 -161.41961,12.47851 -322.84961,12.47851 v 0.004 h -50 v -0.0332 c -63.91339,-0.57708 -75.39594,-28.27735 -140.41993,-28.27735 z" />
  <path
     id="28"
     style="fill:#f2f78a;stroke:none"
     class="sankey-link"
     d="m 468.20898,138.03358 v 0.68554 c 65.713,0 76.71192,28.30274 142.41993,28.30274 l 0.002,0.006 h 47.99805 v -0.004 c 161.42,0 161.41961,28.88281 322.84961,28.88281 l 10,-0.34179 -10,-0.3418 c -161.42,0 -161.41961,-28.88281 -322.84961,-28.88281 v 0.004 h -50 v -0.0332 c -63.91338,-0.57708 -75.39594,-28.27734 -140.41993,-28.27734 z" />
  <path
     id="29"
     style="fill:#f2f78a;stroke:none"
     class="sankey-link"
     d="m 468.20898,138.71717 v 0.34375 c 65.713,0 76.71193,28.30274 142.41993,28.30274 l 0.002,0.006 h 47.99805 v -0.004 c 161.42,0 161.41961,102.91016 322.84961,102.91016 l 10,-0.16797 -10,-0.16797 c -161.42,0 -161.41961,-102.91016 -322.84961,-102.91016 v -0.002 h -50 v -0.0332 c -63.91339,-0.57708 -75.39594,-28.27735 -140.41993,-28.27735 z" />
  <path
     id="30"
     style="fill:#f2f78a;stroke:none"
     class="sankey-link"
     d="m 468.21875,139.05897 v 3.43359 c 65.7041,0.003 76.7055,28.30274 142.41016,28.30274 l 0.002,0.006 h 47.99805 v -0.004 c 161.42,0 161.41961,195.2207 322.84961,195.2207 l 10,-1.71875 -10,-1.71875 c -161.42,0 -161.41961,-195.2207 -322.84961,-195.2207 v 0.01 h -50 v -0.0332 c -63.91011,-0.57705 -75.395,-28.2745 -140.41016,-28.27734 z" />
  <path
     id="31"
     style="fill:#f2f78a;stroke:none"
     class="sankey-link"
     d="m 468.20898,142.49023 v 1.79102 c 65.71299,0 76.71192,28.30273 142.41993,28.30273 l 0.002,0.006 h 47.99805 c 65.67392,0 76.80733,115.16181 142.42968,115.28125 v 0.01 h 50 v -1.02539 c 64.70442,-0.54145 65.05119,-53.08594 130.42969,-53.08594 l 6.69922,0.91211 3.30078,-0.44922 -10,-1.36133 c -65.71702,0 -65.71673,53.09766 -131.42969,53.09766 v 0.002 h -49 c -65.717,0 -76.71668,-115.16992 -142.42968,-115.16992 h -50 v -0.0332 c -63.91344,-0.5775 -75.39599,-28.27777 -140.41998,-28.27777 z" />
  <path
     id="32"
     style="fill:#f2f78a;stroke:none"
     class="sankey-link"
     d="m 468.20898,144.27967 v 1.24219 c 65.713,0 76.71193,28.30273 142.41993,28.30273 l 0.002,0.006 h 47.99805 v -0.002 c 65.717,0 76.717,152.17312 142.43,152.17312 v 0 l 0.10938,-1.44453 c -65.717,0 -76.82638,-151.96687 -142.53938,-151.96687 h -50 v -0.0332 c -63.91339,-0.57708 -75.39594,-28.27735 -140.41993,-28.27735 z"
     sodipodi:nodetypes="cccccccccsccsc" />
  <path
     id="33"
     style="fill:#f2f78a;stroke:none"
     class="sankey-link"
     d="m 468.20898,145.51991 v 1.24218 c 65.71301,0 76.71192,28.30274 142.41993,28.30274 l 0.002,0.006 h 47.99805 v -0.002 c 65.717,0 76.717,162.28014 142.43,162.28014 l 0.2827,-0.58578 -0.2827,-0.65281 c -65.717,0 -76.717,-162.27983 -142.43,-162.27983 h -50 v -0.0332 c -63.91339,-0.57708 -75.39594,-28.27734 -140.41993,-28.27734 z"
     sodipodi:nodetypes="cccccccccsccsc" />
  <path
     id="34"
     style="fill:#f2f78a;stroke:none"
     class="sankey-link"
     d="m 468.21875,146.76014 -0.01,0.35742 c 65.024,0 76.50653,27.70027 140.41993,28.27735 v 0.0332 h 50 l 5.00976,0.004 c 6.37999,0.003 11.55274,5.17274 11.55274,11.55273 v 182.1582 c 0,6.37999 -5.17275,11.55274 -11.55274,11.55274 H 19.359375 c -6.379994,0 -11.5527344,-5.17275 -11.5527344,-11.55274 v -17.96289 c 0,-6.37999 5.1727404,-11.55078 11.5527344,-11.55078 h 5 l 10,-0.17969 -10,-0.17968 h -5 c -6.577873,0 -11.9115571,5.33228 -11.9121094,11.91015 v 17.96289 c 0,6.57826 5.3338454,11.91211 11.9121094,11.91211 H 663.63867 c 6.57826,0 11.91211,-5.33385 11.91211,-11.91211 V 186.9828 c 0,-6.57826 -5.33385,-11.91016 -11.91211,-11.91016 l -5.00976,-0.002 h -49.99024 v -0.0332 c -63.91339,-0.57704 -75.39593,-28.2773 -140.41992,-28.2773 z" />
  <path
     class="sankey-link"
     d="m 468.20895,147.1204 c 65.713,0 74.70901,45.28 140.42001,45.28 l 1.3615,13.7079 -1.3615,12.1701 c -65.713,0 -74.70821,-45.279 -140.42421,-45.279 z"
     style="fill:#a5d7d4;stroke:none"
     sodipodi:nodetypes="cccccc"
     id="35" />
  <path
     class="sankey-link"
     d="m 467.20896,173.0004 c 65.713,0 76.70301,189.56 142.42001,189.56 v 1.163 0 c -65.713,0 -76.70301,-189.55997 -142.42001,-189.55997 z"
     style="fill:#a5d7d4;stroke:none"
     id="36"
     sodipodi:nodetypes="cccccc" />
  <path
     class="sankey-link"
     d="m 658.62896,192.4004 c 161.43,0 161.43,-99.142998 322.85,-99.142998 l 10,5.3182 -10,5.318198 c -161.43,0 -161.43,99.143 -322.85,99.143 z"
     style="fill:#a5d7d4;stroke:none"
     id="37" />
  <path
     class="sankey-link"
     d="m 658.62896,203.0304 c 161.43,0 161.43,-49.17 322.85,-49.17 l 10,3.4055 -10,3.4054 c -161.43,0 -161.43,49.17 -322.85,49.17 z"
     style="fill:#a5d7d4;stroke:none"
     id="38" />
  <path
     class="sankey-link"
     d="m 658.62896,209.8404 c 161.43,0 161.43,-13.938 322.85,-13.938 l 10,1.2885 -10,1.2885 c -161.43,0 -161.43,13.938 -322.85,13.938 z"
     style="fill:#a5d7d4;stroke:none"
     id="39" />
  <path
     class="sankey-link"
     d="m 658.62896,212.4204 c 161.43,0 161.43,57.848 322.85,57.848 l 10,0.49337 -10,0.49337 c -161.43,0 -161.43,-57.848 -322.85,-57.848 z"
     style="fill:#a5d7d4;stroke:none"
     id="40" />
  <path
     class="sankey-link"
     d="m 658.62896,213.4104 c 161.43,0 161.43,152.61 322.85,152.61 l 10,0.70565 -10,0.70564 c -161.43,0 -161.43,-152.61 -322.85,-152.61 z"
     style="fill:#a5d7d4;stroke:none"
     id="41" />
  <path
     id="42"
     style="fill:#dec580;fill-opacity:1;stroke:none"
     class="sankey-link"
     d="m 658.62891,214.82031 0.002,1.26758 c 65.71036,0 76.7159,62.98518 142.42187,62.99023 v 0.006 h 49.99805 v -1.47851 h -49.93164 v -0.006 c -65.714,0 -76.77723,-62.7793 -142.49023,-62.7793 z m 322.85937,15.16992 c -65.71704,0 -65.71671,46.125 -131.42969,46.125 v 1.48047 c 65.71705,0 65.71677,-46.125 131.42969,-46.125 l 7.35156,-0.17382 2.64844,-0.56641 -3.42383,-0.73242 z" />
  <path
     id="43"
     style="fill:#f2f78a;fill-opacity:1;stroke:none"
     class="sankey-link"
     d="m 658.62891,216.08984 -0.01,0.9336 c 65.62533,0 76.96954,71.74709 142.43945,71.94726 v 0.004 h 0.27149 49.72851 v -0.30078 c 4.27627,-0.0362 8.28834,-0.28522 12.03907,-0.7461 -3.75084,0.46034 -7.76321,0.70802 -12.03907,0.74415 v -0.79102 h -49.91015 c -65.708,0 -76.80653,-71.79102 -142.51953,-71.79102 z m 322.85937,17.67969 c -65.7171,0 -65.7167,53.09961 -131.42969,53.09961 v 0.92383 c 65.71699,0 65.71669,-53.09961 131.42969,-53.09961 l 3.39063,-0.46289 z" />
  <path
     class="sankey-link"
     d="m 24.358958,339.6304 h -5 a 11.552,11.552 0 0 0 -11.5520005,11.552 v 17.963 a 11.552,11.552 0 0 0 11.5520005,11.552 H 663.63896 a 11.552,11.552 0 0 0 11.552,-11.552 v -140.57 a 11.552,11.552 0 0 0 -11.552,-11.552 h -5 v 1.2557 h 5 a 10.296,10.296 0 0 1 10.296,10.296 v 140.57 a 10.296,10.296 0 0 1 -10.296,10.296 H 19.358958 A 10.296,10.296 0 0 1 9.0629575,369.1451 v -17.963 a 10.296,10.296 0 0 1 10.2960005,-10.296 h 5 l 10,-0.62784 z"
     style="fill:#a5d7d4;stroke:none"
     id="44" />
  <path
     class="sankey-link"
     d="m 658.62896,362.5604 c 161.43,0 161.43,-201.88 322.85,-201.88 l 10,0.32607 -10,0.32606 c -161.43,0 -161.43,201.88 -322.85,201.88 z"
     style="fill:#a5d7d4;stroke:none"
     id="45" />
  <path
     class="sankey-link"
     d="m 658.62896,363.2104 c 161.43,0 161.43,4.2165 322.85,4.2165 l 10,0.10749 -10,0.10749 c -161.43,0 -161.43,-4.2165 -322.85,-4.2165 z"
     style="fill:#a5d7d4;stroke:none"
     id="46" />
  <path
     class="sankey-link"
     d="m 24.358958,340.8804 h -5 a 10.296,10.296 0 0 0 -10.2960005,10.296 v 27.541 a 10.296,10.296 0 0 0 10.2960005,10.296 H 663.63896 a 10.296,10.296 0 0 0 10.296,-10.296 v -5 a 10.296,10.296 0 0 0 -10.296,-10.296 h -5 v 0.29593 h 5 a 10,10 0 0 1 10,10 v 5 a 10,10 0 0 1 -10,10 H 19.358958 a 10,10 0 0 1 -10.0000005,-10 v -27.541 a 10,10 0 0 1 10.0000005,-10 h 5 l 10,-0.14796 z"
     style="fill:#a5d7d4;stroke:none"
     id="47" />
  <path
     class="sankey-link"
     d="m 850.05896,322.9704 c 65.713,0 65.713,5.4661 131.43,5.4661 l 10,1.5156 -10,1.5156 c -65.713,0 -65.713,-5.4661 -131.43,-5.4661 z"
     style="fill:#e3a6aa;stroke:none"
     id="48" />
  <path
     class="sankey-link"
     d="m 850.05896,336.1104 c 65.713,0 65.713,-4.64 131.43,-4.64 l 10,0.61929 -10,0.6193 c -65.713,0 -65.713,4.64 -131.43,4.64 z"
     style="fill:#e3a6aa;stroke:none"
     id="49" />
  <rect
     class="node-rect"
     x="35.358955"
     y="274.6304"
     width="50"
     height="4.6547999"
     style="fill:#a5d7d4;stroke:none"
     id="rect34312" />
  <text
     class="node-label"
     x="4.5913086"
     y="280.06335"
     style="font-size:9px;font-family:'Liberation Sans';stroke:none"
     id="text34314">Secondary Aggregates</text>
  <rect
     class="node-rect"
     x="35.358955"
     y="308.1904"
     width="50"
     height="0.53698999"
     style="fill:#c5e9df;stroke:none"
     id="rect34316" />
  <text
     class="node-label"
     x="52.88427"
     y="305.83542"
     id="text34322"
     style="line-height:0.9;word-spacing:0px;stroke:none"><tspan
       x="52.88427"
       y="305.83542"
       style="font-size:9px;font-family:'Liberation Sans';text-align:center;text-anchor:middle;stroke:none"
       sodipodi:role="line"
       id="tspan34318"
       dx="0">Marine Dredged</tspan><tspan
       x="52.88427"
       y="316.63541"
       style="font-size:9px;font-family:'Liberation Sans';text-align:center;text-anchor:middle;stroke:none"
       sodipodi:role="line"
       id="tspan89992">Outside English Waters</tspan></text>
  <rect
     class="node-rect"
     x="35.358955"
     y="334.9704"
     width="50"
     height="6.2065001"
     style="fill:#d980b7;stroke:none"
     id="rect34324" />
  <text
     class="node-label"
     x="6.2680664"
     y="341.17816"
     style="font-size:9px;font-family:'Liberation Sans';stroke:none"
     id="text34326">Scalpings and Fines</text>
  <rect
     class="node-rect"
     x="35.358955"
     y="201.4604"
     width="50"
     height="30.304001"
     style="fill:#d980b7;stroke:none"
     id="rect34328" />
  <text
     class="node-label"
     x="38.908684"
     y="220.90132"
     style="font-size:9px;font-family:'Liberation Sans';stroke:none"
     id="text34330">Demolition</text>
  <text
     class="node-label"
     x="208.57057"
     y="157.92307"
     style="font-size:9px;font-family:'Liberation Sans';stroke:none"
     id="text34334">Sand</text>
  <text
     class="node-label"
     x="204.06354"
     y="131.05695"
     style="font-size:9px;font-family:'Liberation Sans';stroke:none"
     id="text34338">Gravel</text>
  <text
     class="node-label"
     x="190.16293"
     y="66.066597"
     style="font-size:9px;font-family:'Liberation Sans';stroke:none"
     id="text34342">Crushed Rock</text>
  <rect
     class="node-rect"
     x="35.359375"
     y="22.221081"
     width="50"
     height="132.99001"
     style="fill:#a7e66f;stroke:none"
     id="rect34344" />
  <text
     class="node-label"
     x="39.456894"
     y="93.502838"
     style="font-size:9px;font-family:'Liberation Sans';stroke:none"
     id="text34346">Extraction</text>
  <rect
     class="node-rect"
     x="418.20895"
     y="70.040398"
     width="50"
     height="153.74001"
     style="fill:#a7e66f;stroke:none"
     id="rect34348" />
  <text
     class="node-label"
     x="442.83981"
     y="143.6123"
     style="font-size:9px;font-family:'Liberation Sans';stroke:none"
     id="text34350"><tspan
       sodipodi:role="line"
       id="tspan41438"
       x="442.83981"
       y="143.6123"
       style="text-align:center;text-anchor:middle;stroke:none">Processing /</tspan><tspan
       sodipodi:role="line"
       id="tspan41440"
       x="442.83981"
       y="154.8623"
       style="text-align:center;text-anchor:middle;stroke:none">production</tspan></text>
  <text
     class="node-label"
     x="593.87408"
     y="165.42035"
     style="font-size:9px;font-family:'Liberation Sans';stroke:none"
     id="text34354">Sand</text>
  <rect
     class="node-rect"
     x="609.62897"
     y="362.56039"
     width="50"
     height="1.163"
     style="fill:#a5d7d4;stroke:none"
     id="rect34356" />
  <text
     class="node-label"
     x="558.03546"
     y="356.08078"
     style="font-size:9px;font-family:'Liberation Sans';stroke:none"
     id="text34358">Secondary Aggregates</text>
  <path
     class="node-rect"
     d="m 608.62896,192.4004 h 50 v 25.878 h -50 z"
     style="fill:#d980b7;stroke:none"
     id="path34360" />
  <text
     class="node-label"
     x="610.43738"
     y="208.65866"
     style="font-size:9px;font-family:'Liberation Sans';stroke:none"
     id="text34362">C&amp;D Waste</text>
  <text
     class="node-label"
     x="588.99615"
     y="130.98013"
     style="font-size:9px;font-family:'Liberation Sans';stroke:none"
     id="text34366">Gravel</text>
  <text
     class="node-label"
     x="571.55591"
     y="85.839005"
     style="font-size:9px;font-family:'Liberation Sans';stroke:none"
     id="text34370">Crushed Rock</text>
  <text
     class="node-label"
     x="810.37714"
     y="291.02887"
     style="font-size:9px;font-family:'Liberation Sans';stroke:none"
     id="text34374">Sand</text>
  <text
     class="node-label"
     x="808.09631"
     y="280.8288"
     style="font-size:9px;font-family:'Liberation Sans';stroke:none"
     id="text34378">Gravel</text>
  <text
     class="node-label"
     x="796.75171"
     y="264.38617"
     style="font-size:9px;font-family:'Liberation Sans';stroke:none"
     id="text34382">Crushed Rock</text>
  <rect
     class="node-rect"
     x="801.05896"
     y="322.9704"
     width="50"
     height="3.0313001"
     style="fill:#c48d98;stroke:none"
     id="rect34384" />
  <text
     class="node-label"
     x="804.15411"
     y="326.94952"
     style="font-size:9px;font-family:'Liberation Sans';stroke:none"
     id="text34386">Land Won</text>
  <rect
     class="node-rect"
     x="801.05896"
     y="336.11038"
     width="50"
     height="1.2386"
     style="fill:#c5e9df;stroke:none"
     id="rect34388" />
  <text
     class="node-label"
     x="796.67047"
     y="338.88782"
     style="font-size:9px;font-family:'Liberation Sans';stroke:none"
     id="text34390">Marine Dredged</text>
  <rect
     class="node-rect"
     x="992.46893"
     y="65.60041"
     width="50"
     height="38.292"
     style="fill:#ca91fd;stroke:none"
     id="rect34392" />
  <text
     class="node-label"
     x="1017.4601"
     y="82.573311"
     text-anchor="end"
     style="font-size:9px;line-height:1;font-family:'Liberation Sans';stroke:none"
     id="text34394"><tspan
       sodipodi:role="line"
       id="tspan46700"
       x="1017.4601"
       y="82.573311"
       style="text-align:center;text-anchor:middle;stroke:none">Concreting</tspan><tspan
       sodipodi:role="line"
       id="tspan46702"
       x="1017.4601"
       y="91.573311"
       style="text-align:center;text-anchor:middle;stroke:none">manufacturing</tspan></text>
  <rect
     class="node-rect"
     x="992.46893"
     y="267.01041"
     width="50"
     height="4.2519002"
     style="fill:#ca91fd;stroke:none"
     id="rect34396" />
  <text
     class="node-label"
     x="1017.4601"
     y="266.96326"
     text-anchor="end"
     style="font-size:9px;line-height:1;font-family:'Liberation Sans';stroke:none"
     id="text34398"><tspan
       sodipodi:role="line"
       id="tspan49350"
       x="1017.4601"
       y="266.96326"
       style="text-align:center;text-anchor:middle;stroke:none">Asphalt</tspan><tspan
       sodipodi:role="line"
       id="tspan49352"
       x="1017.4601"
       y="275.96326"
       style="text-align:center;text-anchor:middle;stroke:none">manufacturing</tspan></text>
  <rect
     class="node-rect"
     x="992.46893"
     y="362.58038"
     width="50"
     height="5.0640998"
     style="fill:#f2f78a;stroke:none"
     id="rect34400" />
  <text
     class="node-label"
     x="1017.4601"
     y="363.22455"
     text-anchor="end"
     style="font-size:9px;line-height:0.9;font-family:'Liberation Sans';stroke:none"
     id="text34402"><tspan
       sodipodi:role="line"
       id="tspan52084"
       x="1017.4601"
       y="363.22455"
       style="text-align:center;text-anchor:middle;stroke:none">Mortar</tspan><tspan
       sodipodi:role="line"
       id="tspan52086"
       x="1017.4601"
       y="371.32455"
       style="text-align:center;text-anchor:middle;stroke:none">manufacturing</tspan></text>
  <rect
     class="node-rect"
     x="992.46893"
     y="135.12039"
     width="50"
     height="26.205999"
     style="fill:#ca91fd;stroke:none"
     id="rect34404" />
  <text
     class="node-label"
     x="1047.6792"
     y="150.38551"
     text-anchor="end"
     style="font-size:9px;font-family:'Liberation Sans';stroke:none"
     id="text34406">Aggregate Use</text>
  <rect
     class="node-rect"
     x="992.46893"
     y="188.57042"
     width="50"
     height="9.9123001"
     style="fill:#ca91fd;stroke:none"
     id="rect34408" />
  <text
     class="node-label"
     x="1056.5737"
     y="195.68867"
     text-anchor="end"
     style="font-size:9px;font-family:'Liberation Sans';stroke:none"
     id="text34410">Non-aggregate Use</text>
  <rect
     class="node-rect"
     x="992.46893"
     y="224.94041"
     width="50"
     height="10.654"
     style="fill:#ca91fd;stroke:none"
     id="rect34412" />
  <text
     class="node-label"
     x="1038.4265"
     y="233.48421"
     text-anchor="end"
     style="font-size:9px;font-family:'Liberation Sans';stroke:none"
     id="text34414">Use as Fill</text>
  <rect
     class="node-rect"
     x="992.46893"
     y="328.4404"
     width="50"
     height="4.2698998"
     style="fill:#a7e66f;stroke:none"
     id="rect34416" />
  <text
     class="node-label"
     x="1029.1562"
     y="333.79214"
     text-anchor="end"
     style="font-size:9px;font-family:'Liberation Sans';stroke:none"
     id="text34418">Trade</text>
  <rect
     class="node-rect"
     x="992.46893"
     y="8.2704077"
     width="50"
     height="8.5045996"
     style="fill:#d980b7;stroke:none"
     id="rect34420" />
  <text
     class="node-label"
     x="1018.6625"
     y="6.5214844"
     text-anchor="end"
     id="text34424"
     style="line-height:0.7;stroke:none"><tspan
       sodipodi:role="line"
       id="tspan44032"
       x="1018.6625"
       y="6.5214844"
       style="font-size:9px;font-family:'Liberation Sans';text-align:center;text-anchor:middle;stroke:none"
       dy="0">Overburden</tspan><tspan
       sodipodi:role="line"
       id="tspan44034"
       x="1018.6625"
       y="14.921484"
       style="font-size:9px;font-family:'Liberation Sans';text-align:center;text-anchor:middle;stroke:none">and</tspan><tspan
       sodipodi:role="line"
       x="1018.6625"
       y="23.321484"
       id="tspan44038"
       style="font-size:9px;font-family:'Liberation Sans';text-align:center;text-anchor:middle;stroke:none">Interburden</tspan></text>
  <defs
     id="defs34426" />
</svg>
