<?xml version="1.0" encoding="UTF-8" standalone="no"?>
<svg
   class="main-svg"
   width="1042.469"
   height="380.74741"
   inkscape:version="1.1.2 (0a00cf5339, 2022-02-04)"
   sodipodi:docname="processing-production.svg"
   version="1.1"
   viewBox="0 0 1042.469 380.74741"
   id="svg34428"
   xmlns:inkscape="http://www.inkscape.org/namespaces/inkscape"
   xmlns:sodipodi="http://sodipodi.sourceforge.net/DTD/sodipodi-0.dtd"
   xmlns="http://www.w3.org/2000/svg"
   xmlns:svg="http://www.w3.org/2000/svg">
  <sodipodi:namedview
     bordercolor="#666666"
     borderopacity="1.0"
     inkscape:current-layer="svg34428"
     inkscape:cx="626.39032"
     inkscape:cy="206.08513"
     inkscape:lockguides="false"
     inkscape:pagecheckerboard="0"
     inkscape:pageopacity="0.0"
     inkscape:pageshadow="2"
     inkscape:window-height="1051"
     inkscape:window-maximized="1"
     inkscape:window-width="1920"
     inkscape:window-x="0"
     inkscape:window-y="29"
     inkscape:zoom="1.8438982"
     pagecolor="#ffffff"
     showgrid="false"
     id="namedview34192"
     fit-margin-top="0"
     fit-margin-left="0"
     fit-margin-right="0"
     fit-margin-bottom="0" />
  <path
     id="path34228-8-7-6-6"
     style="fill:#dec580;fill-opacity:1;stroke:none"
     class="sankey-link"
     d="M 468.2207 107.79688 L 468.2207 109.29688 C 533.92457 109.29788 544.92629 122.5 610.63086 122.5 L 610.63281 122.50586 L 658.63086 122.50586 L 658.63086 122.49414 C 820.04884 122.49468 820.04919 186.95508 981.47852 186.95508 L 991.47852 186.20508 L 981.47852 185.45508 C 820.05852 185.45508 820.05891 120.99414 658.62891 120.99414 L 658.62891 121.00586 L 608.63086 121.00586 L 608.63086 120.98633 C 544.72082 120.71715 533.23563 107.79824 468.2207 107.79688 z " />
  <path
     id="path34228-8-8-2"
     style="fill:#dec580;stroke:none"
     class="sankey-link"
     d="M 468.21289 103.93164 L 468.21289 107.79688 C 533.92406 107.79716 544.92354 121 610.63086 121 L 610.63281 121.00586 L 658.63086 121.00586 L 658.63086 121 C 820.04878 121.00019 820.04921 143.35742 981.47852 143.35742 L 991.47852 141.42383 L 981.47852 139.49219 C 820.05852 139.49219 820.05891 117.13477 658.62891 117.13477 L 658.62891 117.14062 L 610.63281 117.14062 L 610.63086 117.13477 C 544.92354 117.13477 533.92406 103.93191 468.21289 103.93164 z " />
  <path
     id="path34230-3-4-8"
     style="fill:#ae9e80;stroke:none"
     class="sankey-link"
     d="m 608.62891,57.925781 v 0.0098 h 50 v -0.0098 z m 0,20.542969 c -64.97106,0 -76.64383,3.738106 -140.41993,3.822266 v 0.002 c 63.7761,-0.0842 75.44886,-3.822266 140.41993,-3.822266 h 50 v -0.002 z m 50,5.15625 v 0.002 h -50 c -64.97107,0 -76.64383,3.738106 -140.41993,3.822266 v 2.71875 c 63.7761,-0.0842 75.44886,-3.822266 140.41993,-3.822266 h 50 v -0.0059 c 161.42,0 161.41961,175.1211 322.84961,175.1211 l 10,-1.35938 -10,-1.35742 c -161.42,0 -161.41961,-175.119144 -322.84961,-175.119144 z" />
  <path
     id="path34230-6-0-4"
     style="fill:#ae9e80;stroke:none"
     class="sankey-link"
     d="m 608.62891,65.833984 c -65.708,0 -76.70693,3.837891 -142.41993,3.837891 v 12.632813 c 65.71299,0 76.71193,-3.837891 142.41993,-3.837891 h 50 v 0.002 c 161.42,0 161.41961,61.017583 322.84961,61.017583 l 10,-6.31641 -10,-6.31836 c -161.42,0 -161.41961,-61.017579 -322.84961,-61.017579 z" />
  <path
     id="0"
     style="fill:#ae9e80;stroke:none"
     class="sankey-link"
     d="M 981.47852 0 C 628.62852 0 628.6293 4.6542969 275.7793 4.6542969 L 227.7793 4.6542969 C 162.0713 4.6542969 151.07236 13.955078 85.359375 13.955078 L 85.359375 19.925781 C 151.07237 19.925781 162.0713 10.625 227.7793 10.625 L 275.7793 10.625 L 277.7793 10.625 L 277.7793 10.621094 C 628.37687 10.601314 629.38146 5.9707031 981.47852 5.9707031 L 991.47852 2.984375 L 981.47852 0 z " />
  <path
     id="1"
     style="fill:#ae9e80;stroke:none"
     class="sankey-link"
     d="M 227.7793 10.625 C 162.0713 10.625 151.07237 19.925781 85.359375 19.925781 L 85.359375 29.974609 C 148.67469 28.807739 164.05543 19.445312 234.18945 19.445312 L 275.77344 19.445312 C 532.91344 19.445312 543.91469 260.44531 801.05469 260.44531 L 801.69336 256.50977 L 801.10938 251.17383 C 544.64606 251.17383 532.95421 11.913695 277.7793 10.654297 L 277.7793 10.625 L 275.7793 10.625 L 227.7793 10.625 z " />
  <path
     id="2"
     style="fill:#ae9e80;stroke:none"
     class="sankey-link"
     d="m 233.18945,19.451172 c -70.13402,0 -84.51475,9.356567 -147.830075,10.523437 l -0.0058,74.452461 c 65.708011,0 75.712731,-9.30207 141.425731,-9.30207 h 49.19336 c 65.51781,0.0855 65.58981,42.31445 131.23632,42.31445 l 10,-37.83203 -10,-37.833982 c -65.37316,0 -65.74096,-41.860606 -130.42968,-42.298829 v -0.02344 z"
     sodipodi:nodetypes="sccsccccccs" />
  <path
     class="sankey-link"
     d="m 84.358958,266.3644 c 161.430002,0 161.430002,-62.252 322.850002,-62.252 l 10,2.3274 -10,2.3274 c -161.43,0 -161.43,62.252 -322.850002,62.252 z"
     style="fill:#a5d7d4;stroke:none"
     id="path34194" />
  <path
     class="sankey-link"
     d="m 84.358958,299.9244 c 161.430002,0 161.430002,-91.152 322.850002,-91.152 l 10,0.2685 -10,0.26849 c -161.43,0 -161.43,91.152 -322.850002,91.152 z"
     style="fill:#f2f78a;stroke:none"
     id="path34196" />
  <path
     class="sankey-link"
     d="m 84.358958,326.7044 c 161.430002,0 161.430002,-117.4 322.850002,-117.4 l 10,3.1032 -10,3.1032 c -161.43,0 -161.43,117.4 -322.850002,117.4 z"
     style="fill:#a5d7d4;stroke:none"
     id="path34198" />
  <path
     class="sankey-link"
     d="m 84.358958,193.1944 c 161.430002,0 161.430002,-19.383 322.850002,-19.383 l 10,15.152 -10,15.152 c -161.43,0 -161.43,19.383 -322.850002,19.383 z"
     style="fill:#a5d7d4;stroke:none"
     id="path34200" />
  <path
     class="sankey-link"
     d="m 275.77896,138.8444 c 65.713,0 65.713,20.28 131.43,20.28 l 10,7.343 -10,7.343 c -65.713,0 -65.713,-20.28 -131.43,-20.28 z"
     style="fill:#f2f78a;stroke:none"
     id="path34202" />
  <path
     id="path34204"
     style="fill:#dec580;stroke:none"
     class="sankey-link"
     d="M 83.359375 105.91602 L 83.359375 127.60352 C 149.07237 127.60352 160.07132 129.47266 225.7793 129.47266 L 225.7793 129.47461 L 275.7793 129.47461 L 275.7793 129.46875 C 341.4963 129.46875 341.49598 159.12695 407.20898 159.12695 L 417.20898 148.28516 L 407.20898 137.44336 C 341.49198 137.44336 341.4923 107.78516 275.7793 107.78516 L 275.7793 107.78711 L 225.7793 107.78711 L 225.7793 107.78516 C 160.0713 107.78516 149.07237 105.91602 83.359375 105.91602 z " />
  <path
     class="sankey-link"
     d="m 275.77896,137.8044 c 352.85,0 352.85,-130.34 705.7,-130.34 l 10,0.52125 -10,0.52126 c -352.85,0 -352.85,130.34 -705.7,130.34 z"
     style="fill:#f2f78a;stroke:none"
     id="path34208" />
  <path
     id="path34210"
     style="fill:#dec580;stroke:none"
     class="sankey-link"
     d="M 981.47852 5.9746094 C 628.62852 5.9746094 628.6293 106.29492 275.7793 106.29492 L 275.7793 106.29297 L 225.7793 106.29297 L 225.7793 106.29102 C 160.0713 106.29102 149.07238 104.42187 83.359375 104.42188 L 83.359375 105.91406 C 149.07237 105.91406 160.0713 107.7832 225.7793 107.7832 L 225.7793 107.78516 L 275.7793 107.78516 L 275.7793 107.78711 C 628.6293 107.78711 628.62852 7.4667969 981.47852 7.4667969 L 991.47852 6.7207031 L 981.47852 5.9746094 z " />
  <path
     class="sankey-link"
     d="m 275.77896,153.5344 c 257.14,0 268.42,127.18 525.56,127.18 l -0.28043,0.9629 c -257.14,0 -268.14,-126.9 -525.28,-126.9 z"
     style="fill:#f2f78a;stroke:none"
     sodipodi:nodetypes="cccccc"
     id="path34214" />
  <path
     id="path34216"
     style="fill:#dec580;stroke:none"
     class="sankey-link"
     d="m 83.359375,127.59765 v 1.83399 c 65.708005,0 76.706925,1.86914 142.419925,1.86914 h 50 c 257.14,0 268.13929,141.27148 525.27929,141.27148 l 0.31446,-1.7539 c -257.14,0 -268.45375,-141.35352 -525.59375,-141.35352 v 0.004 h -50 v -0.002 c -65.70798,0 -76.70692,-1.86914 -142.419925,-1.86914 z" />
  <path
     id="path34220-9"
     style="fill:#f2f78a;stroke:none"
     class="sankey-link"
     d="m 83.358606,144.63458 v 1.77344 c 65.708014,0 76.706924,8.36328 142.419924,8.36328 v 0.006 h 50 v -1.77148 h -49.99805 l -0.002,-0.006 c -65.708,0 -76.70692,-8.36523 -142.419924,-8.36523 z"
     sodipodi:nodetypes="ccccccccc" />
  <path
     id="path34220-8-9"
     style="fill:#f2f78a;stroke:none"
     class="sankey-link"
     d="m 83.358605,130.47262 v 14.16211 c 65.713005,0 76.711925,8.36523 142.419925,8.36523 l 0.002,0.006 h 49.99805 v -14.16211 h -49.99805 l -0.002,-0.006 c -65.708,0 -76.70692,-8.36522 -142.419925,-8.36523 z m 192.417965,6.80468 v 0.52344 h 0.002 v -0.52344 z" />
  <path
     id="path34220-6-9"
     style="fill:#f2f78a;stroke:none"
     class="sankey-link"
     d="m 83.358984,129.4302 v 1.04296 c 65.713006,1e-5 76.711926,8.36524 142.419926,8.36524 l 0.002,0.006 h 49.99805 v -1.04297 h -49.99805 l -0.002,-0.006 c -65.708,0 -76.70691,-8.36523 -142.419926,-8.36523 z" />
  <path
     id="path34230-3-41"
     style="fill:#ae9e80;stroke:none"
     class="sankey-link"
     d="m 608.62891,78.46875 c -64.97107,0 -76.64383,3.738106 -140.41993,3.822266 v 5.15625 C 531.98508,87.363066 543.65784,83.625 608.62891,83.625 h 50 v 0.002 c 161.42,0 161.41961,101.83008 322.84961,101.83008 l 10,-2.57617 -10,-2.57617 c -161.42,0 -161.41961,-101.830084 -322.84961,-101.830084 v -0.0059 z"
     sodipodi:nodetypes="sccscccccccs" />
  <path
     id="path34228-8-6"
     style="fill:#dec580;stroke:none"
     class="sankey-link"
     d="M 981.47852 65.238281 C 820.05852 65.238281 820.05891 109.71484 658.62891 109.71484 L 610.63086 109.71484 L 610.62891 109.70898 C 544.92091 109.70898 533.92198 96.505859 468.20898 96.505859 L 468.20898 103.92578 C 533.92198 103.92578 544.92091 117.12891 610.62891 117.12891 L 610.63086 117.13477 L 658.62891 117.13477 L 658.62891 117.13672 C 820.04891 117.13672 820.04852 72.660156 981.47852 72.660156 L 991.47852 68.949219 L 981.47852 65.238281 z " />
  <path
     id="path34230-3-1-3"
     style="fill:#ae9e80;stroke:none"
     class="sankey-link"
     d="m 608.61911,89.991724 c -64.96741,0 -76.64351,3.737666 -140.41016,3.822266 v 2.69141 c 65.70224,-2.5e-4 76.70323,-3.83789 142.41407,-3.83789 v -0.002 c 17.66732,-0.0433 35.60587,0.01 53.00976,0.01 7.06535,1e-5 12.79295,5.72761 12.79297,12.79296 v 255.41016 c -2e-5,7.06536 -5.72761,12.79294 -12.79297,12.79297 H 19.353485 c -7.065355,-3e-5 -12.792952,-5.72762 -12.792969,-12.79297 v -17.96289 c 1.7e-5,-7.06535 5.727614,-12.79295 12.792969,-12.79297 h 5 l 10,-1.33985 -10,-1.33789 h -5 c -8.544168,1.6e-4 -15.470543,6.92654 -15.470703,15.47071 v 17.96289 c 1.66e-4,8.54416 6.926539,15.47054 15.470703,15.4707 H 663.63278 c 8.54417,-1.6e-4 15.47053,-6.92653 15.47071,-15.4707 V 105.46829 c -1.7e-4,-8.54417 -6.92654,-15.470547 -15.47071,-15.470707 -18.17901,0.049 -36.68079,-0.0059 -55.01367,-0.0059 z"
     sodipodi:nodetypes="ccccccccccssscccccccccccc" />
  <path
     id="path34230-3-7-6"
     style="fill:#ae9e80;stroke:none"
     class="sankey-link"
     d="m 658.61914,57.943359 v 7.892579 12.632812 h -50 c -6.87553,0 -12.85532,0.0615 -18.6582,0.136719 5.79938,-0.0748 11.793,-0.134766 18.6582,-0.134766 h 50 v 0.002 3.642578 h 0.006 V 69.482422 61.589844 h 0.004 v -3.646485 z m 0,24.173829 v 1.509765 2.71875 h -50 c -64.96741,0 -76.64351,3.737656 -140.41016,3.822266 v 6.347656 h 0.006 v -2.701172 c 63.76665,-0.0846 75.44275,-3.822265 140.41016,-3.822265 h 50 v -2.71875 -5.154297 -0.002 z m -189.60742,0.166015 c -0.28816,5.4e-4 -0.54226,0.0029 -0.80274,0.0059 v 0.0039 c 0.29327,-0.001 0.5098,-0.0088 0.80274,-0.0098 z m 189.61719,4.060547 0.006,3.648438 c 65.712,-10e-7 76.76551,161.189452 142.47851,161.189452 l -0.0547,-3.20703 c -65.717,0 -76.71668,-161.63086 -142.42968,-161.63086 z" />
  <path
     class="sankey-link"
     d="m 467.20896,164.7344 c 65.713,0 76.70301,189.56 142.42001,189.56 v 1.163 0 c -65.713,0 -76.70301,-189.55997 -142.42001,-189.55997 z"
     style="fill:#a5d7d4;stroke:none"
     id="path34232"
     sodipodi:nodetypes="cccccc" />
  <path
     class="sankey-link"
     d="m 468.20895,138.8544 c 65.713,0 70.059,45.433 135.77,45.433 l 4.59287,13.00305 -4.63707,12.28595 c -65.713,0 -70.014,-44.843 -135.73,-44.843 z"
     style="fill:#a5d7d4;stroke:none"
     sodipodi:nodetypes="cccccc"
     id="path34234" />
  <path
     id="path34236"
     style="fill:#f2f78a;stroke:none"
     class="sankey-link"
     d="M 981.47852 72.660156 C 820.05852 72.660156 820.05891 143.50391 658.62891 143.50391 L 610.63086 143.50391 L 610.62891 143.49805 C 544.92091 143.49805 533.92198 115.19531 468.20898 115.19531 L 468.20898 127.52734 C 533.92198 127.52734 544.92091 155.83008 610.62891 155.83008 L 610.63086 155.83789 L 658.62891 155.83789 C 820.04891 155.83789 820.04852 84.994141 981.47852 84.994141 L 991.47852 78.826172 L 981.47852 72.660156 z " />
  <path
     class="sankey-link"
     d="m 658.62896,184.1344 c 161.43,0 161.43,-99.143 322.85,-99.143 l 10,5.3182 -10,5.3182 c -161.43,0 -161.43,99.143 -322.85,99.143 z"
     style="fill:#a5d7d4;stroke:none"
     id="path34238" />
  <path
     id="path34242"
     style="fill:#ae9e80;stroke:none"
     class="sankey-link"
     d="m 981.47852,57.330078 c -161.42,0 -161.41961,0.603516 -322.84961,0.603516 h -50 c -65.708,0 -74.70693,3.839844 -140.41993,3.839844 l -0.006,7.921874 c 65.713,0 74.71779,-3.861328 140.42579,-3.861328 h 50 c 161.42,0 161.41961,-0.603515 322.84961,-0.603515 l 10,-3.949219 z" />
  <path
     id="path34244"
     style="fill:#f2f78a;stroke:none"
     class="sankey-link"
     d="M 468.20898 130.45117 L 468.20898 130.79492 C 533.92198 130.79492 544.92091 159.09766 610.62891 159.09766 L 610.63086 159.10352 L 658.62891 159.10352 L 658.62891 159.09961 C 820.04891 159.09961 820.04852 262.00977 981.47852 262.00977 L 991.47852 261.8418 L 981.47852 261.67383 C 820.05852 261.67383 820.05891 158.76367 658.62891 158.76367 L 658.62891 158.76172 L 608.62891 158.76172 L 608.62891 158.72852 C 544.71552 158.15144 533.23297 130.45117 468.20898 130.45117 z " />
  <path
     class="sankey-link"
     d="m 658.62896,204.1544 c 161.43,0 161.43,57.848 322.85,57.848 l 10,0.49337 -10,0.49337 c -161.43,0 -161.43,-57.848 -322.85,-57.848 z"
     style="fill:#a5d7d4;stroke:none"
     id="path34246" />
  <path
     id="path34248"
     style="fill:#dec580;stroke:none"
     class="sankey-link"
     d="M 468.2207 109.29688 L 468.2207 109.51758 C 533.92457 109.51858 544.92629 122.7207 610.63086 122.7207 L 610.63281 122.72656 L 658.63086 122.72656 L 658.63086 122.70898 C 820.04888 122.71012 820.04918 261.66797 981.47852 261.66797 L 991.47852 261.56055 L 981.47852 261.45508 C 820.05852 261.45508 820.05891 122.49414 658.62891 122.49414 L 658.62891 122.50586 L 608.63086 122.50586 L 608.63086 122.48633 C 544.72082 122.21716 533.23564 109.29824 468.2207 109.29688 z " />
  <path
     id="path34252"
     style="fill:#f2f78a;stroke:none"
     class="sankey-link"
     d="M 468.21875 130.79297 L 468.21875 134.22656 C 533.92285 134.22956 544.92425 162.5293 610.62891 162.5293 L 610.63086 162.53516 L 658.62891 162.53516 L 658.62891 162.53125 C 820.04891 162.53125 820.04852 357.75195 981.47852 357.75195 L 991.47852 356.0332 L 981.47852 354.31445 C 820.05852 354.31445 820.05891 159.09375 658.62891 159.09375 L 658.62891 159.10352 L 608.62891 159.10352 L 608.62891 159.07031 C 544.7188 158.49326 533.23391 130.79581 468.21875 130.79297 z " />
  <path
     class="sankey-link"
     d="m 658.62896,354.9444 c 161.43,0 161.43,4.2165 322.85,4.2165 l 10,0.10749 -10,0.10749 c -161.43,0 -161.43,-4.2165 -322.85,-4.2165 z"
     style="fill:#a5d7d4;stroke:none"
     id="path34254" />
  <path
     class="sankey-link"
     d="m 658.62896,205.1444 c 161.43,0 161.43,152.61 322.85,152.61 l 10,0.70565 -10,0.70564 c -161.43,0 -161.43,-152.61 -322.85,-152.61 z"
     style="fill:#a5d7d4;stroke:none"
     id="path34256" />
  <path
     id="path34258"
     style="fill:#f2f78a;stroke:none"
     class="sankey-link"
     d="M 468.20898 127.52734 L 468.20898 129.76953 C 533.92198 129.76953 544.92091 158.07227 610.62891 158.07227 L 610.63086 158.07812 L 658.62891 158.07812 C 820.04891 158.07812 820.04852 145.59961 981.47852 145.59961 L 991.47852 144.47852 L 981.47852 143.35547 C 820.05852 143.35547 820.05891 155.83398 658.62891 155.83398 L 658.62891 155.83789 L 608.62891 155.83789 L 608.62891 155.80469 C 544.71552 155.22761 533.23297 127.52734 468.20898 127.52734 z " />
  <path
     class="sankey-link"
     d="m 658.62896,354.2944 c 161.43,0 161.43,-201.88 322.85,-201.88 l 10,0.32607 -10,0.32606 c -161.43,0 -161.43,201.88 -322.85,201.88 z"
     style="fill:#a5d7d4;stroke:none"
     id="path34264" />
  <path
     class="sankey-link"
     d="m 658.62896,194.7644 c 161.43,0 161.43,-49.17 322.85,-49.17 l 10,3.4055 -10,3.4054 c -161.43,0 -161.43,49.17 -322.85,49.17 z"
     style="fill:#a5d7d4;stroke:none"
     id="path34266" />
  <path
     id="path34268"
     style="fill:#f2f78a;stroke:none"
     class="sankey-link"
     d="M 468.20898 129.76758 L 468.20898 130.45312 C 533.92198 130.45312 544.9209 158.75586 610.62891 158.75586 L 610.63086 158.76172 L 658.62891 158.76172 L 658.62891 158.75781 C 820.04891 158.75781 820.04852 187.64062 981.47852 187.64062 L 991.47852 187.29883 L 981.47852 186.95703 C 820.05852 186.95703 820.05891 158.07422 658.62891 158.07422 L 658.62891 158.07812 L 608.62891 158.07812 L 608.62891 158.04492 C 544.71553 157.46784 533.23297 129.76758 468.20898 129.76758 z " />
  <path
     class="sankey-link"
     d="m 658.62896,201.5744 c 161.43,0 161.43,-13.938 322.85,-13.938 l 10,1.2885 -10,1.2885 c -161.43,0 -161.43,13.938 -322.85,13.938 z"
     style="fill:#a5d7d4;stroke:none"
     id="path34274" />
  <path
     id="path34276"
     style="fill:#f2f78a;stroke:none"
     class="sankey-link"
     d="m 468.20898,134.22461 v 1.79101 c 65.71299,0 76.71192,28.30274 142.41993,28.30274 l 0.002,0.006 h 47.99805 v -1.78906 h -50 v -0.0332 c -63.91339,-0.57708 -75.39594,-28.27734 -140.41993,-28.27734 z m 190.41993,28.31055 v 1.78906 c 65.708,0 76.81629,115.28711 142.52929,115.28711 l 0.35742,-0.89844 -0.45703,-1.00781 c -65.717,0 -76.71668,-115.16992 -142.42968,-115.16992 z"
     sodipodi:nodetypes="ccccccccccccccc" />
  <path
     id="path34278"
     style="fill:#dec580;stroke:none"
     class="sankey-link"
     d="M 468.2207 109.51758 L 468.2207 112.5293 C 533.92823 112.53013 544.92882 125.73242 610.63477 125.73242 L 610.63672 125.73828 L 658.63477 125.73828 L 658.63477 125.72656 C 724.34526 125.73232 735.40941 269.33594 801.12109 269.33594 L 801.42773 267.92773 L 801.05859 266.45508 C 735.34159 266.45508 724.34191 122.71484 658.62891 122.71484 L 658.62891 122.72656 L 608.63086 122.72656 L 608.63086 122.70703 C 544.72082 122.43786 533.23563 109.51894 468.2207 109.51758 z " />
  <path
     class="sankey-link"
     d="m 658.62896,207.8244 c 65.713,0 76.812,71.79 142.52,71.79 l 0.18103,1.0951 c -65.713,0 -76.993,-71.953 -142.71,-71.953 z"
     style="fill:#a5d7d4;stroke:none"
     sodipodi:nodetypes="cccccc"
     id="path34280" />
  <path
     class="sankey-link"
     d="m 658.62896,206.5544 c 65.713,0 76.776,62.779 142.49,62.779 l 0.0385,0.77967 -0.0974,0.69928 c -65.713,0 -76.717,-62.99 -142.43,-62.99 z"
     style="fill:#a5d7d4;stroke:none"
     sodipodi:nodetypes="cccccc"
     id="path34282" />
  <path
     class="sankey-link"
     d="m 850.05896,277.7044 c 65.713,0 65.713,-53.099 131.43,-53.099 l 10,1.3614 -10,1.3614 c -65.713,0 -65.713,53.099 -131.43,53.099 z"
     style="fill:#f2f78a;stroke:none"
     id="path34286" />
  <path
     class="sankey-link"
     d="m 850.05896,266.4544 c 65.713,0 65.713,-46.125 131.43,-46.125 l 10,2.1403 -10,2.1403 c -65.713,0 -65.713,46.125 -131.43,46.125 z"
     style="fill:#dec580;stroke:none"
     id="path34288" />
  <path
     class="sankey-link"
     d="m 850.05896,247.9744 c 65.713,0 65.713,-31.297 131.43,-31.297 l 10,1.8255 -10,1.8255 c -65.713,0 -65.713,31.297 -131.43,31.297 z"
     style="fill:#ae9e80;stroke:none"
     id="path34290" />
  <path
     id="path34292"
     style="fill:#f2f78a;stroke:none"
     class="sankey-link"
     d="M 468.21875 138.49414 L 468.20898 138.85156 C 533.23298 138.85156 544.71551 166.55183 608.62891 167.12891 L 608.62891 167.16211 L 658.62891 167.16211 L 663.63867 167.16602 C 670.01866 167.16902 675.19141 172.33876 675.19141 178.71875 L 675.19141 360.87695 C 675.19141 367.25694 670.01866 372.42969 663.63867 372.42969 L 19.359375 372.42969 C 12.979381 372.42969 7.8066406 367.25694 7.8066406 360.87695 L 7.8066406 342.91406 C 7.8066406 336.53407 12.979381 331.36328 19.359375 331.36328 L 24.359375 331.36328 L 34.359375 331.18359 L 24.359375 331.00391 L 19.359375 331.00391 C 12.781502 331.00391 7.4478179 336.33619 7.4472656 342.91406 L 7.4472656 360.87695 C 7.4472656 367.45521 12.781111 372.78906 19.359375 372.78906 L 663.63867 372.78906 C 670.21693 372.78906 675.55078 367.45521 675.55078 360.87695 L 675.55078 178.7168 C 675.55078 172.13854 670.21693 166.80664 663.63867 166.80664 L 658.62891 166.80469 L 608.63867 166.80469 L 608.63867 166.77148 C 544.72528 166.1944 533.24274 138.49414 468.21875 138.49414 z " />
  <path
     id="path34294"
     style="fill:#dec580;stroke:none"
     class="sankey-link"
     d="M 468.2207 114.32227 L 468.2207 115.20508 C 533.24469 115.20508 544.72723 128.12534 608.64062 128.39453 L 608.64062 128.41406 L 658.64062 128.41406 L 663.63867 128.40039 C 670.21691 128.38219 675.55078 133.73229 675.55078 140.31055 L 675.55078 360.88086 C 675.55078 367.45912 670.21693 372.79102 663.63867 372.79102 L 19.359375 372.79102 C 12.781111 372.79102 7.4472656 367.45912 7.4472656 360.88086 L 7.4472656 342.91797 C 7.4478179 336.3401 12.781502 331.00781 19.359375 331.00781 L 24.359375 331.00781 L 34.359375 330.56641 L 24.359375 330.125 L 19.359375 330.125 C 12.293996 330.125 6.5664063 335.85259 6.5664062 342.91797 L 6.5664062 360.88086 C 6.5664062 367.94624 12.293996 373.67383 19.359375 373.67383 L 663.63867 373.67383 C 670.70405 373.67383 676.43164 367.94624 676.43164 360.88086 L 676.43164 140.31055 C 676.43164 133.24517 670.70405 127.51758 663.63867 127.51758 L 658.63086 127.53125 L 608.63086 127.53125 L 608.63086 127.51172 C 544.72082 127.24254 533.23563 114.32363 468.2207 114.32227 z " />
  <path
     class="sankey-link"
     d="m 24.358958,332.6144 h -5 a 10.296,10.296 0 0 0 -10.2960005,10.296 v 27.541 a 10.296,10.296 0 0 0 10.2960005,10.296 H 663.63896 a 10.296,10.296 0 0 0 10.296,-10.296 v -5 a 10.296,10.296 0 0 0 -10.296,-10.296 h -5 v 0.29593 h 5 a 10,10 0 0 1 10,10 v 5 a 10,10 0 0 1 -10,10 H 19.358958 a 10,10 0 0 1 -10.0000005,-10 v -27.541 a 10,10 0 0 1 10.0000005,-10 h 5 l 10,-0.14796 z"
     style="fill:#a5d7d4;stroke:none"
     id="path34298" />
  <path
     class="sankey-link"
     d="m 24.358958,331.3644 h -5 a 11.552,11.552 0 0 0 -11.5520005,11.552 v 17.963 a 11.552,11.552 0 0 0 11.5520005,11.552 H 663.63896 a 11.552,11.552 0 0 0 11.552,-11.552 v -140.57 a 11.552,11.552 0 0 0 -11.552,-11.552 h -5 v 1.2557 h 5 a 10.296,10.296 0 0 1 10.296,10.296 v 140.57 a 10.296,10.296 0 0 1 -10.296,10.296 H 19.358958 A 10.296,10.296 0 0 1 9.0629575,360.8791 v -17.963 a 10.296,10.296 0 0 1 10.2960005,-10.296 h 5 l 10,-0.62784 z"
     style="fill:#a5d7d4;stroke:none"
     id="path34300" />
  <path
     id="path34302"
     style="fill:#f2f78a;stroke:none"
     class="sankey-link"
     d="M 468.20898 136.01367 L 468.20898 137.25586 C 533.92198 137.25586 544.92091 165.55859 610.62891 165.55859 L 610.63086 165.56445 L 658.62891 165.56445 L 658.62891 165.5625 C 724.34591 165.5625 724.34559 317.73242 790.05859 317.73242 L 800.05859 317.11328 L 790.05859 316.49414 C 724.34159 316.49414 724.34191 164.32422 658.62891 164.32422 L 608.62891 164.32422 L 608.62891 164.29102 C 544.71552 163.71394 533.23297 136.01367 468.20898 136.01367 z " />
  <path
     id="path34304"
     style="fill:#dec580;stroke:none"
     class="sankey-link"
     d="m 468.2207,112.5293 v 1.79297 c 65.713,0 76.71192,13.20312 142.41992,13.20312 l 0.002,0.006 h 47.99804 v 0 c 65.70513,0.0228 65.70893,188.9668 131.41797,188.9668 l 10,-0.89649 -10,-0.89648 c -65.717,0 -65.71086,-188.96694 -131.42386,-188.96694 v 0 l -50.00373,1.7e-4 v -0.0195 C 544.72082,125.44957 533.23563,112.53066 468.2207,112.5293 Z"
     sodipodi:nodetypes="cccccccccccccc" />
  <path
     id="path34306"
     style="fill:#f2f78a;stroke:none"
     class="sankey-link"
     d="M 468.20898 137.25391 L 468.20898 138.49609 C 533.92199 138.49609 544.9209 166.79883 610.62891 166.79883 L 610.63086 166.80469 L 658.62891 166.80469 L 658.62891 166.80273 C 724.34591 166.80273 724.34559 329.08203 790.05859 329.08203 L 800.05859 328.46289 L 790.05859 327.84375 C 724.34159 327.84375 724.34191 165.56445 658.62891 165.56445 L 608.62891 165.56445 L 608.62891 165.53125 C 544.71552 164.95417 533.23297 137.25391 468.20898 137.25391 z " />
  <path
     class="sankey-link"
     d="m 850.05896,314.7044 c 65.713,0 65.713,5.4661 131.43,5.4661 l 10,1.5156 -10,1.5156 c -65.713,0 -65.713,-5.4661 -131.43,-5.4661 z"
     style="fill:#e3a6aa;stroke:none"
     id="path34308" />
  <path
     class="sankey-link"
     d="m 850.05896,327.8444 c 65.713,0 65.713,-4.64 131.43,-4.64 l 10,0.61929 -10,0.6193 c -65.713,0 -65.713,4.64 -131.43,4.64 z"
     style="fill:#e3a6aa;stroke:none"
     id="path34310" />
  <rect
     class="node-rect"
     x="35.358955"
     y="266.36441"
     width="50"
     height="4.6547999"
     style="fill:#a5d7d4;stroke:none"
     id="rect34312" />
  <text
     class="node-label"
     x="-0.40869141"
     y="271.79736"
     style="font-size:9px;font-family:'Liberation Sans';stroke:none"
     id="text34314">Secondary Aggregates</text>
  <rect
     class="node-rect"
     x="35.358955"
     y="299.92441"
     width="50"
     height="0.53698999"
     style="fill:#c5e9df;stroke:none"
     id="rect34316" />
  <text
     class="node-label"
     x="60.288574"
     y="295.79343"
     id="text34322"
     style="stroke:none"><tspan
       x="60.288574"
       y="295.79343"
       style="font-size:9px;font-family:'Liberation Sans';text-align:center;text-anchor:middle;stroke:none"
       sodipodi:role="line"
       id="tspan34318">Marine Dredged</tspan><tspan
       x="60.288574"
       y="310.79343"
       style="font-size:9px;font-family:'Liberation Sans';text-align:center;text-anchor:middle;stroke:none"
       id="tspan34320">Outside English Waters</tspan></text>
  <rect
     class="node-rect"
     x="35.358955"
     y="326.70441"
     width="50"
     height="6.2065001"
     style="fill:#d980b7;stroke:none"
     id="rect34324" />
  <text
     class="node-label"
     x="6.2680664"
     y="332.91217"
     style="font-size:9px;font-family:'Liberation Sans';stroke:none"
     id="text34326">Scalpings and Fines</text>
  <rect
     class="node-rect"
     x="35.358955"
     y="193.1944"
     width="50"
     height="30.304001"
     style="fill:#d980b7;stroke:none"
     id="rect34328" />
  <text
     class="node-label"
     x="31.908684"
     y="212.63531"
     style="font-size:9px;font-family:'Liberation Sans';stroke:none"
     id="text34330">Demolition</text>
  <text
     class="node-label"
     x="208.57057"
     y="149.65706"
     style="font-size:9px;font-family:'Liberation Sans';stroke:none"
     id="text34334">Sand</text>
  <text
     class="node-label"
     x="204.06354"
     y="122.79095"
     style="font-size:9px;font-family:'Liberation Sans';stroke:none"
     id="text34338">Gravel</text>
  <text
     class="node-label"
     x="190.16293"
     y="57.800594"
     style="font-size:9px;font-family:'Liberation Sans';stroke:none"
     id="text34342">Crushed Rock</text>
  <rect
     class="node-rect"
     x="35.359375"
     y="13.955078"
     width="50"
     height="132.99001"
     style="fill:#a7e66f;stroke:none"
     id="rect34344" />
  <text
     class="node-label"
     x="34.456894"
     y="85.236839"
     style="font-size:9px;font-family:'Liberation Sans';stroke:none"
     id="text34346">Extraction</text>
  <rect
     class="node-rect"
     x="418.20895"
     y="61.774395"
     width="50"
     height="153.74001"
     style="fill:#a7e66f;stroke:none"
     id="rect34348" />
  <text
     class="node-label"
     x="442.83981"
     y="135.3463"
     style="font-size:9px;font-family:'Liberation Sans';stroke:none"
     id="text34350"><tspan
       sodipodi:role="line"
       id="tspan41438"
       x="442.83981"
       y="135.3463"
       style="text-align:center;text-anchor:middle;stroke:none">Processing /</tspan><tspan
       sodipodi:role="line"
       id="tspan41440"
       x="442.83981"
       y="146.5963"
       style="text-align:center;text-anchor:middle;stroke:none">production</tspan></text>
  <text
     class="node-label"
     x="589.87408"
     y="155.15434"
     style="font-size:9px;font-family:'Liberation Sans';stroke:none"
     id="text34354">Sand</text>
  <rect
     class="node-rect"
     x="609.62897"
     y="354.2944"
     width="50"
     height="1.163"
     style="fill:#a5d7d4;stroke:none"
     id="rect34356" />
  <text
     class="node-label"
     x="541.07141"
     y="347.31656"
     style="font-size:9px;font-family:'Liberation Sans';stroke:none"
     id="text34358">Secondary Aggregates</text>
  <path
     class="node-rect"
     d="m 608.62896,184.1344 h 50 v 25.878 h -50 z"
     style="fill:#d980b7;stroke:none"
     id="path34360" />
  <text
     class="node-label"
     x="612.43738"
     y="200.39265"
     style="font-size:9px;font-family:'Liberation Sans';stroke:none"
     id="text34362">C&amp;D Waste</text>
  <text
     class="node-label"
     x="588.99615"
     y="122.71413"
     style="font-size:9px;font-family:'Liberation Sans';stroke:none"
     id="text34366">Gravel</text>
  <text
     class="node-label"
     x="571.55591"
     y="77.573006"
     style="font-size:9px;font-family:'Liberation Sans';stroke:none"
     id="text34370">Crushed Rock</text>
  <rect
     class="node-rect"
     x="801.05896"
     y="277.70441"
     width="50"
     height="3.964"
     style="fill:#f2f78a;stroke:none"
     id="rect34372" />
  <text
     class="node-label"
     x="810.37714"
     y="282.76288"
     style="font-size:9px;font-family:'Liberation Sans';stroke:none"
     id="text34374">Sand</text>
  <rect
     class="node-rect"
     x="801.05896"
     y="266.45441"
     width="50"
     height="6.1219001"
     style="fill:#dec580;stroke:none"
     id="rect34376" />
  <text
     class="node-label"
     x="808.09631"
     y="272.56281"
     style="font-size:9px;font-family:'Liberation Sans';stroke:none"
     id="text34378">Gravel</text>
  <rect
     class="node-rect"
     x="801.05896"
     y="247.9744"
     width="50"
     height="12.479"
     style="fill:#ae9e80;stroke:none"
     id="rect34380" />
  <text
     class="node-label"
     x="798.495"
     y="257.18442"
     style="font-size:9px;font-family:'Liberation Sans';stroke:none"
     id="text34382">Crushed Rock</text>
  <rect
     class="node-rect"
     x="801.05896"
     y="314.70441"
     width="50"
     height="3.0313001"
     style="fill:#c48d98;stroke:none"
     id="rect34384" />
  <text
     class="node-label"
     x="846.15411"
     y="318.68353"
     style="font-size:9px;font-family:'Liberation Sans';stroke:none"
     id="text34386">Land Won</text>
  <rect
     class="node-rect"
     x="801.05896"
     y="327.84439"
     width="50"
     height="1.2386"
     style="fill:#c5e9df;stroke:none"
     id="rect34388" />
  <text
     class="node-label"
     x="837.67047"
     y="330.62183"
     style="font-size:9px;font-family:'Liberation Sans';stroke:none"
     id="text34390">Marine Dredged</text>
  <rect
     class="node-rect"
     x="992.46893"
     y="57.334408"
     width="50"
     height="38.292"
     style="fill:#ca91fd;stroke:none"
     id="rect34392" />
  <text
     class="node-label"
     x="1017.4601"
     y="74.307312"
     text-anchor="end"
     style="font-size:9px;line-height:1;font-family:'Liberation Sans';stroke:none"
     id="text34394"><tspan
       sodipodi:role="line"
       id="tspan46700"
       x="1017.4601"
       y="74.307312"
       style="text-align:center;text-anchor:middle;stroke:none">Concreting</tspan><tspan
       sodipodi:role="line"
       id="tspan46702"
       x="1017.4601"
       y="83.307312"
       style="text-align:center;text-anchor:middle;stroke:none">manufacturing</tspan></text>
  <rect
     class="node-rect"
     x="992.46893"
     y="258.74442"
     width="50"
     height="4.2519002"
     style="fill:#ca91fd;stroke:none"
     id="rect34396" />
  <text
     class="node-label"
     x="1017.4601"
     y="258.69727"
     text-anchor="end"
     style="font-size:9px;line-height:1;font-family:'Liberation Sans';stroke:none"
     id="text34398"><tspan
       sodipodi:role="line"
       id="tspan49350"
       x="1017.4601"
       y="258.69727"
       style="text-align:center;text-anchor:middle;stroke:none">Asphalt</tspan><tspan
       sodipodi:role="line"
       id="tspan49352"
       x="1017.4601"
       y="267.69727"
       style="text-align:center;text-anchor:middle;stroke:none">manufacturing</tspan></text>
  <rect
     class="node-rect"
     x="992.46893"
     y="354.31439"
     width="50"
     height="5.0640998"
     style="fill:#f2f78a;stroke:none"
     id="rect34400" />
  <text
     class="node-label"
     x="1017.4601"
     y="354.95856"
     text-anchor="end"
     style="font-size:9px;line-height:0.9;font-family:'Liberation Sans';stroke:none"
     id="text34402"><tspan
       sodipodi:role="line"
       id="tspan52084"
       x="1017.4601"
       y="354.95856"
       style="text-align:center;text-anchor:middle;stroke:none">Mortar</tspan><tspan
       sodipodi:role="line"
       id="tspan52086"
       x="1017.4601"
       y="363.05856"
       style="text-align:center;text-anchor:middle;stroke:none">manufacturing</tspan></text>
  <rect
     class="node-rect"
     x="992.46893"
     y="126.85439"
     width="50"
     height="26.205999"
     style="fill:#ca91fd;stroke:none"
     id="rect34404" />
  <text
     class="node-label"
     x="1047.6792"
     y="142.11951"
     text-anchor="end"
     style="font-size:9px;font-family:'Liberation Sans';stroke:none"
     id="text34406">Aggregate Use</text>
  <rect
     class="node-rect"
     x="992.46893"
     y="180.30441"
     width="50"
     height="9.9123001"
     style="fill:#ca91fd;stroke:none"
     id="rect34408" />
  <text
     class="node-label"
     x="1056.5737"
     y="187.42267"
     text-anchor="end"
     style="font-size:9px;font-family:'Liberation Sans';stroke:none"
     id="text34410">Non-aggregate Use</text>
  <rect
     class="node-rect"
     x="992.46893"
     y="216.67441"
     width="50"
     height="10.654"
     style="fill:#ca91fd;stroke:none"
     id="rect34412" />
  <text
     class="node-label"
     x="1038.4265"
     y="225.2182"
     text-anchor="end"
     style="font-size:9px;font-family:'Liberation Sans';stroke:none"
     id="text34414">Use as Fill</text>
  <rect
     class="node-rect"
     x="992.46893"
     y="320.17441"
     width="50"
     height="4.2698998"
     style="fill:#a7e66f;stroke:none"
     id="rect34416" />
  <text
     class="node-label"
     x="1029.1562"
     y="325.52615"
     text-anchor="end"
     style="font-size:9px;font-family:'Liberation Sans';stroke:none"
     id="text34418">Trade</text>
  <rect
     class="node-rect"
     x="992.46893"
     y="0.0044054934"
     width="50"
     height="8.5045996"
     style="fill:#d980b7;stroke:none"
     id="rect34420" />
  <text
     class="node-label"
     x="1018.6625"
     y="-1.7445174"
     text-anchor="end"
     id="text34424"
     style="line-height:0.7;stroke:none"><tspan
       sodipodi:role="line"
       id="tspan44032"
       x="1018.6625"
       y="-1.7445174"
       style="font-size:9px;font-family:'Liberation Sans';text-align:center;text-anchor:middle;stroke:none"
       dy="0">Overburden</tspan><tspan
       sodipodi:role="line"
       id="tspan44034"
       x="1018.6625"
       y="6.6554842"
       style="font-size:9px;font-family:'Liberation Sans';text-align:center;text-anchor:middle;stroke:none">and</tspan><tspan
       sodipodi:role="line"
       x="1018.6625"
       y="15.055482"
       id="tspan44038"
       style="font-size:9px;font-family:'Liberation Sans';text-align:center;text-anchor:middle;stroke:none">Interburden</tspan></text>
  <defs
     id="defs34426" />
</svg>
