<?xml version="1.0" encoding="UTF-8" standalone="no"?>
<svg
   class="main-svg"
   width="1051.8558"
   height="437.42224"
   viewBox="0 0 1051.8558 437.42224"
   version="1.1"
   id="svg33588"
   sodipodi:docname="reserves.svg"
   inkscape:version="1.1.2 (0a00cf5339, 2022-02-04)"
   xmlns:inkscape="http://www.inkscape.org/namespaces/inkscape"
   xmlns:sodipodi="http://sodipodi.sourceforge.net/DTD/sodipodi-0.dtd"
   xmlns="http://www.w3.org/2000/svg"
   xmlns:svg="http://www.w3.org/2000/svg">
  <sodipodi:namedview
     id="namedview33590"
     pagecolor="#ffffff"
     bordercolor="#666666"
     borderopacity="1.0"
     inkscape:pageshadow="2"
     inkscape:pageopacity="0.0"
     inkscape:pagecheckerboard="0"
     showgrid="false"
     fit-margin-top="0"
     fit-margin-left="0"
     fit-margin-right="0"
     fit-margin-bottom="0"
     inkscape:zoom="0.94721466"
     inkscape:cx="597.01357"
     inkscape:cy="191.08657"
     inkscape:window-width="1920"
     inkscape:window-height="1051"
     inkscape:window-x="0"
     inkscape:window-y="29"
     inkscape:window-maximized="1"
     inkscape:current-layer="svg33588" />
  <defs
     id="defs-09aa02">
    <g
       class="clips"
       id="g33456" />
    <g
       class="gradients"
       id="g33458" />
    <g
       class="patterns"
       id="g33460" />
  </defs>
  <path
     id="path33493"
     style="fill:#f2f78a;fill-opacity:1;stroke:#444444;stroke-width:0px;stroke-opacity:1"
     class="sankey-link"
     d="m 382.74235,326.68359 v 47.27344 c 135.70423,0 145.80944,22.58984 281.51367,22.58984 0,0 0,0.002 0,0.002 h 49.89453 l 0.002,-47.49414 h -50.00196 c -135.70422,0 -145.70397,-22.3711 -281.4082,-22.3711 z m 331.41016,22.3711 v 47.49414 h 0.10351 0.002 c 135.07023,0 141.63519,-8.43285 275.50395,-8.51172 l 5.8007,-17.42969 -10.0019,-30.04883 c -135.70425,0 -135.704,8.4961 -271.40822,8.4961 z" />
  <path
     id="path33495"
     style="fill:#dec580;fill-opacity:1;stroke:#444444;stroke-width:0px;stroke-opacity:1"
     class="sankey-link"
     d="m 985.56073,249.42969 c -135.70426,0 -135.704,2.49023 -271.40822,2.49023 v 70.93945 h 12.02734 0.004 c 0,0 164.79337,-1.67267 263.58598,-2.26757 l 5.791,-26.09766 z m -321.41018,2.49023 c -135.70422,0 -145.70397,2.90234 -281.4082,2.90234 v 70.86133 c 135.70423,0 145.53796,-2.82422 281.24219,-2.82422 h 0.16992 -0.004 50 v -70.93945 z"
     sodipodi:nodetypes="ccccccccscccccccs" />
  <path
     id="path33497"
     style="fill:#ae9e80;fill-opacity:1;stroke:#444444;stroke-width:0px;stroke-opacity:1"
     class="sankey-link"
     d="m 664.15055,5e-7 c -135.70422,0 -145.70397,8.541016 -281.4082,8.541016 V 255.82226 c 135.70423,0 145.70397,-8.54101 281.4082,-8.54101 h 50 V 5e-7 Z m 50.00196,0 V 247.28125 c 135.70422,0 135.70395,3.14844 271.40822,3.14844 l 10,-123.64063 -10,-123.6406215 C 849.85646,3.1484385 849.85673,4.9999998e-7 714.15251,5e-7 Z" />
  <path
     id="path33499"
     style="fill:#f2f78a;fill-opacity:1;stroke:#444444;stroke-width:0px;stroke-opacity:1"
     class="sankey-link"
     d="m 989.65253,388.03711 c -133.86874,0.0789 -140.43175,8.51172 -275.50198,8.51172 v 12.60156 c 135.59208,-0.005 135.63582,-8.49609 271.30278,-8.49609 z m -325.39651,8.50976 c -135.70423,0 -145.80944,7.31641 -281.51367,7.31641 v 12.82422 c 135.70354,0 145.70399,-7.53508 281.40625,-7.53516 h 0.002 49.89258 v -12.60351 h -49.78711 z m 49.78907,0.002 v 12.60156 h 0.10351 v -12.60156 z" />
  <path
     id="path33501"
     style="fill:#dec580;fill-opacity:1;stroke:#444444;stroke-width:0px;stroke-opacity:1"
     class="sankey-link"
     d="m 989.77163,321.5918 c -98.7925,0.5949 -263.58592,2.26757 -263.58592,2.26757 h -12.02539 v 19.1875 c 135.70419,0 135.70388,-2.48828 271.40821,-2.48828 z m -325.78709,2.26757 c -135.70423,0 -145.53796,60.73633 -281.24219,60.73633 v 19.26758 c 135.70423,0 145.70397,-60.81641 281.4082,-60.81641 l -9e-5,-19.1875 z m 0.16992,0 v 19.1875 h 50.00586 l -0.006,-19.1875 h -0.004 z"
     sodipodi:nodetypes="cccccccccccccccccc" />
  <path
     class="sankey-link"
     style="fill:#e3a6aa;fill-opacity:1;stroke:#444444;stroke-width:0px;stroke-opacity:1"
     d="m 51.334753,33.668412 c 135.704227,0 135.704227,-25.1283675 271.408447,-25.1283675 l 10,182.7083055 -10,182.7083 c -135.70422,0 -135.70422,25.12837 -271.408447,25.12837 z"
     id="path33509" />
  <path
     class="sankey-link"
     style="fill:#e3a6aa;fill-opacity:1;stroke:#444444;stroke-width:0px;stroke-opacity:1"
     d="m 51.334753,399.08502 c 135.704227,0 135.704227,-14.48918 271.408447,-14.48918 l 10,16.04554 -10,16.04553 c -135.70422,0 -135.70422,14.48918 -271.408447,14.48918 z"
     id="path33511" />
  <rect
     class="node-rect"
     width="50"
     height="12.492328"
     style="fill:#a7e66f;fill-opacity:1;stroke:#444444;stroke-width:0px;stroke-opacity:1"
     id="rect33561"
     x="995.56012"
     y="417.98596" />
  <path
     class="sankey-link"
     style="fill:#e3a6aa;fill-opacity:1;stroke:#444444;stroke-width:0px;stroke-opacity:1"
     d="m 51.334753,431.17609 c 467.112677,0 467.112677,-6.94396 934.225377,-6.94396 l 10,3.12308 -10,3.12308 c -467.1127,0 -467.1127,6.94396 -934.225377,6.94396 z"
     id="path33513" />
  <path
     class="sankey-link"
     style="fill:#e3a6aa;fill-opacity:1;stroke:#444444;stroke-width:0px;stroke-opacity:1"
     d="m 382.74342,416.68718 c 301.40846,0 301.74647,1.60962 603.15491,1.60962 l 9.6126,2.99376 -9.9508,2.94157 c -301.40845,0 -301.40825,-1.29878 -602.81671,-1.29878 z"
     id="path33515"
     sodipodi:nodetypes="cccccc" />
  <rect
     class="node-rect"
     width="50"
     height="365.4166"
     style="fill:#c48d98;fill-opacity:1;stroke:#444444;stroke-width:0px;stroke-opacity:1"
     id="rect33519"
     x="332.74341"
     y="8.5401392" />
  <text
     class="node-label"
     style="font-size:9px;font-family:'Liberation Sans';white-space:pre;fill:#444444;fill-opacity:1"
     data-notex="1"
     x="338.18994"
     y="194.46524"
     text-anchor="start"
     id="text33521">Terrestrial</text>
  <rect
     class="node-rect"
     width="50"
     height="38.337231"
     style="fill:#c5e9df;fill-opacity:1;stroke:#444444;stroke-width:0px;stroke-opacity:1"
     id="rect33525"
     x="332.74341"
     y="384.59613" />
  <text
     class="node-label"
     style="font-size:9px;font-family:'Liberation Sans';white-space:pre;fill:#444444;fill-opacity:1"
     data-notex="1"
     x="343.81934"
     y="406.98154"
     text-anchor="start"
     id="text33527">Marine</text>
  <text
     class="node-label"
     style="font-size:9px;font-family:'Liberation Sans';white-space:pre;fill:#444444;fill-opacity:1"
     data-notex="1"
     x="735.61121"
     y="381.00409"
     text-anchor="start"
     id="text33533">Sand</text>
  <text
     class="node-label"
     style="font-size:9px;font-family:'Liberation Sans';white-space:pre;fill:#444444;fill-opacity:1"
     data-notex="1"
     x="734.34863"
     y="300.4328"
     text-anchor="start"
     id="text33539">Gravel</text>
  <text
     class="node-label"
     style="font-size:9px;font-family:'Liberation Sans';white-space:pre;fill:#444444;fill-opacity:1"
     data-notex="1"
     x="660.40472"
     y="131.12793"
     text-anchor="start"
     id="text33545">Crushed Rock</text>
  <rect
     class="node-rect"
     width="50"
     height="403.75385"
     style="fill:#a7e66f;fill-opacity:1;stroke:#444444;stroke-width:0px;stroke-opacity:1"
     id="rect33549"
     x="1.3344345"
     y="33.668144" />
  <text
     class="node-label"
     style="font-size:9px;font-family:'Liberation Sans';white-space:pre;fill:#444444;fill-opacity:1"
     data-notex="1"
     x="7.1215439"
     y="238.59708"
     text-anchor="start"
     id="text33551">Reserves</text>
  <rect
     class="node-rect"
     width="50"
     height="397.50766"
     style="fill:#a7e66f;fill-opacity:1;stroke:#444444;stroke-width:0px;stroke-opacity:1"
     id="rect33555"
     x="995.56049"
     y="3.1471415" />
  <text
     class="node-label"
     style="font-size:9px;font-family:'Liberation Sans';white-space:pre;fill:#444444;fill-opacity:1"
     data-notex="1"
     x="1040.4919"
     y="205.11777"
     text-anchor="end"
     id="text33557">Extraction</text>
  <text
     class="node-label"
     style="font-size:9px;font-family:'Liberation Sans';white-space:pre;fill:#444444;fill-opacity:1"
     data-notex="1"
     x="1031.6035"
     y="427.44891"
     text-anchor="end"
     id="text33563">Stock</text>
  <defs
     id="topdefs-09aa02">
    <g
       class="clips"
       id="g33571" />
  </defs>
  <g
     class="layer-above"
     id="g33578"
     transform="translate(-76.552567,-81.630859)">
    <g
       class="imagelayer"
       id="g33574" />
    <g
       class="shapelayer"
       id="g33576" />
  </g>
</svg>
