<svg class="main-svg" xmlns="http://www.w3.org/2000/svg" xmlns:xlink="http://www.w3.org/1999/xlink" width="1200" height="600" style="" viewBox="0 0 1200 600"><rect x="0" y="0" width="1200" height="600" style="fill: rgb(255, 255, 255); fill-opacity: 1;"/><defs id="defs-24a475"><g class="clips"/><g class="gradients"/><g class="patterns"/></defs><g class="bglayer"/><g class="layer-below"><g class="imagelayer"/><g class="shapelayer"/></g><g class="cartesianlayer"/><g class="polarlayer"/><g class="smithlayer"/><g class="ternarylayer"/><g class="geolayer"/><g class="funnelarealayer"/><g class="pielayer"/><g class="iciclelayer"/><g class="treemaplayer"/><g class="sunburstlayer"/><g class="glimages"/><g class="sankey" style="box-sizing: content-box; position: absolute; left: 0px; shape-rendering: geometricprecision; pointer-events: auto;" transform="translate(80,100)matrix(1 0 0 1 0 0)"><g class="sankey-links" style="fill: none;"><path class="sankey-link" style="stroke: rgb(68, 68, 68); stroke-opacity: 1; fill: rgb(217, 128, 183); fill-opacity: 1; stroke-width: 0px; opacity: 1;" d="M711.5413133592891,210.98767131765237C861.1931918909122,210.98767131765237 861.1931918909122,191.81807745090936 1010.8450704225352,191.81807745090936L1020.8450704225352,200.67431909789138L1010.8450704225352,209.5305607448734C861.1931918909122,209.5305607448734 861.1931918909122,228.70015461161643 711.5413133592891,228.70015461161643Z"/><path class="sankey-link" style="stroke: rgb(68, 68, 68); stroke-opacity: 1; fill: rgb(217, 128, 183); fill-opacity: 1; stroke-width: 0px; opacity: 1;" d="M711.5413133592891,228.70015461161643C861.1931918909122,228.70015461161643 861.1931918909122,288.0909322484407 1010.8450704225352,288.0909322484407L1020.8450704225352,289.9497177837868L1010.8450704225352,291.8085033191329C861.1931918909122,291.8085033191329 861.1931918909122,232.41772568230863 711.5413133592891,232.41772568230863Z"/><path class="sankey-link" style="stroke: rgb(68, 68, 68); stroke-opacity: 1; fill: rgb(227, 166, 170); fill-opacity: 1; stroke-width: 0px; opacity: 1;" d="M382.2375562960431,9.904609163612388C696.5413133592891,9.904609163612388 696.5413133592891,9.372139434049908 1010.8450704225352,9.372139434049908L1020.8450704225352,12.317385246243038L1010.8450704225352,15.262631058436169C696.5413133592891,15.262631058436169 696.5413133592891,15.79510078799865 382.2375562960431,15.79510078799865Z"/><path class="sankey-link" style="stroke: rgb(68, 68, 68); stroke-opacity: 1; fill: rgb(227, 166, 170); fill-opacity: 1; stroke-width: 0px; opacity: 1;" d="M382.2375562960431,156.99710975224124C696.5413133592891,156.99710975224124 696.5413133592891,154.63807734820435 1010.8450704225352,154.63807734820435L1020.8450704225352,156.45191134536006L1010.8450704225352,158.26574534251577C696.5413133592891,158.26574534251577 696.5413133592891,160.62477774655267 382.2375562960431,160.62477774655267Z"/><path class="sankey-link" style="stroke: rgb(68, 68, 68); stroke-opacity: 1; fill: rgb(227, 166, 170); fill-opacity: 1; stroke-width: 0px; opacity: 1;" d="M52.93379923279705,402.5720185502992C120.25973849860856,402.5720185502992 120.25973849860856,356.81072026005205 187.58567776442007,356.81072026005205L197.58567776442007,357.87431045606536L187.58567776442007,358.93790065207867C120.25973849860856,358.93790065207867 120.25973849860856,404.69919894232584 52.93379923279705,404.69919894232584Z"/><path class="sankey-link" style="stroke: rgb(68, 68, 68); stroke-opacity: 1; fill: rgb(227, 166, 170); fill-opacity: 1; stroke-width: 0px; opacity: 1;" d="M711.5413133592891,203.94263492290264C778.8672526251007,203.94263492290264 778.8672526251007,112.2879343974546 846.1931918909122,112.2879343974546L856.1931918909122,115.81045259482947L846.1931918909122,119.33297079220434C778.8672526251007,119.33297079220434 778.8672526251007,210.98767131765237 711.5413133592891,210.98767131765237Z"/><path class="sankey-link" style="stroke: rgb(68, 68, 68); stroke-opacity: 1; fill: rgb(242, 247, 138); fill-opacity: 1; stroke-width: 0px; opacity: 1;" d="M52.93379923279705,106.76385801257342C120.25973849860856,106.76385801257342 120.25973849860856,117.90310135081026 187.58567776442007,117.90310135081026L197.58567776442007,123.81646305603022L187.58567776442007,129.72982476125017C120.25973849860856,129.72982476125017 120.25973849860856,118.59058142301333 52.93379923279705,118.59058142301333Z"/><path class="sankey-link" style="stroke: rgb(68, 68, 68); stroke-opacity: 1; fill: rgb(222, 197, 128); fill-opacity: 1; stroke-width: 0px; opacity: 1;" d="M52.93379923279705,89.02719026531398C120.25973849860856,89.02719026531398 120.25973849860856,95.59773690574323 187.58567776442007,95.59773690574323L197.58567776442007,104.46607077937296L187.58567776442007,113.33440465300268C120.25973849860856,113.33440465300268 120.25973849860856,106.76385801257342 52.93379923279705,106.76385801257342Z"/><path class="sankey-link" style="stroke: rgb(68, 68, 68); stroke-opacity: 1; fill: rgb(174, 158, 128); fill-opacity: 1; stroke-width: 0px; opacity: 1;" d="M52.93379923279705,40.3638642430726C120.25973849860856,40.3638642430726 120.25973849860856,35.99369014622215 187.58567776442007,35.99369014622215L197.58567776442007,60.32535315734283L187.58567776442007,84.65701616846351C120.25973849860856,84.65701616846351 120.25973849860856,89.02719026531396 52.93379923279705,89.02719026531396Z"/><path class="sankey-link" style="stroke: rgb(242, 247, 138); stroke-opacity: 1; fill: rgb(242, 247, 138); fill-opacity: 1; stroke-width: 1px; opacity: 1;" d="M217.58567776442007,117.90310135081026C284.9116170302316,117.90310135081026 284.9116170302316,15.220457147740332 352.2375562960431,15.220457147740332L362.2375562960431,15.525128684364024L352.2375562960431,15.829800220987716C284.9116170302316,15.829800220987716 284.9116170302316,118.51244442405763 217.58567776442007,118.51244442405763Z"/><path class="sankey-link" style="stroke: rgb(68, 68, 68); stroke-opacity: 1; fill: rgb(222, 197, 128); fill-opacity: 1; stroke-width: 0px; opacity: 1;" d="M217.58567776442007,95.59773690574323C284.9116170302316,95.59773690574323 284.9116170302316,14.144248976094609 352.2375562960431,14.144248976094609L362.2375562960431,14.68235306191747L352.2375562960431,15.22045714774033C284.9116170302316,15.22045714774033 284.9116170302316,96.67394507738896 217.58567776442007,96.67394507738896Z"/><path class="sankey-link" style="stroke: rgb(68, 68, 68); stroke-opacity: 1; fill: rgb(174, 158, 128); fill-opacity: 1; stroke-width: 0px; opacity: 1;" d="M217.58567776442007,35.99369014622215C284.9116170302316,35.99369014622215 284.9116170302316,10.654852964754767 352.2375562960431,10.654852964754767L362.2375562960431,12.399550970424688L352.2375562960431,14.144248976094609C284.9116170302316,14.144248976094609 284.9116170302316,39.483086157562 217.58567776442007,39.483086157562Z"/><path class="sankey-link" style="stroke: rgb(242, 247, 138); stroke-opacity: 1; fill: rgb(242, 247, 138); fill-opacity: 1; stroke-width: 1px; opacity: 1;" d="M52.93379923279705,23.39346302299661C202.5856777644201,23.39346302299661 202.5856777644201,10.3325688371442 352.2375562960431,10.3325688371442L362.2375562960431,10.493710900949482L352.2375562960431,10.654852964754765C202.5856777644201,10.654852964754765 202.5856777644201,23.715747150607175 52.93379923279705,23.715747150607175Z"/><path class="sankey-link" style="stroke: rgb(222, 197, 128); stroke-opacity: 1; fill: rgb(222, 197, 128); fill-opacity: 1; stroke-width: 1px; opacity: 1;" d="M52.93379923279705,5.902828422682143C202.5856777644201,5.902828422682143 202.5856777644201,9.904609163612388 352.2375562960431,9.904609163612388L362.2375562960431,10.118589000378295L352.2375562960431,10.332568837144201C202.5856777644201,10.332568837144201 202.5856777644201,6.330788096213954 52.93379923279705,6.330788096213954Z"/><path class="sankey-link" style="stroke: rgb(68, 68, 68); stroke-opacity: 1; fill: rgb(242, 247, 138); fill-opacity: 1; stroke-width: 0px; opacity: 1;" d="M52.93379923279705,209.34827428666108C120.25973849860856,209.34827428666108 120.25973849860856,212.6551590366732 187.58567776442007,212.6551590366732L197.58567776442007,219.5698096832216L187.58567776442007,226.48446032976997C120.25973849860856,226.48446032976997 120.25973849860856,223.17757557975784 52.93379923279705,223.17757557975784Z"/><path class="sankey-link" style="stroke: rgb(68, 68, 68); stroke-opacity: 1; fill: rgb(222, 197, 128); fill-opacity: 1; stroke-width: 0px; opacity: 1;" d="M52.93379923279705,198.42478763190624C120.25973849860856,198.42478763190624 120.25973849860856,196.57623396725208 187.58567776442007,196.57623396725208L197.58567776442007,202.0379772946295L187.58567776442007,207.49972062200695C120.25973849860856,207.49972062200695 120.25973849860856,209.3482742866611 52.93379923279705,209.3482742866611Z"/><path class="sankey-link" style="stroke: rgb(68, 68, 68); stroke-opacity: 1; fill: rgb(174, 158, 128); fill-opacity: 1; stroke-width: 0px; opacity: 1;" d="M52.93379923279705,165.1122804644337C120.25973849860856,165.1122804644337 120.25973849860856,157.71133632880372 187.58567776442007,157.71133632880372L197.58567776442007,174.02769319394255L187.58567776442007,190.34405005908138C120.25973849860856,190.34405005908138 120.25973849860856,197.74499419471135 52.93379923279705,197.74499419471135Z"/><path class="sankey-link" style="stroke: rgb(165, 215, 212); stroke-opacity: 1; fill: rgb(165, 215, 212); fill-opacity: 1; stroke-width: 1px; opacity: 1;" d="M52.93379923279705,197.74499419471135C531.8894348276662,197.74499419471135 531.8894348276662,158.26574534251577 1010.8450704225352,158.26574534251577L1020.8450704225352,158.6056420611132L1010.8450704225352,158.94553877971063C531.8894348276662,158.94553877971063 531.8894348276662,198.4247876319062 52.93379923279705,198.4247876319062Z"/><path class="sankey-link" style="stroke: rgb(68, 68, 68); stroke-opacity: 1; fill: rgb(217, 128, 183); fill-opacity: 1; stroke-width: 0px; opacity: 1;" d="M52.93379923279705,223.17757557975784C120.25973849860856,223.17757557975784 120.25973849860856,233.22845467124228 187.58567776442007,233.22845467124228L197.58567776442007,240.79135381590456L187.58567776442007,248.35425296056684C120.25973849860856,248.35425296056684 120.25973849860856,238.3033738690824 52.93379923279705,238.3033738690824Z"/><path class="sankey-link" style="stroke: rgb(242, 247, 138); stroke-opacity: 1; fill: rgb(242, 247, 138); fill-opacity: 1; stroke-width: 1px; opacity: 1;" d="M217.58567776442007,212.6551590366732C284.9116170302316,212.6551590366732 284.9116170302316,155.9219530785649 352.2375562960431,155.9219530785649L362.2375562960431,156.02684000100913L352.2375562960431,156.13172692345336C284.9116170302316,156.13172692345336 284.9116170302316,212.86493288156166 217.58567776442007,212.86493288156166Z"/><path class="sankey-link" style="stroke: rgb(222, 197, 128); stroke-opacity: 1; fill: rgb(222, 197, 128); fill-opacity: 1; stroke-width: 1px; opacity: 1;" d="M217.58567776442007,196.57623396725208C284.9116170302316,196.57623396725208 284.9116170302316,155.40619332459107 352.2375562960431,155.40619332459107L362.2375562960431,155.664073201578L352.2375562960431,155.9219530785649C284.9116170302316,155.9219530785649 284.9116170302316,197.09199372122592 217.58567776442007,197.09199372122592Z"/><path class="sankey-link" style="stroke: rgb(68, 68, 68); stroke-opacity: 1; fill: rgb(174, 158, 128); fill-opacity: 1; stroke-width: 0px; opacity: 1;" d="M217.58567776442007,157.71133632880372C284.9116170302316,157.71133632880372 284.9116170302316,153.84103859719033 352.2375562960431,153.84103859719033L362.2375562960431,154.6236159608907L352.2375562960431,155.40619332459107C284.9116170302316,155.40619332459107 284.9116170302316,159.27649105620446 217.58567776442007,159.27649105620446Z"/><path class="sankey-link" style="stroke: rgb(165, 215, 212); stroke-opacity: 1; fill: rgb(165, 215, 212); fill-opacity: 1; stroke-width: 1px; opacity: 1;" d="M52.93379923279705,141.8910931858009C202.5856777644201,141.8910931858009 202.5856777644201,153.66806718122967 352.2375562960431,153.66806718122967L362.2375562960431,153.75455288921L352.2375562960431,153.84103859719033C202.5856777644201,153.84103859719033 202.5856777644201,142.06406460176157 52.93379923279705,142.06406460176157Z"/><path class="sankey-link" style="stroke: rgb(217, 128, 183); stroke-opacity: 1; fill: rgb(217, 128, 183); fill-opacity: 1; stroke-width: 1px; opacity: 1;" d="M217.58567776442007,233.22845467124228C284.9116170302316,233.22845467124228 284.9116170302316,156.13172692345336 352.2375562960431,156.13172692345336L362.2375562960431,156.49869971476195L352.2375562960431,156.86567250607055C284.9116170302316,156.86567250607055 284.9116170302316,233.96240025385947 217.58567776442007,233.96240025385947Z"/><path class="sankey-link" style="stroke: rgb(68, 68, 68); stroke-opacity: 1; fill: rgb(242, 247, 138); fill-opacity: 1; stroke-width: 0px; opacity: 1;" d="M52.93379923279705,322.0600548380378C531.8894348276662,322.0600548380378 531.8894348276662,264.86827339986286 1010.8450704225352,264.86827339986286L1020.8450704225352,270.45041324473266L1010.8450704225352,276.03255308960246C531.8894348276662,276.03255308960246 531.8894348276662,333.2243345277774 52.93379923279705,333.2243345277774Z"/><path class="sankey-link" style="stroke: rgb(68, 68, 68); stroke-opacity: 1; fill: rgb(222, 197, 128); fill-opacity: 1; stroke-width: 0px; opacity: 1;" d="M52.93379923279705,314.60966597609763C531.8894348276662,314.60966597609763 531.8894348276662,252.04464255926624 1010.8450704225352,252.04464255926624L1020.8450704225352,255.7698369902363L1010.8450704225352,259.4950314212064C531.8894348276662,259.4950314212064 531.8894348276662,322.0600548380378 52.93379923279705,322.0600548380378Z"/><path class="sankey-link" style="stroke: rgb(68, 68, 68); stroke-opacity: 1; fill: rgb(174, 158, 128); fill-opacity: 1; stroke-width: 0px; opacity: 1;" d="M52.93379923279705,294.685356703573C120.25973849860856,294.685356703573 120.25973849860856,273.9037950923717 187.58567776442007,273.9037950923717L197.58567776442007,281.01139561629867L187.58567776442007,288.11899614022565C120.25973849860856,288.11899614022565 120.25973849860856,308.90055775142696 52.93379923279705,308.90055775142696Z"/><path class="sankey-link" style="stroke: rgb(68, 68, 68); stroke-opacity: 1; fill: rgb(217, 128, 183); fill-opacity: 1; stroke-width: 0px; opacity: 1;" d="M52.93379923279705,333.2243345277774C531.8894348276662,333.2243345277774 531.8894348276662,291.8085033191329 1010.8450704225352,291.8085033191329L1020.8450704225352,296.0788994472191L1010.8450704225352,300.3492955753053C531.8894348276662,300.3492955753053 531.8894348276662,341.76512678394977 52.93379923279705,341.76512678394977Z"/><path class="sankey-link" style="stroke: rgb(68, 68, 68); stroke-opacity: 1; fill: rgb(174, 158, 128); fill-opacity: 1; stroke-width: 0px; opacity: 1;" d="M52.93379923279705,309.3448156434839C531.8894348276662,309.3448156434839 531.8894348276662,239.15005411951563 1010.8450704225352,239.15005411951563L1020.8450704225352,241.7824792858225L1010.8450704225352,244.41490445212935C531.8894348276662,244.41490445212935 531.8894348276662,314.60966597609763 52.93379923279705,314.60966597609763Z"/><path class="sankey-link" style="stroke: rgb(242, 247, 138); stroke-opacity: 1; fill: rgb(242, 247, 138); fill-opacity: 1; stroke-width: 1px; opacity: 1;" d="M52.93379923279705,308.90055775142696C120.25973849860856,308.90055775142696 120.25973849860856,295.08221096421534 187.58567776442007,295.08221096421534L197.58567776442007,295.3043399102438L187.58567776442007,295.5264688562723C120.25973849860856,295.5264688562723 120.25973849860856,309.3448156434839 52.93379923279705,309.3448156434839Z"/><path class="sankey-link" style="stroke: rgb(242, 247, 138); stroke-opacity: 1; fill: rgb(242, 247, 138); fill-opacity: 1; stroke-width: 1px; opacity: 1;" d="M217.58567776442007,295.2641201129156C531.8894348276662,295.2641201129156 531.8894348276662,112.16753787996224 846.1931918909122,112.16753787996224L856.1931918909122,112.22773613870842L846.1931918909122,112.2879343974546C531.8894348276662,112.2879343974546 531.8894348276662,295.384516630408 217.58567776442007,295.384516630408Z"/><path class="sankey-link" style="stroke: rgb(174, 158, 128); stroke-opacity: 1; fill: rgb(174, 158, 128); fill-opacity: 1; stroke-width: 1px; opacity: 1;" d="M217.58567776442007,273.9037950923717C284.9116170302316,273.9037950923717 284.9116170302316,250.14846336994623 352.2375562960431,250.14846336994623L362.2375562960431,250.21602211447797L352.2375562960431,250.2835808590097C284.9116170302316,250.2835808590097 284.9116170302316,274.0389125814352 217.58567776442007,274.0389125814352Z"/><path class="sankey-link" style="stroke: rgb(242, 247, 138); stroke-opacity: 1; fill: rgb(242, 247, 138); fill-opacity: 1; stroke-width: 1px; opacity: 1;" d="M217.58567776442007,295.08221096421534C284.9116170302316,295.08221096421534 284.9116170302316,250.2835808590097 352.2375562960431,250.2835808590097L362.2375562960431,250.37453543335982L352.2375562960431,250.46549000770995C284.9116170302316,250.46549000770995 284.9116170302316,295.2641201129156 217.58567776442007,295.2641201129156Z"/><path class="sankey-link" style="stroke: rgb(227, 166, 170); stroke-opacity: 1; fill: rgb(227, 166, 170); fill-opacity: 1; stroke-width: 1px; opacity: 1;" d="M382.2375562960431,250.14846336994623C449.56349556185467,250.14846336994623 449.56349556185467,74.01293660194791 516.8894348276662,74.01293660194791L526.8894348276662,74.17144992082979L516.8894348276662,74.32996323971166C449.56349556185467,74.32996323971166 449.56349556185467,250.46549000770995 382.2375562960431,250.46549000770995Z"/><path class="sankey-link" style="stroke: rgb(68, 68, 68); stroke-opacity: 1; fill: rgb(227, 166, 170); fill-opacity: 1; stroke-width: 0px; opacity: 1;" d="M382.2375562960431,18.15991972110195C449.56349556185467,18.15991972110195 449.56349556185467,64.8901402197317 516.8894348276662,64.8901402197317L526.8894348276662,67.85273574841936L516.8894348276662,70.81533127710702C449.56349556185467,70.81533127710702 449.56349556185467,24.08511077847728 382.2375562960431,24.08511077847728Z"/><path class="sankey-link" style="stroke: rgb(68, 68, 68); stroke-opacity: 1; fill: rgb(227, 166, 170); fill-opacity: 1; stroke-width: 0px; opacity: 1;" d="M382.2375562960431,153.66806718122967C449.56349556185467,153.66806718122967 449.56349556185467,70.81533127710703 516.8894348276662,70.81533127710703L526.8894348276662,72.41413393952747L516.8894348276662,74.01293660194791C449.56349556185467,74.01293660194791 449.56349556185467,156.86567250607055 382.2375562960431,156.86567250607055Z"/><path class="sankey-link" style="stroke: rgb(68, 68, 68); stroke-opacity: 1; fill: rgb(227, 166, 170); fill-opacity: 1; stroke-width: 0px; opacity: 1;" d="M217.58567776442007,356.81072026005205C284.9116170302316,356.81072026005205 284.9116170302316,339.9269189080622 352.2375562960431,339.9269189080622L362.2375562960431,342.55934407436905L352.2375562960431,345.1917692406759C284.9116170302316,345.1917692406759 284.9116170302316,362.07557059266577 217.58567776442007,362.07557059266577Z"/><path class="sankey-link" style="stroke: rgb(68, 68, 68); stroke-opacity: 1; fill: rgb(174, 158, 128); fill-opacity: 1; stroke-width: 0px; opacity: 1;" d="M217.58567776442007,362.07557059266577C284.9116170302316,362.07557059266577 284.9116170302316,350.81589287472946 352.2375562960431,350.81589287472946L362.2375562960431,356.98213984158184L352.2375562960431,363.1483868084342C284.9116170302316,363.1483868084342 284.9116170302316,374.40806452637054 217.58567776442007,374.40806452637054Z"/><path class="sankey-link" style="stroke: rgb(68, 68, 68); stroke-opacity: 1; fill: rgb(227, 166, 170); fill-opacity: 1; stroke-width: 0px; opacity: 1;" d="M217.58567776442007,374.40806452637054C284.9116170302316,374.40806452637054 284.9116170302316,368.10346933656575 352.2375562960431,368.10346933656575L362.2375562960431,383.3317886779035L352.2375562960431,398.5601080192412C284.9116170302316,398.5601080192412 284.9116170302316,404.864703209046 217.58567776442007,404.864703209046Z"/><path class="sankey-link" style="stroke: rgb(68, 68, 68); stroke-opacity: 1; fill: rgb(227, 166, 170); fill-opacity: 1; stroke-width: 0px; opacity: 1;" d="M217.58567776442007,404.864703209046C284.9116170302316,404.864703209046 284.9116170302316,405.7079467530502 352.2375562960431,405.7079467530502L362.2375562960431,411.1683757079659L352.2375562960431,416.6288046628816C284.9116170302316,416.6288046628816 284.9116170302316,415.7855611188774 217.58567776442007,415.7855611188774Z"/><path class="sankey-link" style="stroke: rgb(68, 68, 68); stroke-opacity: 1; fill: rgb(174, 158, 128); fill-opacity: 1; stroke-width: 0px; opacity: 1;" d="M382.2375562960431,339.9269189080622C449.56349556185467,339.9269189080622 449.56349556185467,336.1203190899339 516.8894348276662,336.1203190899339L526.8894348276662,338.75274425624076L516.8894348276662,341.3851694225476C449.56349556185467,341.3851694225476 449.56349556185467,345.1917692406759 382.2375562960431,345.1917692406759Z"/><path class="sankey-link" style="stroke: rgb(68, 68, 68); stroke-opacity: 1; fill: rgb(242, 247, 138); fill-opacity: 1; stroke-width: 0px; opacity: 1;" d="M382.2375562960431,395.34725597384454C449.56349556185467,395.34725597384454 449.56349556185467,389.57968258801725 516.8894348276662,389.57968258801725L526.8894348276662,391.18610861071556L516.8894348276662,392.7925346334139C449.56349556185467,392.7925346334139 449.56349556185467,398.56010801924117 382.2375562960431,398.56010801924117Z"/><path class="sankey-link" style="stroke: rgb(68, 68, 68); stroke-opacity: 1; fill: rgb(222, 197, 128); fill-opacity: 1; stroke-width: 0px; opacity: 1;" d="M382.2375562960431,390.72434515152855C449.56349556185467,390.72434515152855 449.56349556185467,380.19152865718047 516.8894348276662,380.19152865718047L526.8894348276662,382.5029840683385L516.8894348276662,384.8144394794965C449.56349556185467,384.8144394794965 449.56349556185467,395.3472559738446 382.2375562960431,395.3472559738446Z"/><path class="sankey-link" style="stroke: rgb(68, 68, 68); stroke-opacity: 1; fill: rgb(174, 158, 128); fill-opacity: 1; stroke-width: 0px; opacity: 1;" d="M382.2375562960431,368.10346933656575C449.56349556185467,368.10346933656575 449.56349556185467,353.1727669655694 516.8894348276662,353.1727669655694L526.8894348276662,364.4832048730508L516.8894348276662,375.7936427805322C449.56349556185467,375.7936427805322 449.56349556185467,390.72434515152855 382.2375562960431,390.72434515152855Z"/><path class="sankey-link" style="stroke: rgb(242, 247, 138); stroke-opacity: 1; fill: rgb(242, 247, 138); fill-opacity: 1; stroke-width: 1px; opacity: 1;" d="M52.93379923279705,270.9243988856289C367.23755629604307,270.9243988856289 367.23755629604307,205.19391750644775 681.5413133592891,205.19391750644775L691.5413133592891,205.6526334955835L681.5413133592891,206.11134948471926C367.23755629604307,206.11134948471926 367.23755629604307,271.84183086390044 52.93379923279705,271.84183086390044Z"/><path class="sankey-link" style="stroke: rgb(68, 68, 68); stroke-opacity: 1; fill: rgb(222, 197, 128); fill-opacity: 1; stroke-width: 0px; opacity: 1;" d="M52.93379923279705,256.22337845974573C367.23755629604307,256.22337845974573 367.23755629604307,203.94263492290264 681.5413133592891,203.94263492290264L691.5413133592891,204.5682762146752L681.5413133592891,205.19391750644775C367.23755629604307,205.19391750644775 367.23755629604307,257.4746610432908 52.93379923279705,257.4746610432908Z"/><path class="sankey-link" style="stroke: rgb(68, 68, 68); stroke-opacity: 1; fill: rgb(174, 158, 128); fill-opacity: 1; stroke-width: 0px; opacity: 1;" d="M546.8894348276662,336.1203190899339C614.2153740934776,336.1203190899339 614.2153740934776,215.95915371681306 681.5413133592891,215.95915371681306L691.5413133592891,217.7472260137193L681.5413133592891,219.53529831062556C614.2153740934776,219.53529831062556 614.2153740934776,339.6964636837464 546.8894348276662,339.6964636837464Z"/><path class="sankey-link" style="stroke: rgb(174, 158, 128); stroke-opacity: 1; fill: rgb(174, 158, 128); fill-opacity: 1; stroke-width: 1px; opacity: 1;" d="M382.2375562960431,350.81589287472946C531.8894348276662,350.81589287472946 531.8894348276662,206.11134948471926 681.5413133592891,206.11134948471926L691.5413133592891,206.49803786295345L681.5413133592891,206.88472624118765C531.8894348276662,206.88472624118765 531.8894348276662,351.5892696311979 382.2375562960431,351.5892696311979Z"/><path class="sankey-link" style="stroke: rgb(68, 68, 68); stroke-opacity: 1; fill: rgb(242, 247, 138); fill-opacity: 1; stroke-width: 0px; opacity: 1;" d="M546.8894348276662,389.57968258801725C614.2153740934776,389.57968258801725 614.2153740934776,224.95471884473602 681.5413133592891,224.95471884473602L691.5413133592891,225.45496900366172L681.5413133592891,225.9552191625874C614.2153740934776,225.9552191625874 614.2153740934776,390.5801829058687 546.8894348276662,390.5801829058687Z"/><path class="sankey-link" style="stroke: rgb(68, 68, 68); stroke-opacity: 1; fill: rgb(222, 197, 128); fill-opacity: 1; stroke-width: 0px; opacity: 1;" d="M546.8894348276662,380.19152865718047C614.2153740934776,380.19152865718047 614.2153740934776,223.57778225385172 681.5413133592891,223.57778225385172L691.5413133592891,224.26625054929386L681.5413133592891,224.954718844736C614.2153740934776,224.954718844736 614.2153740934776,381.56846524806474 546.8894348276662,381.56846524806474Z"/><path class="sankey-link" style="stroke: rgb(68, 68, 68); stroke-opacity: 1; fill: rgb(174, 158, 128); fill-opacity: 1; stroke-width: 0px; opacity: 1;" d="M546.8894348276662,353.1727669655694C614.2153740934776,353.1727669655694 614.2153740934776,219.53529831062556 681.5413133592891,219.53529831062556L691.5413133592891,221.55654028223864L681.5413133592891,223.57778225385172C614.2153740934776,223.57778225385172 614.2153740934776,357.2152509087956 546.8894348276662,357.2152509087956Z"/><path class="sankey-link" style="stroke: rgb(68, 68, 68); stroke-opacity: 1; fill: rgb(227, 166, 170); fill-opacity: 1; stroke-width: 0px; opacity: 1;" d="M382.2375562960431,405.7079467530502C531.8894348276662,405.7079467530502 531.8894348276662,206.88472624118768 681.5413133592891,206.88472624118768L691.5413133592891,211.42193997900037L681.5413133592891,215.95915371681306C531.8894348276662,215.95915371681306 531.8894348276662,414.78237422867556 382.2375562960431,414.78237422867556Z"/><path class="sankey-link" style="stroke: rgb(242, 247, 138); stroke-opacity: 1; fill: rgb(242, 247, 138); fill-opacity: 1; stroke-width: 1px; opacity: 1;" d="M 22.93379923279705 403.59039433362983 L17.93379923279705 403.59039433362983A11.448964201785838 11.448964201785838 0 0 0 6.484835031011212 415.03935853541566L6.484835031011212 420.0393585354157A11.448964201785838 11.448964201785838 0 0 0 17.93379923279705 431.48832273720154L551.8894348276662 431.48832273720154A10.138797731956263 10.138797731956263 0 0 0 562.0282325596223 421.34952500524525L562.0282325596223 402.792534633414A10.138797731956263 10.138797731956263 0 0 0 551.8894348276662 392.6537369014577L546.8894348276662 392.6537369014577L546.8894348276662 392.792534633414L551.8894348276662 392.792534633414A10 10 0 0 1 561.8894348276662 402.792534633414L561.8894348276662 421.34952500524525A10 10 0 0 1 551.8894348276662 431.34952500524525L17.93379923279705 431.34952500524525A11.310166469829575 11.310166469829575 0 0 1 6.623632762967478 420.0393585354157L6.623632762967478 415.03935853541566A11.310166469829575 11.310166469829575 0 0 1 17.93379923279705 403.7291920655861L22.93379923279705 403.7291920655861L32.93379923279705 403.659793199608Z"/><path class="sankey-link" style="stroke: rgb(68, 68, 68); stroke-opacity: 1; fill: rgb(174, 158, 128); fill-opacity: 1; stroke-width: 0px; opacity: 1;" d="M 22.93379923279705 402.5720185502993 L17.93379923279705 402.5720185502993A12.46733998511645 12.46733998511645 0 0 0 5.4664592476806 415.0393585354157L5.4664592476806 420.0393585354157A12.46733998511645 12.46733998511645 0 0 0 17.93379923279705 432.50669852053215L551.8894348276662 432.50669852053215A11.157173515286875 11.157173515286875 0 0 0 563.046608342953 421.34952500524525L563.046608342953 385.9324405124885A11.157173515286875 11.157173515286875 0 0 0 551.8894348276662 374.7752669972016L546.8894348276662 374.7752669972016L546.8894348276662 375.7936427805322L551.8894348276662 375.7936427805322A10.138797731956263 10.138797731956263 0 0 1 562.0282325596224 385.9324405124885L562.0282325596224 421.34952500524525A10.138797731956263 10.138797731956263 0 0 1 551.8894348276662 431.48832273720154L17.93379923279705 431.48832273720154A11.448964201785838 11.448964201785838 0 0 1 6.484835031011212 420.0393585354157L6.484835031011212 415.0393585354157A11.448964201785838 11.448964201785838 0 0 1 17.93379923279705 403.5903943336299L22.93379923279705 403.5903943336299L32.93379923279705 403.0812064419646Z"/><path class="sankey-link" style="stroke: rgb(68, 68, 68); stroke-opacity: 1; fill: rgb(227, 166, 170); fill-opacity: 1; stroke-width: 0px; opacity: 1;" d="M 22.93379923279705 403.7291920655861 L17.93379923279705 403.7291920655861A11.310166469829575 11.310166469829575 0 0 0 6.623632762967475 415.0393585354157L6.623632762967475 431.6288046628816A11.310166469829575 11.310166469829575 0 0 0 17.93379923279705 442.9389711327112L387.2375562960431 442.9389711327112A11.310166469829575 11.310166469829575 0 0 0 398.5477227658727 431.6288046628816L398.5477227658727 426.6288046628816A11.310166469829575 11.310166469829575 0 0 0 387.2375562960431 415.318638193052L382.2375562960431 415.318638193052L382.2375562960431 416.6288046628816L387.2375562960431 416.6288046628816A10 10 0 0 1 397.2375562960431 426.6288046628816L397.2375562960431 431.6288046628816A10 10 0 0 1 387.2375562960431 441.6288046628816L17.93379923279705 441.6288046628816A10 10 0 0 1 7.93379923279705 431.6288046628816L7.93379923279705 415.0393585354157A10 10 0 0 1 17.93379923279705 405.0393585354157L22.93379923279705 405.0393585354157L32.93379923279705 404.3842753005009Z"/><path class="sankey-link" style="stroke: rgb(68, 68, 68); stroke-opacity: 1; fill: rgb(227, 166, 170); fill-opacity: 1; stroke-width: 0px; opacity: 1;" d="M876.1931918909122,112.16753787996224C943.5191311567237,112.16753787996224 943.5191311567237,50.214224435276975 1010.8450704225352,50.214224435276975L1020.8450704225352,54.15734182039809L1010.8450704225352,58.1004592055192C943.5191311567237,58.1004592055192 943.5191311567237,120.05377265020446 876.1931918909122,120.05377265020446Z"/><path class="sankey-link" style="stroke: rgb(68, 68, 68); stroke-opacity: 1; fill: rgb(227, 166, 170); fill-opacity: 1; stroke-width: 0px; opacity: 1;" d="M546.8894348276662,64.8901402197317C778.8672526251007,64.8901402197317 778.8672526251007,46.929344778978745 1010.8450704225352,46.929344778978745L1020.8450704225352,48.2431914917011L1010.8450704225352,49.55703820442345C778.8672526251007,49.55703820442345 778.8672526251007,67.51783364517641 546.8894348276662,67.51783364517641Z"/><path class="sankey-link" style="stroke: rgb(68, 68, 68); stroke-opacity: 1; fill: rgb(227, 166, 170); fill-opacity: 1; stroke-width: 0px; opacity: 1;" d="M382.2375562960431,15.79510078799865C696.5413133592891,15.79510078799865 696.5413133592891,44.564525845875444 1010.8450704225352,44.564525845875444L1020.8450704225352,45.7469353124271L1010.8450704225352,46.92934477897875C696.5413133592891,46.92934477897875 696.5413133592891,18.15991972110195 382.2375562960431,18.15991972110195Z"/><path class="sankey-link" style="stroke: rgb(227, 166, 170); stroke-opacity: 1; fill: rgb(227, 166, 170); fill-opacity: 1; stroke-width: 1px; opacity: 1;" d="M382.2375562960431,156.86567250607055C696.5413133592891,156.86567250607055 696.5413133592891,49.557038204423456 1010.8450704225352,49.557038204423456L1020.8450704225352,49.62275682750881L1010.8450704225352,49.68847545059416C696.5413133592891,49.68847545059416 696.5413133592891,156.99710975224127 382.2375562960431,156.99710975224127Z"/><path class="sankey-link" style="stroke: rgb(227, 166, 170); stroke-opacity: 1; fill: rgb(227, 166, 170); fill-opacity: 1; stroke-width: 1px; opacity: 1;" d="M382.2375562960431,250.46549000770997C696.5413133592891,250.46549000770997 696.5413133592891,49.68847545059416 1010.8450704225352,49.68847545059416L1020.8450704225352,49.95134994293557L1010.8450704225352,50.21422443527698C696.5413133592891,50.21422443527698 696.5413133592891,250.9912389923928 382.2375562960431,250.9912389923928Z"/></g><g class="sankey-node-set" style="cursor: ns-resize;"><g class="sankey-node" transform="translate(691.541,203.943)" style="opacity: 1;"><rect class="node-rect" width="20" height="28.475090759405703" style="stroke-width: 0px; stroke: rgb(68, 68, 68); stroke-opacity: 1; fill: rgb(217, 128, 183); fill-opacity: 1;"/><text class="node-label" style="cursor: default; font-family: TOBESTRIPPEDOpen SansTOBESTRIPPED, verdana, arial, sans-serif; font-size: 12px; fill: rgb(68, 68, 68); fill-opacity: 1; white-space: pre; text-shadow: rgb(255, 255, 255) 1px 1px 1px, rgb(255, 255, 255) -1px -1px 1px, rgb(255, 255, 255) 1px -1px 1px, rgb(255, 255, 255) -1px 1px 1px;" data-notex="1" x="0" y="0" text-anchor="start" transform="translate(23,18.43754537970285)">Demolition</text></g><g class="sankey-node" transform="translate(362.238,9.905)" style="opacity: 1;"><rect class="node-rect" width="20" height="14.180501614864909" style="stroke-width: 0px; stroke: rgb(68, 68, 68); stroke-opacity: 1; fill: rgb(217, 128, 183); fill-opacity: 1;"/><text class="node-label" style="cursor: default; font-family: TOBESTRIPPEDOpen SansTOBESTRIPPED, verdana, arial, sans-serif; font-size: 12px; fill: rgb(68, 68, 68); fill-opacity: 1; white-space: pre; text-shadow: rgb(255, 255, 255) 1px 1px 1px, rgb(255, 255, 255) -1px -1px 1px, rgb(255, 255, 255) 1px -1px 1px, rgb(255, 255, 255) -1px 1px 1px;" data-notex="1" x="0" y="0" text-anchor="start" transform="translate(23,11.290250807432454)">Overburden and Interburden</text></g><g class="sankey-node" transform="translate(362.238,153.668)" style="opacity: 1;"><rect class="node-rect" width="20" height="6.9567105653230215" style="stroke-width: 0px; stroke: rgb(68, 68, 68); stroke-opacity: 1; fill: rgb(217, 128, 183); fill-opacity: 1;"/><text class="node-label" style="cursor: default; font-family: TOBESTRIPPEDOpen SansTOBESTRIPPED, verdana, arial, sans-serif; font-size: 12px; fill: rgb(68, 68, 68); fill-opacity: 1; white-space: pre; text-shadow: rgb(255, 255, 255) 1px 1px 1px, rgb(255, 255, 255) -1px -1px 1px, rgb(255, 255, 255) 1px -1px 1px, rgb(255, 255, 255) -1px 1px 1px;" data-notex="1" x="0" y="0" text-anchor="start" transform="translate(23,7.67835528266151)">Scalpings and Fines</text></g><g class="sankey-node" transform="translate(32.934,402.572)" style="opacity: 1;"><rect class="node-rect" width="20" height="2.467339985116496" style="stroke-width: 0px; stroke: rgb(68, 68, 68); stroke-opacity: 1; fill: rgb(217, 128, 183); fill-opacity: 1;"/><text class="node-label" style="cursor: default; font-family: TOBESTRIPPEDOpen SansTOBESTRIPPED, verdana, arial, sans-serif; font-size: 12px; fill: rgb(68, 68, 68); fill-opacity: 1; white-space: pre; text-shadow: rgb(255, 255, 255) 1px 1px 1px, rgb(255, 255, 255) -1px -1px 1px, rgb(255, 255, 255) 1px -1px 1px, rgb(255, 255, 255) -1px 1px 1px;" data-notex="1" x="0" y="0" text-anchor="start" transform="translate(23,5.433669992558247)">Deconstruction</text></g><g class="sankey-node" transform="translate(32.934,40.364)" style="opacity: 1;"><rect class="node-rect" width="20" height="78.22671717994078" style="stroke-width: 0px; stroke: rgb(68, 68, 68); stroke-opacity: 1; fill: rgb(167, 230, 111); fill-opacity: 1;"/><text class="node-label" style="cursor: default; font-family: TOBESTRIPPEDOpen SansTOBESTRIPPED, verdana, arial, sans-serif; font-size: 12px; fill: rgb(68, 68, 68); fill-opacity: 1; white-space: pre; text-shadow: rgb(255, 255, 255) 1px 1px 1px, rgb(255, 255, 255) -1px -1px 1px, rgb(255, 255, 255) 1px -1px 1px, rgb(255, 255, 255) -1px 1px 1px;" data-notex="1" x="0" y="0" text-anchor="start" transform="translate(23,43.31335858997039)">Extraction</text></g><g class="sankey-node" transform="translate(197.586,117.903)" style="opacity: 1;"><rect class="node-rect" width="20" height="11.82672341043994" style="stroke-width: 0px; stroke: rgb(68, 68, 68); stroke-opacity: 1; fill: rgb(242, 247, 138); fill-opacity: 1;"/><text class="node-label" style="cursor: default; font-family: TOBESTRIPPEDOpen SansTOBESTRIPPED, verdana, arial, sans-serif; font-size: 12px; fill: rgb(68, 68, 68); fill-opacity: 1; white-space: pre; text-shadow: rgb(255, 255, 255) 1px 1px 1px, rgb(255, 255, 255) -1px -1px 1px, rgb(255, 255, 255) 1px -1px 1px, rgb(255, 255, 255) -1px 1px 1px;" data-notex="1" x="0" y="0" text-anchor="start" transform="translate(23,10.113361705219969)">Extraction Sand</text></g><g class="sankey-node" transform="translate(197.586,95.598)" style="opacity: 1;"><rect class="node-rect" width="20" height="17.736667747259332" style="stroke-width: 0px; stroke: rgb(68, 68, 68); stroke-opacity: 1; fill: rgb(222, 197, 128); fill-opacity: 1;"/><text class="node-label" style="cursor: default; font-family: TOBESTRIPPEDOpen SansTOBESTRIPPED, verdana, arial, sans-serif; font-size: 12px; fill: rgb(68, 68, 68); fill-opacity: 1; white-space: pre; text-shadow: rgb(255, 255, 255) 1px 1px 1px, rgb(255, 255, 255) -1px -1px 1px, rgb(255, 255, 255) 1px -1px 1px, rgb(255, 255, 255) -1px 1px 1px;" data-notex="1" x="0" y="0" text-anchor="start" transform="translate(23,13.068333873629665)">Extraction Gravel</text></g><g class="sankey-node" transform="translate(197.586,35.994)" style="opacity: 1;"><rect class="node-rect" width="20" height="48.663326022241236" style="stroke-width: 0px; stroke: rgb(68, 68, 68); stroke-opacity: 1; fill: rgb(174, 158, 128); fill-opacity: 1;"/><text class="node-label" style="cursor: default; font-family: TOBESTRIPPEDOpen SansTOBESTRIPPED, verdana, arial, sans-serif; font-size: 12px; fill: rgb(68, 68, 68); fill-opacity: 1; white-space: pre; text-shadow: rgb(255, 255, 255) 1px 1px 1px, rgb(255, 255, 255) -1px -1px 1px, rgb(255, 255, 255) 1px -1px 1px, rgb(255, 255, 255) -1px 1px 1px;" data-notex="1" x="0" y="0" text-anchor="start" transform="translate(23,28.531663011120617)">Extraction Crushed Rock</text></g><g class="sankey-node" transform="translate(32.934,23.393)" style="opacity: 1;"><rect class="node-rect" width="20" height="0.5" style="stroke-width: 0px; stroke: rgb(68, 68, 68); stroke-opacity: 1; fill: rgb(242, 247, 138); fill-opacity: 1;"/><text class="node-label" style="cursor: default; font-family: TOBESTRIPPEDOpen SansTOBESTRIPPED, verdana, arial, sans-serif; font-size: 12px; fill: rgb(68, 68, 68); fill-opacity: 1; white-space: pre; text-shadow: rgb(255, 255, 255) 1px 1px 1px, rgb(255, 255, 255) -1px -1px 1px, rgb(255, 255, 255) 1px -1px 1px, rgb(255, 255, 255) -1px 1px 1px;" data-notex="1" x="0" y="0" text-anchor="start" transform="translate(23,4.449999999999999)">Marine Dredged Sand</text></g><g class="sankey-node" transform="translate(32.934,5.903)" style="opacity: 1;"><rect class="node-rect" width="20" height="0.5" style="stroke-width: 0px; stroke: rgb(68, 68, 68); stroke-opacity: 1; fill: rgb(222, 197, 128); fill-opacity: 1;"/><text class="node-label" style="cursor: default; font-family: TOBESTRIPPEDOpen SansTOBESTRIPPED, verdana, arial, sans-serif; font-size: 12px; fill: rgb(68, 68, 68); fill-opacity: 1; white-space: pre; text-shadow: rgb(255, 255, 255) 1px 1px 1px, rgb(255, 255, 255) -1px -1px 1px, rgb(255, 255, 255) 1px -1px 1px, rgb(255, 255, 255) -1px 1px 1px;" data-notex="1" x="0" y="0" text-anchor="start" transform="translate(23,4.449999999999999)">Marine Dredged Gravel</text></g><g class="sankey-node" transform="translate(32.934,165.112)" style="opacity: 1;"><rect class="node-rect" width="20" height="73.19109340464883" style="stroke-width: 0px; stroke: rgb(68, 68, 68); stroke-opacity: 1; fill: rgb(167, 230, 111); fill-opacity: 1;"/><text class="node-label" style="cursor: default; font-family: TOBESTRIPPEDOpen SansTOBESTRIPPED, verdana, arial, sans-serif; font-size: 12px; fill: rgb(68, 68, 68); fill-opacity: 1; white-space: pre; text-shadow: rgb(255, 255, 255) 1px 1px 1px, rgb(255, 255, 255) -1px -1px 1px, rgb(255, 255, 255) 1px -1px 1px, rgb(255, 255, 255) -1px 1px 1px;" data-notex="1" x="0" y="0" text-anchor="start" transform="translate(23,40.795546702324415)">Processing/Production</text></g><g class="sankey-node" transform="translate(197.586,212.655)" style="opacity: 1;"><rect class="node-rect" width="20" height="13.829301293096648" style="stroke-width: 0px; stroke: rgb(68, 68, 68); stroke-opacity: 1; fill: rgb(242, 247, 138); fill-opacity: 1;"/><text class="node-label" style="cursor: default; font-family: TOBESTRIPPEDOpen SansTOBESTRIPPED, verdana, arial, sans-serif; font-size: 12px; fill: rgb(68, 68, 68); fill-opacity: 1; white-space: pre; text-shadow: rgb(255, 255, 255) 1px 1px 1px, rgb(255, 255, 255) -1px -1px 1px, rgb(255, 255, 255) 1px -1px 1px, rgb(255, 255, 255) -1px 1px 1px;" data-notex="1" x="0" y="0" text-anchor="start" transform="translate(23,11.114650646548323)">Processing/Production Sand</text></g><g class="sankey-node" transform="translate(197.586,196.576)" style="opacity: 1;"><rect class="node-rect" width="20" height="10.92348665475481" style="stroke-width: 0px; stroke: rgb(68, 68, 68); stroke-opacity: 1; fill: rgb(222, 197, 128); fill-opacity: 1;"/><text class="node-label" style="cursor: default; font-family: TOBESTRIPPEDOpen SansTOBESTRIPPED, verdana, arial, sans-serif; font-size: 12px; fill: rgb(68, 68, 68); fill-opacity: 1; white-space: pre; text-shadow: rgb(255, 255, 255) 1px 1px 1px, rgb(255, 255, 255) -1px -1px 1px, rgb(255, 255, 255) 1px -1px 1px, rgb(255, 255, 255) -1px 1px 1px;" data-notex="1" x="0" y="0" text-anchor="start" transform="translate(23,9.661743327377405)">Processing/Production Gravel</text></g><g class="sankey-node" transform="translate(197.586,157.711)" style="opacity: 1;"><rect class="node-rect" width="20" height="32.6327137302776" style="stroke-width: 0px; stroke: rgb(68, 68, 68); stroke-opacity: 1; fill: rgb(174, 158, 128); fill-opacity: 1;"/><text class="node-label" style="cursor: default; font-family: TOBESTRIPPEDOpen SansTOBESTRIPPED, verdana, arial, sans-serif; font-size: 12px; fill: rgb(68, 68, 68); fill-opacity: 1; white-space: pre; text-shadow: rgb(255, 255, 255) 1px 1px 1px, rgb(255, 255, 255) -1px -1px 1px, rgb(255, 255, 255) 1px -1px 1px, rgb(255, 255, 255) -1px 1px 1px;" data-notex="1" x="0" y="0" text-anchor="start" transform="translate(23,20.5163568651388)">Processing/Production Crushed Rock</text></g><g class="sankey-node" transform="translate(32.934,141.891)" style="opacity: 1;"><rect class="node-rect" width="20" height="0.5" style="stroke-width: 0px; stroke: rgb(68, 68, 68); stroke-opacity: 1; fill: rgb(165, 215, 212); fill-opacity: 1;"/><text class="node-label" style="cursor: default; font-family: TOBESTRIPPEDOpen SansTOBESTRIPPED, verdana, arial, sans-serif; font-size: 12px; fill: rgb(68, 68, 68); fill-opacity: 1; white-space: pre; text-shadow: rgb(255, 255, 255) 1px 1px 1px, rgb(255, 255, 255) -1px -1px 1px, rgb(255, 255, 255) 1px -1px 1px, rgb(255, 255, 255) -1px 1px 1px;" data-notex="1" x="0" y="0" text-anchor="start" transform="translate(23,4.449999999999999)">Processing/Production Secondary Aggregates</text></g><g class="sankey-node" transform="translate(1020.845,154.638)" style="opacity: 1;"><rect class="node-rect" width="20" height="4.307461431506283" style="stroke-width: 0px; stroke: rgb(68, 68, 68); stroke-opacity: 1; fill: rgb(162, 227, 155); fill-opacity: 1;"/><text class="node-label" style="cursor: default; font-family: TOBESTRIPPEDOpen SansTOBESTRIPPED, verdana, arial, sans-serif; font-size: 12px; fill: rgb(68, 68, 68); fill-opacity: 1; white-space: pre; text-shadow: rgb(255, 255, 255) 1px 1px 1px, rgb(255, 255, 255) -1px -1px 1px, rgb(255, 255, 255) 1px -1px 1px, rgb(255, 255, 255) -1px 1px 1px;" data-notex="1" x="0" y="0" text-anchor="end" transform="translate(-3,6.353730715753141)">Processing/Production recycled Waste</text></g><g class="sankey-node" transform="translate(197.586,233.228)" style="opacity: 1;"><rect class="node-rect" width="20" height="15.12579828932462" style="stroke-width: 0px; stroke: rgb(68, 68, 68); stroke-opacity: 1; fill: rgb(217, 128, 183); fill-opacity: 1;"/><text class="node-label" style="cursor: default; font-family: TOBESTRIPPEDOpen SansTOBESTRIPPED, verdana, arial, sans-serif; font-size: 12px; fill: rgb(68, 68, 68); fill-opacity: 1; white-space: pre; text-shadow: rgb(255, 255, 255) 1px 1px 1px, rgb(255, 255, 255) -1px -1px 1px, rgb(255, 255, 255) 1px -1px 1px, rgb(255, 255, 255) -1px 1px 1px;" data-notex="1" x="0" y="0" text-anchor="start" transform="translate(23,11.76289914466231)">Processing/Production C&amp;D Waste</text></g><g class="sankey-node" transform="translate(32.934,294.685)" style="opacity: 1;"><rect class="node-rect" width="20" height="47.07977008037665" style="stroke-width: 0px; stroke: rgb(68, 68, 68); stroke-opacity: 1; fill: rgb(167, 230, 111); fill-opacity: 1;"/><text class="node-label" style="cursor: default; font-family: TOBESTRIPPEDOpen SansTOBESTRIPPED, verdana, arial, sans-serif; font-size: 12px; fill: rgb(68, 68, 68); fill-opacity: 1; white-space: pre; text-shadow: rgb(255, 255, 255) 1px 1px 1px, rgb(255, 255, 255) -1px -1px 1px, rgb(255, 255, 255) 1px -1px 1px, rgb(255, 255, 255) -1px 1px 1px;" data-notex="1" x="0" y="0" text-anchor="start" transform="translate(23,27.739885040188323)">Manufacturing</text></g><g class="sankey-node" transform="translate(1020.845,264.868)" style="opacity: 1;"><rect class="node-rect" width="20" height="11.164279689739715" style="stroke-width: 0px; stroke: rgb(68, 68, 68); stroke-opacity: 1; fill: rgb(242, 247, 138); fill-opacity: 1;"/><text class="node-label" style="cursor: default; font-family: TOBESTRIPPEDOpen SansTOBESTRIPPED, verdana, arial, sans-serif; font-size: 12px; fill: rgb(68, 68, 68); fill-opacity: 1; white-space: pre; text-shadow: rgb(255, 255, 255) 1px 1px 1px, rgb(255, 255, 255) -1px -1px 1px, rgb(255, 255, 255) 1px -1px 1px, rgb(255, 255, 255) -1px 1px 1px;" data-notex="1" x="0" y="0" text-anchor="end" transform="translate(-3,9.782139844869857)">Concreting Sand</text></g><g class="sankey-node" transform="translate(1020.845,252.045)" style="opacity: 1;"><rect class="node-rect" width="20" height="7.450388861940127" style="stroke-width: 0px; stroke: rgb(68, 68, 68); stroke-opacity: 1; fill: rgb(222, 197, 128); fill-opacity: 1;"/><text class="node-label" style="cursor: default; font-family: TOBESTRIPPEDOpen SansTOBESTRIPPED, verdana, arial, sans-serif; font-size: 12px; fill: rgb(68, 68, 68); fill-opacity: 1; white-space: pre; text-shadow: rgb(255, 255, 255) 1px 1px 1px, rgb(255, 255, 255) -1px -1px 1px, rgb(255, 255, 255) 1px -1px 1px, rgb(255, 255, 255) -1px 1px 1px;" data-notex="1" x="0" y="0" text-anchor="end" transform="translate(-3,7.925194430970063)">Concreting Gravel</text></g><g class="sankey-node" transform="translate(197.586,273.904)" style="opacity: 1;"><rect class="node-rect" width="20" height="14.215201047853952" style="stroke-width: 0px; stroke: rgb(68, 68, 68); stroke-opacity: 1; fill: rgb(174, 158, 128); fill-opacity: 1;"/><text class="node-label" style="cursor: default; font-family: TOBESTRIPPEDOpen SansTOBESTRIPPED, verdana, arial, sans-serif; font-size: 12px; fill: rgb(68, 68, 68); fill-opacity: 1; white-space: pre; text-shadow: rgb(255, 255, 255) 1px 1px 1px, rgb(255, 255, 255) -1px -1px 1px, rgb(255, 255, 255) 1px -1px 1px, rgb(255, 255, 255) -1px 1px 1px;" data-notex="1" x="0" y="0" text-anchor="start" transform="translate(23,11.307600523926975)">Concreting Crushed Rock</text></g><g class="sankey-node" transform="translate(1020.845,288.091)" style="opacity: 1;"><rect class="node-rect" width="20" height="12.258363326864469" style="stroke-width: 0px; stroke: rgb(68, 68, 68); stroke-opacity: 1; fill: rgb(217, 128, 183); fill-opacity: 1;"/><text class="node-label" style="cursor: default; font-family: TOBESTRIPPEDOpen SansTOBESTRIPPED, verdana, arial, sans-serif; font-size: 12px; fill: rgb(68, 68, 68); fill-opacity: 1; white-space: pre; text-shadow: rgb(255, 255, 255) 1px 1px 1px, rgb(255, 255, 255) -1px -1px 1px, rgb(255, 255, 255) 1px -1px 1px, rgb(255, 255, 255) -1px 1px 1px;" data-notex="1" x="0" y="0" text-anchor="end" transform="translate(-3,10.329181663432234)">Concreting C&amp;D</text></g><g class="sankey-node" transform="translate(1020.845,239.150)" style="opacity: 1;"><rect class="node-rect" width="20" height="5.264850332613662" style="stroke-width: 0px; stroke: rgb(68, 68, 68); stroke-opacity: 1; fill: rgb(174, 158, 128); fill-opacity: 1;"/><text class="node-label" style="cursor: default; font-family: TOBESTRIPPEDOpen SansTOBESTRIPPED, verdana, arial, sans-serif; font-size: 12px; fill: rgb(68, 68, 68); fill-opacity: 1; white-space: pre; text-shadow: rgb(255, 255, 255) 1px 1px 1px, rgb(255, 255, 255) -1px -1px 1px, rgb(255, 255, 255) 1px -1px 1px, rgb(255, 255, 255) -1px 1px 1px;" data-notex="1" x="0" y="0" text-anchor="end" transform="translate(-3,6.83242516630683)">Asphalt Crushed Rock</text></g><g class="sankey-node" transform="translate(197.586,295.082)" style="opacity: 1;"><rect class="node-rect" width="20" height="0.5" style="stroke-width: 0px; stroke: rgb(68, 68, 68); stroke-opacity: 1; fill: rgb(242, 247, 138); fill-opacity: 1;"/><text class="node-label" style="cursor: default; font-family: TOBESTRIPPEDOpen SansTOBESTRIPPED, verdana, arial, sans-serif; font-size: 12px; fill: rgb(68, 68, 68); fill-opacity: 1; white-space: pre; text-shadow: rgb(255, 255, 255) 1px 1px 1px, rgb(255, 255, 255) -1px -1px 1px, rgb(255, 255, 255) 1px -1px 1px, rgb(255, 255, 255) -1px 1px 1px;" data-notex="1" x="0" y="0" text-anchor="start" transform="translate(23,4.449999999999999)">Mortar Manufacturing</text></g><g class="sankey-node" transform="translate(362.238,250.148)" style="opacity: 1;"><rect class="node-rect" width="20" height="0.842775622446652" style="stroke-width: 0px; stroke: rgb(68, 68, 68); stroke-opacity: 1; fill: rgb(217, 128, 183); fill-opacity: 1;"/><text class="node-label" style="cursor: default; font-family: TOBESTRIPPEDOpen SansTOBESTRIPPED, verdana, arial, sans-serif; font-size: 12px; fill: rgb(68, 68, 68); fill-opacity: 1; white-space: pre; text-shadow: rgb(255, 255, 255) 1px 1px 1px, rgb(255, 255, 255) -1px -1px 1px, rgb(255, 255, 255) 1px -1px 1px, rgb(255, 255, 255) -1px 1px 1px;" data-notex="1" x="0" y="0" text-anchor="start" transform="translate(23,4.621387811223325)">Manufacturing Waste</text></g><g class="sankey-node" transform="translate(197.586,356.811)" style="opacity: 1;"><rect class="node-rect" width="20" height="58.97484085882559" style="stroke-width: 0px; stroke: rgb(68, 68, 68); stroke-opacity: 1; fill: rgb(167, 230, 111); fill-opacity: 1;"/><text class="node-label" style="cursor: default; font-family: TOBESTRIPPEDOpen SansTOBESTRIPPED, verdana, arial, sans-serif; font-size: 12px; fill: rgb(68, 68, 68); fill-opacity: 1; white-space: pre; text-shadow: rgb(255, 255, 255) 1px 1px 1px, rgb(255, 255, 255) -1px -1px 1px, rgb(255, 255, 255) 1px -1px 1px, rgb(255, 255, 255) -1px 1px 1px;" data-notex="1" x="0" y="0" text-anchor="start" transform="translate(23,33.687420429412796)">Use</text></g><g class="sankey-node" transform="translate(362.238,339.927)" style="opacity: 1;"><rect class="node-rect" width="20" height="5.2648503326138325" style="stroke-width: 0px; stroke: rgb(68, 68, 68); stroke-opacity: 1; fill: rgb(202, 145, 253); fill-opacity: 1;"/><text class="node-label" style="cursor: default; font-family: TOBESTRIPPEDOpen SansTOBESTRIPPED, verdana, arial, sans-serif; font-size: 12px; fill: rgb(68, 68, 68); fill-opacity: 1; white-space: pre; text-shadow: rgb(255, 255, 255) 1px 1px 1px, rgb(255, 255, 255) -1px -1px 1px, rgb(255, 255, 255) 1px -1px 1px, rgb(255, 255, 255) -1px 1px 1px;" data-notex="1" x="0" y="0" text-anchor="start" transform="translate(23,6.8324251663069155)">Road</text></g><g class="sankey-node" transform="translate(362.238,368.103)" style="opacity: 1;"><rect class="node-rect" width="20" height="30.456638682675475" style="stroke-width: 0px; stroke: rgb(68, 68, 68); stroke-opacity: 1; fill: rgb(202, 145, 253); fill-opacity: 1;"/><text class="node-label" style="cursor: default; font-family: TOBESTRIPPEDOpen SansTOBESTRIPPED, verdana, arial, sans-serif; font-size: 12px; fill: rgb(68, 68, 68); fill-opacity: 1; white-space: pre; text-shadow: rgb(255, 255, 255) 1px 1px 1px, rgb(255, 255, 255) -1px -1px 1px, rgb(255, 255, 255) 1px -1px 1px, rgb(255, 255, 255) -1px 1px 1px;" data-notex="1" x="0" y="0" text-anchor="start" transform="translate(23,19.428319341337737)">Buildings</text></g><g class="sankey-node" transform="translate(32.934,270.924)" style="opacity: 1;"><rect class="node-rect" width="20" height="0.917431978271452" style="stroke-width: 0px; stroke: rgb(68, 68, 68); stroke-opacity: 1; fill: rgb(242, 247, 138); fill-opacity: 1;"/><text class="node-label" style="cursor: default; font-family: TOBESTRIPPEDOpen SansTOBESTRIPPED, verdana, arial, sans-serif; font-size: 12px; fill: rgb(68, 68, 68); fill-opacity: 1; white-space: pre; text-shadow: rgb(255, 255, 255) 1px 1px 1px, rgb(255, 255, 255) -1px -1px 1px, rgb(255, 255, 255) 1px -1px 1px, rgb(255, 255, 255) -1px 1px 1px;" data-notex="1" x="0" y="0" text-anchor="start" transform="translate(23,4.658715989135725)">Road Sand</text></g><g class="sankey-node" transform="translate(32.934,256.223)" style="opacity: 1;"><rect class="node-rect" width="20" height="1.2512825835451622" style="stroke-width: 0px; stroke: rgb(68, 68, 68); stroke-opacity: 1; fill: rgb(222, 197, 128); fill-opacity: 1;"/><text class="node-label" style="cursor: default; font-family: TOBESTRIPPEDOpen SansTOBESTRIPPED, verdana, arial, sans-serif; font-size: 12px; fill: rgb(68, 68, 68); fill-opacity: 1; white-space: pre; text-shadow: rgb(255, 255, 255) 1px 1px 1px, rgb(255, 255, 255) -1px -1px 1px, rgb(255, 255, 255) 1px -1px 1px, rgb(255, 255, 255) -1px 1px 1px;" data-notex="1" x="0" y="0" text-anchor="start" transform="translate(23,4.82564129177258)">Road Gravel</text></g><g class="sankey-node" transform="translate(526.889,336.120)" style="opacity: 1;"><rect class="node-rect" width="20" height="5.2648503326138325" style="stroke-width: 0px; stroke: rgb(68, 68, 68); stroke-opacity: 1; fill: rgb(174, 158, 128); fill-opacity: 1;"/><text class="node-label" style="cursor: default; font-family: TOBESTRIPPEDOpen SansTOBESTRIPPED, verdana, arial, sans-serif; font-size: 12px; fill: rgb(68, 68, 68); fill-opacity: 1; white-space: pre; text-shadow: rgb(255, 255, 255) 1px 1px 1px, rgb(255, 255, 255) -1px -1px 1px, rgb(255, 255, 255) 1px -1px 1px, rgb(255, 255, 255) -1px 1px 1px;" data-notex="1" x="0" y="0" text-anchor="start" transform="translate(23,6.8324251663069155)">Road Crushed Rock</text></g><g class="sankey-node" transform="translate(362.238,350.816)" style="opacity: 1;"><rect class="node-rect" width="20" height="12.332493933704654" style="stroke-width: 0px; stroke: rgb(68, 68, 68); stroke-opacity: 1; fill: rgb(202, 145, 253); fill-opacity: 1;"/><text class="node-label" style="cursor: default; font-family: TOBESTRIPPEDOpen SansTOBESTRIPPED, verdana, arial, sans-serif; font-size: 12px; fill: rgb(68, 68, 68); fill-opacity: 1; white-space: pre; text-shadow: rgb(255, 255, 255) 1px 1px 1px, rgb(255, 255, 255) -1px -1px 1px, rgb(255, 255, 255) 1px -1px 1px, rgb(255, 255, 255) -1px 1px 1px;" data-notex="1" x="0" y="0" text-anchor="start" transform="translate(23,10.366246966852326)">Railway Ballast</text></g><g class="sankey-node" transform="translate(526.889,389.580)" style="opacity: 1;"><rect class="node-rect" width="20" height="3.212852045396744" style="stroke-width: 0px; stroke: rgb(68, 68, 68); stroke-opacity: 1; fill: rgb(242, 247, 138); fill-opacity: 1;"/><text class="node-label" style="cursor: default; font-family: TOBESTRIPPEDOpen SansTOBESTRIPPED, verdana, arial, sans-serif; font-size: 12px; fill: rgb(68, 68, 68); fill-opacity: 1; white-space: pre; text-shadow: rgb(255, 255, 255) 1px 1px 1px, rgb(255, 255, 255) -1px -1px 1px, rgb(255, 255, 255) 1px -1px 1px, rgb(255, 255, 255) -1px 1px 1px;" data-notex="1" x="0" y="0" text-anchor="start" transform="translate(23,5.806426022698371)">Building Sand</text></g><g class="sankey-node" transform="translate(526.889,380.192)" style="opacity: 1;"><rect class="node-rect" width="20" height="4.62291082231593" style="stroke-width: 0px; stroke: rgb(68, 68, 68); stroke-opacity: 1; fill: rgb(222, 197, 128); fill-opacity: 1;"/><text class="node-label" style="cursor: default; font-family: TOBESTRIPPEDOpen SansTOBESTRIPPED, verdana, arial, sans-serif; font-size: 12px; fill: rgb(68, 68, 68); fill-opacity: 1; white-space: pre; text-shadow: rgb(255, 255, 255) 1px 1px 1px, rgb(255, 255, 255) -1px -1px 1px, rgb(255, 255, 255) 1px -1px 1px, rgb(255, 255, 255) -1px 1px 1px;" data-notex="1" x="0" y="0" text-anchor="start" transform="translate(23,6.511455411157964)">Building Gravel</text></g><g class="sankey-node" transform="translate(526.889,353.173)" style="opacity: 1;"><rect class="node-rect" width="20" height="22.6208758149628" style="stroke-width: 0px; stroke: rgb(68, 68, 68); stroke-opacity: 1; fill: rgb(174, 158, 128); fill-opacity: 1;"/><text class="node-label" style="cursor: default; font-family: TOBESTRIPPEDOpen SansTOBESTRIPPED, verdana, arial, sans-serif; font-size: 12px; fill: rgb(68, 68, 68); fill-opacity: 1; white-space: pre; text-shadow: rgb(255, 255, 255) 1px 1px 1px, rgb(255, 255, 255) -1px -1px 1px, rgb(255, 255, 255) 1px -1px 1px, rgb(255, 255, 255) -1px 1px 1px;" data-notex="1" x="0" y="0" text-anchor="start" transform="translate(23,15.5104379074814)">Building Crushed Rock</text></g><g class="sankey-node" transform="translate(362.238,405.708)" style="opacity: 1;"><rect class="node-rect" width="20" height="10.920857909831398" style="stroke-width: 0px; stroke: rgb(68, 68, 68); stroke-opacity: 1; fill: rgb(202, 145, 253); fill-opacity: 1;"/><text class="node-label" style="cursor: default; font-family: TOBESTRIPPEDOpen SansTOBESTRIPPED, verdana, arial, sans-serif; font-size: 12px; fill: rgb(68, 68, 68); fill-opacity: 1; white-space: pre; text-shadow: rgb(255, 255, 255) 1px 1px 1px, rgb(255, 255, 255) -1px -1px 1px, rgb(255, 255, 255) 1px -1px 1px, rgb(255, 255, 255) -1px 1px 1px;" data-notex="1" x="0" y="0" text-anchor="start" transform="translate(23,9.660428954915698)">Other Infrastructure</text></g><g class="sankey-node" transform="translate(856.193,112.168)" style="opacity: 1;"><rect class="node-rect" width="20" height="7.88623477024214" style="stroke-width: 0px; stroke: rgb(68, 68, 68); stroke-opacity: 1; fill: rgb(217, 128, 183); fill-opacity: 1;"/><text class="node-label" style="cursor: default; font-family: TOBESTRIPPEDOpen SansTOBESTRIPPED, verdana, arial, sans-serif; font-size: 12px; fill: rgb(68, 68, 68); fill-opacity: 1; white-space: pre; text-shadow: rgb(255, 255, 255) 1px 1px 1px, rgb(255, 255, 255) -1px -1px 1px, rgb(255, 255, 255) 1px -1px 1px, rgb(255, 255, 255) -1px 1px 1px;" data-notex="1" x="0" y="0" text-anchor="start" transform="translate(23,8.14311738512107)">Landfill</text></g><g class="sankey-node" transform="translate(526.889,64.890)" style="opacity: 1;"><rect class="node-rect" width="20" height="9.439823019979997" style="stroke-width: 0px; stroke: rgb(68, 68, 68); stroke-opacity: 1; fill: rgb(217, 128, 183); fill-opacity: 1;"/><text class="node-label" style="cursor: default; font-family: TOBESTRIPPEDOpen SansTOBESTRIPPED, verdana, arial, sans-serif; font-size: 12px; fill: rgb(68, 68, 68); fill-opacity: 1; white-space: pre; text-shadow: rgb(255, 255, 255) 1px 1px 1px, rgb(255, 255, 255) -1px -1px 1px, rgb(255, 255, 255) 1px -1px 1px, rgb(255, 255, 255) -1px 1px 1px;" data-notex="1" x="0" y="0" text-anchor="start" transform="translate(23,8.919911509989998)">Other Waste Processing</text></g><g class="sankey-node" transform="translate(1020.845,191.818)" style="opacity: 1;"><rect class="node-rect" width="20" height="17.712483293964283" style="stroke-width: 0px; stroke: rgb(68, 68, 68); stroke-opacity: 1; fill: rgb(217, 128, 183); fill-opacity: 1;"/><text class="node-label" style="cursor: default; font-family: TOBESTRIPPEDOpen SansTOBESTRIPPED, verdana, arial, sans-serif; font-size: 12px; fill: rgb(68, 68, 68); fill-opacity: 1; white-space: pre; text-shadow: rgb(255, 255, 255) 1px 1px 1px, rgb(255, 255, 255) -1px -1px 1px, rgb(255, 255, 255) 1px -1px 1px, rgb(255, 255, 255) -1px 1px 1px;" data-notex="1" x="0" y="0" text-anchor="end" transform="translate(-3,13.05624164698214)">Processing/Production C&amp;D</text></g><g class="sankey-node" transform="translate(1020.845,9.372)" style="opacity: 1;"><rect class="node-rect" width="20" height="5.890491624386101" style="stroke-width: 0px; stroke: rgb(68, 68, 68); stroke-opacity: 1; fill: rgb(202, 145, 253); fill-opacity: 1;"/><text class="node-label" style="cursor: default; font-family: TOBESTRIPPEDOpen SansTOBESTRIPPED, verdana, arial, sans-serif; font-size: 12px; fill: rgb(68, 68, 68); fill-opacity: 1; white-space: pre; text-shadow: rgb(255, 255, 255) 1px 1px 1px, rgb(255, 255, 255) -1px -1px 1px, rgb(255, 255, 255) 1px -1px 1px, rgb(255, 255, 255) -1px 1px 1px;" data-notex="1" x="0" y="0" text-anchor="end" transform="translate(-3,7.14524581219305)">Use as Fill</text></g><g class="sankey-node" transform="translate(1020.845,44.565)" style="opacity: 1;"><rect class="node-rect" width="20" height="13.53593335964382" style="stroke-width: 0px; stroke: rgb(68, 68, 68); stroke-opacity: 1; fill: rgb(167, 230, 111); fill-opacity: 1;"/><text class="node-label" style="cursor: default; font-family: TOBESTRIPPEDOpen SansTOBESTRIPPED, verdana, arial, sans-serif; font-size: 12px; fill: rgb(68, 68, 68); fill-opacity: 1; white-space: pre; text-shadow: rgb(255, 255, 255) 1px 1px 1px, rgb(255, 255, 255) -1px -1px 1px, rgb(255, 255, 255) 1px -1px 1px, rgb(255, 255, 255) -1px 1px 1px;" data-notex="1" x="0" y="0" text-anchor="end" transform="translate(-3,10.96796667982191)">Stock</text></g></g></g><defs id="topdefs-24a475"><g class="clips"/></defs><g class="layer-above"><g class="imagelayer"/><g class="shapelayer"/></g><g class="infolayer"><g class="g-gtitle"><text class="gtitle" style="font-family: TOBESTRIPPEDOpen SansTOBESTRIPPED, verdana, arial, sans-serif; font-size: 17px; fill: rgb(68, 68, 68); opacity: 1; font-weight: normal; white-space: pre;" x="600" y="50" text-anchor="middle" dy="0em">Waste management</text></g><g class="first-render"/></g></svg>