<?xml version="1.0" encoding="UTF-8" standalone="no"?>
<svg
   class="main-svg"
   width="1379.7969"
   height="621.06519"
   viewBox="0 0 1379.7969 621.06519"
   version="1.1"
   id="svg194"
   sodipodi:docname="use - infrastructure.svg"
   inkscape:version="1.1.2 (0a00cf5339, 2022-02-04)"
   xmlns:inkscape="http://www.inkscape.org/namespaces/inkscape"
   xmlns:sodipodi="http://sodipodi.sourceforge.net/DTD/sodipodi-0.dtd"
   xmlns="http://www.w3.org/2000/svg"
   xmlns:svg="http://www.w3.org/2000/svg">
  <sodipodi:namedview
     id="namedview196"
     pagecolor="#ffffff"
     bordercolor="#666666"
     borderopacity="1.0"
     inkscape:pageshadow="2"
     inkscape:pageopacity="0.0"
     inkscape:pagecheckerboard="0"
     showgrid="false"
     inkscape:zoom="1.831737"
     inkscape:cx="706.70626"
     inkscape:cy="300.80738"
     inkscape:window-width="1920"
     inkscape:window-height="1051"
     inkscape:window-x="0"
     inkscape:window-y="29"
     inkscape:window-maximized="1"
     inkscape:current-layer="svg194"
     fit-margin-top="0"
     fit-margin-left="0"
     fit-margin-right="0"
     fit-margin-bottom="0" />
  <defs
     id="defs-b65b97">
    <g
       class="clips"
       id="g4" />
    <g
       class="gradients"
       id="g6" />
    <g
       class="patterns"
       id="g8" />
  </defs>
  <g
     class="bglayer"
     id="g11"
     transform="translate(-69.477417,-89.934997)" />
  <g
     class="layer-below"
     id="g17"
     transform="translate(-69.477417,-89.934997)">
    <g
       class="imagelayer"
       id="g13" />
    <g
       class="shapelayer"
       id="g15" />
  </g>
  <g
     class="cartesianlayer"
     id="g19"
     transform="translate(-69.477417,-89.934997)" />
  <g
     class="polarlayer"
     id="g21"
     transform="translate(-69.477417,-89.934997)" />
  <g
     class="smithlayer"
     id="g23"
     transform="translate(-69.477417,-89.934997)" />
  <g
     class="ternarylayer"
     id="g25"
     transform="translate(-69.477417,-89.934997)" />
  <g
     class="geolayer"
     id="g27"
     transform="translate(-69.477417,-89.934997)" />
  <g
     class="funnelarealayer"
     id="g29"
     transform="translate(-69.477417,-89.934997)" />
  <g
     class="pielayer"
     id="g31"
     transform="translate(-69.477417,-89.934997)" />
  <g
     class="iciclelayer"
     id="g33"
     transform="translate(-69.477417,-89.934997)" />
  <g
     class="treemaplayer"
     id="g35"
     transform="translate(-69.477417,-89.934997)" />
  <g
     class="sunburstlayer"
     id="g37"
     transform="translate(-69.477417,-89.934997)" />
  <g
     class="glimages"
     id="g39"
     transform="translate(-69.477417,-89.934997)" />
  <path
     id="path41"
     style="fill:#f2f78a;fill-opacity:1;stroke:#444444;stroke-width:0px;stroke-opacity:1"
     class="sankey-link"
     d="m 708.19836,197.32477 c -150.95071,0 -150.94969,121.35546 -301.90039,121.35546 h -50 c -141.44366,0 -151.445,-6.04296 -292.888667,-6.04296 v 143.91406 c 141.443667,0 151.445007,6.04492 292.888667,6.04492 h 50 c 150.9507,0 150.94968,-121.35742 301.90039,-121.35742 l 10,-71.95703 z" />
  <path
     id="path43"
     style="fill:#dec580;fill-opacity:1;stroke:#444444;stroke-width:0px;stroke-opacity:1"
     class="sankey-link"
     d="m 708.19836,147.04547 c -149.6831,0 -149.68213,112.55078 -299.36523,112.55078 h -50 c -142.71127,0 -152.71256,2.76367 -295.423827,2.76367 v 50.27735 c 142.711267,0 152.712557,-2.76368 295.423827,-2.76368 h 50 c 149.6831,0 149.68213,-112.54882 299.36523,-112.54882 l 10,-25.14063 z" />
  <path
     id="path45"
     style="fill:#ae9e80;fill-opacity:1;stroke:#444444;stroke-width:0px;stroke-opacity:1"
     class="sankey-link"
     d="m 708.19836,381.19 c -152.85212,0 -152.85101,115.25586 -305.70312,115.25586 h -50 c -140.17606,0 -150.17747,-8 -290.353517,-8 V 582.065 c 140.176047,0 150.177457,8 290.353517,8 h 50 c 152.85211,0 152.851,-115.25781 305.70312,-115.25781 l 10,-46.8086 z" />
  <path
     class="sankey-link"
     style="fill:#ae9e80;fill-opacity:1;stroke:#444444;stroke-width:0px;stroke-opacity:1"
     d="m 67.212723,10.065003 c 143.978867,0 143.978867,-2.8870641 287.957747,-2.8870641 l 10,109.6470011 -10,109.64701 c -143.97888,0 -143.97888,2.88706 -287.957747,2.88706 z"
     id="path49" />
  <path
     class="sankey-link"
     style="fill:#f2f78a;fill-opacity:1;stroke:#444444;stroke-width:0px;stroke-opacity:1"
     d="m 768.19864,587.82077 c 133.83802,0 133.83802,-326.86823 267.67606,-326.86823 l 10,8.1568 -10,8.1568 c -133.83804,0 -133.83804,326.86823 -267.67606,326.86823 z"
     id="path55" />
  <path
     class="sankey-link"
     style="fill:#dec580;fill-opacity:1;stroke:#444444;stroke-width:0px;stroke-opacity:1"
     d="m 768.19864,531.17011 c 133.83802,0 133.83802,-292.46763 267.67606,-292.46763 l 10,11.12503 -10,11.12503 c -133.83804,0 -133.83804,292.46763 -267.67606,292.46763 z"
     id="path57" />
  <path
     class="sankey-link"
     style="fill:#ae9e80;fill-opacity:1;stroke:#444444;stroke-width:0px;stroke-opacity:1"
     d="m 768.19864,381.18914 c 133.83802,0 133.83802,-206.07697 267.67606,-206.07697 l 10,31.79515 -10,31.79516 c -133.83804,0 -133.83804,206.07696 -267.67606,206.07696 z"
     id="path59" />
  <path
     class="sankey-link"
     style="fill:#ae9e80;fill-opacity:1;stroke:#444444;stroke-width:0px;stroke-opacity:1"
     d="m 415.17047,7.1779389 c 310.35211,0 310.35211,-7.17750695859 620.70423,-7.17750695859 l 10,6.87601695859 -10,6.8760141 c -310.35212,0 -310.35212,7.17751 -620.70423,7.17751 z"
     id="path61" />
  <path
     class="sankey-link"
     style="fill:#e3a6aa;fill-opacity:1;stroke:#444444;stroke-width:0px;stroke-opacity:1"
     d="m 768.19864,147.04628 c 133.83802,0 133.83802,-133.293817 267.67606,-133.293817 l 10,80.67986 -10,80.679847 c -133.83804,0 -133.83804,133.29382 -267.67606,133.29382 z"
     id="path63" />
  <path
     class="sankey-link"
     style="fill:#e3a6aa;fill-opacity:1;stroke:#444444;stroke-width:0px;stroke-opacity:1"
     d="m 768.19864,308.40599 c 135.10563,0 135.10563,-8.13982 270.21126,-8.13982 l 10,11.64856 -10,11.64856 c -135.10563,0 -135.10563,8.13982 -270.21126,8.13982 z"
     id="path65" />
  <path
     class="sankey-link"
     style="fill:#e3a6aa;fill-opacity:1;stroke:#444444;stroke-width:0px;stroke-opacity:1"
     d="m 1095.8747,4.3194141e-4 c 107.2183,0 107.2183,0.15422799859 214.4366,0.15422799859 l 10,138.63285006 -10,138.63286 c -107.2183,0 -107.2183,-0.15423 -214.4366,-0.15423 z"
     id="path67" />
  <path
     class="sankey-link"
     style="fill:#e3a6aa;fill-opacity:1;stroke:#444444;stroke-width:0px;stroke-opacity:1"
     d="m 1098.4099,300.26617 c 105.9507,0 105.9507,-22.8458 211.9014,-22.8458 l 10,11.64856 -10,11.64856 c -105.9507,0 -105.9507,22.8458 -211.9014,22.8458 z"
     id="path69" />
  <path
     class="sankey-link"
     style="fill:#e3a6aa;fill-opacity:1;stroke:#444444;stroke-width:0px;stroke-opacity:1"
     d="m 768.19864,331.70311 c 272.95776,0 272.95776,65.37932 545.91546,65.37932 l 10,14.743 -10,14.743 c -272.9577,0 -272.9577,-65.37931 -545.91546,-65.37931 z"
     id="path71" />
  <path
     class="sankey-link"
     style="fill:#ae9e80;fill-opacity:1;stroke:#444444;stroke-width:0px;stroke-opacity:1"
     d="m 415.17047,20.929973 c 449.47183,0 449.47183,374.787537 898.94363,374.787537 l 10,0.68246 -10,0.68246 c -449.4718,0 -449.4718,-374.787537 -898.94363,-374.787537 z"
     id="path73" />
  <path
     class="sankey-link"
     style="fill:#f2f78a;fill-opacity:1;stroke:#444444;stroke-width:0px;stroke-opacity:1"
     d="m 768.19864,604.13437 c 272.95776,0 272.95776,-72.99999 545.91546,-72.99999 l 10,8.46531 -10,8.46531 c -272.9577,0 -272.9577,72.99998 -545.91546,72.99998 z"
     id="path75" />
  <path
     class="sankey-link"
     style="fill:#dec580;fill-opacity:1;stroke:#444444;stroke-width:0px;stroke-opacity:1"
     d="m 768.19864,553.42017 c 272.95776,0 272.95776,-47.68638 545.91546,-47.68638 l 10,12.7003 -10,12.70029 c -272.9577,0 -272.9577,47.68639 -545.91546,47.68639 z"
     id="path77" />
  <path
     class="sankey-link"
     style="fill:#ae9e80;fill-opacity:1;stroke:#444444;stroke-width:0px;stroke-opacity:1"
     d="m 768.19864,444.77944 c 272.95776,0 272.95776,-18.21101 545.91546,-18.21101 l 10,39.58268 -10,39.58268 c -272.9577,0 -272.9577,18.21101 -545.91546,18.21101 z"
     id="path79" />
  <rect
     class="node-rect"
     width="50"
     height="194.19257"
     style="fill:#ca91fd;fill-opacity:1;stroke:#444444;stroke-width:0px;stroke-opacity:1"
     id="rect83"
     x="13.409584"
     y="262.35901" />
  <text
     class="node-label"
     style="font-size:9px;font-family:'Liberation Sans';white-space:pre;fill:#444444;fill-opacity:1"
     data-notex="1"
     x="38.330482"
     y="356.1572"
     text-anchor="start"
     id="text85"><tspan
       sodipodi:role="line"
       id="tspan14810"
       x="38.330482"
       y="356.1572"
       style="text-align:center;text-anchor:middle">Concreting</tspan><tspan
       sodipodi:role="line"
       id="tspan14812"
       x="38.330482"
       y="367.4072"
       style="text-align:center;text-anchor:middle">Manufacturing</tspan></text>
  <rect
     class="node-rect"
     width="50"
     height="93.618546"
     style="fill:#ca91fd;fill-opacity:1;stroke:#444444;stroke-width:0px;stroke-opacity:1"
     id="rect89"
     x="12.142586"
     y="488.44598" />
  <text
     class="node-label"
     style="font-size:9px;font-family:'Liberation Sans';white-space:pre;fill:#444444;fill-opacity:1"
     data-notex="1"
     x="37.063484"
     y="531.95715"
     text-anchor="start"
     id="text91"><tspan
       sodipodi:role="line"
       id="tspan16806"
       x="37.063484"
       y="531.95715"
       style="text-align:center;text-anchor:middle">Asphalt</tspan><tspan
       sodipodi:role="line"
       id="tspan16808"
       x="37.063484"
       y="543.20715"
       style="text-align:center;text-anchor:middle">Manufacturing</tspan></text>
  <text
     class="node-label"
     style="font-size:9px;font-family:'Liberation Sans';white-space:pre;fill:#444444;fill-opacity:1"
     data-notex="1"
     x="417.5473"
     y="392.21585"
     text-anchor="start"
     id="text97">Sand</text>
  <text
     class="node-label"
     style="font-size:9px;font-family:'Liberation Sans';white-space:pre;fill:#444444;fill-opacity:1"
     data-notex="1"
     x="411.83258"
     y="288.93484"
     text-anchor="start"
     id="text103">Gravel</text>
  <text
     class="node-label"
     style="font-size:9px;font-family:'Liberation Sans';white-space:pre;fill:#444444;fill-opacity:1"
     data-notex="1"
     x="406.01178"
     y="545.38965"
     text-anchor="start"
     id="text109">Crushed Rock</text>
  <rect
     class="node-rect"
     width="50"
     height="219.29401"
     style="fill:#a7e66f;fill-opacity:1;stroke:#444444;stroke-width:0px;stroke-opacity:1"
     id="rect113"
     x="17.212585"
     y="10.065003" />
  <text
     class="node-label"
     style="font-size:9px;font-family:'Liberation Sans';white-space:pre;fill:#444444;fill-opacity:1"
     data-notex="1"
     x="43.093689"
     y="117.3038"
     text-anchor="start"
     id="text115"><tspan
       sodipodi:role="line"
       id="tspan4154"
       x="43.093689"
       y="117.3038"
       style="text-align:center;text-anchor:middle">Processing / </tspan><tspan
       sodipodi:role="line"
       id="tspan4156"
       x="43.093689"
       y="128.5538"
       style="text-align:center;text-anchor:middle">Production</tspan></text>
  <rect
     class="node-rect"
     width="50"
     height="33.244213"
     style="fill:#f2f78a;fill-opacity:1;stroke:#444444;stroke-width:0px;stroke-opacity:1"
     id="rect119"
     x="718.19861"
     y="587.82098" />
  <text
     class="node-label"
     style="font-size:9px;font-family:'Liberation Sans';white-space:pre;fill:#444444;fill-opacity:1"
     data-notex="1"
     x="720.60193"
     y="607.65991"
     text-anchor="start"
     id="text121">Road Sand</text>
  <rect
     class="node-rect"
     width="50"
     height="47.650661"
     style="fill:#dec580;fill-opacity:1;stroke:#444444;stroke-width:0px;stroke-opacity:1"
     id="rect125"
     x="718.19861"
     y="531.16998" />
  <text
     class="node-label"
     style="font-size:9px;font-family:'Liberation Sans';white-space:pre;fill:#444444;fill-opacity:1"
     data-notex="1"
     x="717.86853"
     y="558.2121"
     text-anchor="start"
     id="text127">Road Gravel</text>
  <rect
     class="node-rect"
     width="50"
     height="142.75566"
     style="fill:#ae9e80;fill-opacity:1;stroke:#444444;stroke-width:0px;stroke-opacity:1"
     id="rect131"
     x="718.19861"
     y="381.189" />
  <text
     class="node-label"
     style="font-size:9px;font-family:'Liberation Sans';white-space:pre;fill:#444444;fill-opacity:1"
     data-notex="1"
     x="702.3031"
     y="455.78363"
     text-anchor="start"
     id="text133">Road Crushed Rock</text>
  <rect
     class="node-rect"
     width="50"
     height="219.29401"
     style="fill:#ca91fd;fill-opacity:1;stroke:#444444;stroke-width:0px;stroke-opacity:1"
     id="rect137"
     x="365.17059"
     y="7.1780019" />
  <text
     class="node-label"
     style="font-size:9px;font-family:'Liberation Sans';white-space:pre;fill:#444444;fill-opacity:1"
     data-notex="1"
     x="389.69012"
     y="113.61407"
     text-anchor="start"
     id="text139"><tspan
       sodipodi:role="line"
       id="tspan10342"
       x="389.69012"
       y="113.61407"
       style="text-align:center;text-anchor:middle">Railway</tspan><tspan
       sodipodi:role="line"
       id="tspan10344"
       x="389.69012"
       y="128.61407"
       style="text-align:center;text-anchor:middle">Ballast</tspan></text>
  <rect
     class="node-rect"
     width="50"
     height="214.14284"
     style="fill:#ca91fd;fill-opacity:1;stroke:#444444;stroke-width:0px;stroke-opacity:1"
     id="rect143"
     x="718.19861"
     y="147.04601" />
  <text
     class="node-label"
     style="font-size:9px;font-family:'Liberation Sans';white-space:pre;fill:#444444;fill-opacity:1"
     data-notex="1"
     x="704.17078"
     y="257.33423"
     text-anchor="start"
     id="text145">Other Infrastructure</text>
  <rect
     class="node-rect"
     width="50"
     height="277.26572"
     style="fill:#d980b7;fill-opacity:1;stroke:#444444;stroke-width:0px;stroke-opacity:1"
     id="rect149"
     x="1045.8746"
     y="5e-07" />
  <text
     class="node-label"
     style="font-size:9px;font-family:'Liberation Sans';white-space:pre;fill:#444444;fill-opacity:1"
     data-notex="1"
     x="1049.5392"
     y="141.84966"
     text-anchor="start"
     id="text151">Demolition</text>
  <rect
     class="node-rect"
     width="50"
     height="23.297125"
     style="fill:#d980b7;fill-opacity:1;stroke:#444444;stroke-width:0px;stroke-opacity:1"
     id="rect155"
     x="1048.4095"
     y="300.26599" />
  <text
     class="node-label"
     style="font-size:9px;font-family:'Liberation Sans';white-space:pre;fill:#444444;fill-opacity:1"
     data-notex="1"
     x="1043.318"
     y="315.13135"
     text-anchor="start"
     id="text157">Deconstruction</text>
  <rect
     class="node-rect"
     width="50"
     height="300.56284"
     style="fill:#a7e66f;fill-opacity:1;stroke:#444444;stroke-width:0px;stroke-opacity:1"
     id="rect161"
     x="1320.3115"
     y="0.15499929" />
  <text
     class="node-label"
     style="font-size:9px;font-family:'Liberation Sans';white-space:pre;fill:#444444;fill-opacity:1"
     data-notex="1"
     x="1344.9753"
     y="146.97353"
     text-anchor="start"
     id="text163"><tspan
       sodipodi:role="line"
       id="tspan23169"
       x="1344.9753"
       y="146.97353"
       style="text-align:center;text-anchor:middle">Waste</tspan><tspan
       sodipodi:role="line"
       id="tspan23171"
       x="1344.9753"
       y="158.22353"
       style="text-align:center;text-anchor:middle">Management</tspan></text>
  <rect
     class="node-rect"
     width="50"
     height="152.34749"
     style="fill:#a7e66f;fill-opacity:1;stroke:#444444;stroke-width:0px;stroke-opacity:1"
     id="rect167"
     x="1324.1146"
     y="395.71802" />
  <text
     class="node-label"
     style="font-size:9px;font-family:'Liberation Sans';white-space:pre;fill:#444444;fill-opacity:1"
     data-notex="1"
     x="1360.1581"
     y="475.10855"
     text-anchor="end"
     id="text169">Stock</text>
  <defs
     id="topdefs-b65b97">
    <g
       class="clips"
       id="g177" />
  </defs>
  <g
     class="layer-above"
     id="g184"
     transform="translate(-69.477417,-89.934997)">
    <g
       class="imagelayer"
       id="g180" />
    <g
       class="shapelayer"
       id="g182" />
  </g>
  <text
     xml:space="preserve"
     style="font-size:9px;line-height:1.25;font-family:'Liberation Sans';-inkscape-font-specification:'Liberation Sans';text-align:center;text-anchor:middle"
     x="215.95648"
     y="121.48527"
     id="text5824"><tspan
       sodipodi:role="line"
       id="tspan5822"
       x="215.95648"
       y="121.48527"
       style="font-size:9px">Crushed Rock</tspan></text>
</svg>
