<svg class="main-svg" xmlns="http://www.w3.org/2000/svg" xmlns:xlink="http://www.w3.org/1999/xlink" width="1200" height="800" style="" viewBox="0 0 1200 800"><rect x="0" y="0" width="1200" height="800" style="fill: rgb(255, 255, 255); fill-opacity: 1;"/><defs id="defs-ba7c00"><g class="clips"/><g class="gradients"/><g class="patterns"/></defs><g class="bglayer"/><g class="layer-below"><g class="imagelayer"/><g class="shapelayer"/></g><g class="cartesianlayer"/><g class="polarlayer"/><g class="smithlayer"/><g class="ternarylayer"/><g class="geolayer"/><g class="funnelarealayer"/><g class="pielayer"/><g class="iciclelayer"/><g class="treemaplayer"/><g class="sunburstlayer"/><g class="glimages"/><g class="sankey" style="box-sizing: content-box; position: absolute; left: 0px; shape-rendering: geometricprecision; pointer-events: auto;" transform="translate(80,100)matrix(1 0 0 1 0 0)"><g class="sankey-links" style="fill: none;"><path class="sankey-link" style="stroke: rgb(68, 68, 68); stroke-opacity: 1; fill: rgb(217, 128, 183); fill-opacity: 1; stroke-width: 0px; opacity: 1;" d="M711.5413133592891,309.9405011591989C861.1931918909122,309.9405011591989 861.1931918909122,281.2915116386431 1010.8450704225352,281.2915116386431L1020.8450704225352,296.23351866831615L1010.8450704225352,311.1755256979892C861.1931918909122,311.1755256979892 861.1931918909122,339.824515218545 711.5413133592891,339.824515218545Z"/><path class="sankey-link" style="stroke: rgb(68, 68, 68); stroke-opacity: 1; fill: rgb(217, 128, 183); fill-opacity: 1; stroke-width: 0px; opacity: 1;" d="M711.5413133592891,339.82451521854495C861.1931918909122,339.82451521854495 861.1931918909122,423.9839435390466 1010.8450704225352,423.9839435390466L1020.8450704225352,427.1200353083199L1010.8450704225352,430.25612707759325C861.1931918909122,430.25612707759325 861.1931918909122,346.0966987570916 711.5413133592891,346.0966987570916Z"/><path class="sankey-link" style="stroke: rgb(68, 68, 68); stroke-opacity: 1; fill: rgb(227, 166, 170); fill-opacity: 1; stroke-width: 0px; opacity: 1;" d="M382.2375562960431,13.125174517616326C696.5413133592891,13.125174517616326 696.5413133592891,13.213669161902004 1010.8450704225352,13.213669161902004L1020.8450704225352,18.182806792072874L1010.8450704225352,23.151944422243744C696.5413133592891,23.151944422243744 696.5413133592891,23.063449777958066 382.2375562960431,23.063449777958066Z"/><path class="sankey-link" style="stroke: rgb(68, 68, 68); stroke-opacity: 1; fill: rgb(227, 166, 170); fill-opacity: 1; stroke-width: 0px; opacity: 1;" d="M382.2375562960431,225.72613591317673C696.5413133592891,225.72613591317673 696.5413133592891,227.82085865304114 1010.8450704225352,227.82085865304114L1020.8450704225352,230.88110942492432L1010.8450704225352,233.9413601968075C696.5413133592891,233.9413601968075 696.5413133592891,231.84663745694309 382.2375562960431,231.84663745694309Z"/><path class="sankey-link" style="stroke: rgb(68, 68, 68); stroke-opacity: 1; fill: rgb(227, 166, 170); fill-opacity: 1; stroke-width: 0px; opacity: 1;" d="M52.93379923279705,594.0126976190186C120.25973849860856,594.0126976190186 120.25973849860856,520.4992725117534 187.58567776442007,520.4992725117534L197.58567776442007,522.2937326020489L187.58567776442007,524.0881926923444C120.25973849860856,524.0881926923444 120.25973849860856,597.6016177996096 52.93379923279705,597.6016177996096Z"/><path class="sankey-link" style="stroke: rgb(68, 68, 68); stroke-opacity: 1; fill: rgb(227, 166, 170); fill-opacity: 1; stroke-width: 0px; opacity: 1;" d="M711.5413133592891,298.05430975536285C778.8672526251007,298.05430975536285 778.8672526251007,164.95185410615662 846.1931918909122,164.95185410615662L856.1931918909122,170.89494980807464L846.1931918909122,176.83804550999267C778.8672526251007,176.83804550999267 778.8672526251007,309.9405011591989 711.5413133592891,309.9405011591989Z"/><path class="sankey-link" style="stroke: rgb(68, 68, 68); stroke-opacity: 1; fill: rgb(242, 247, 138); fill-opacity: 1; stroke-width: 0px; opacity: 1;" d="M52.93379923279705,163.3607788944448C120.25973849860856,163.3607788944448 120.25973849860856,172.79982252795807 187.58567776442007,172.79982252795807L197.58567776442007,182.77668355890182L187.58567776442007,192.75354458984557C120.25973849860856,192.75354458984557 120.25973849860856,183.3145009563323 52.93379923279705,183.3145009563323Z"/><path class="sankey-link" style="stroke: rgb(68, 68, 68); stroke-opacity: 1; fill: rgb(222, 197, 128); fill-opacity: 1; stroke-width: 0px; opacity: 1;" d="M52.93379923279705,133.43596149147362C120.25973849860856,133.43596149147362 120.25973849860856,139.24941006806486 187.58567776442007,139.24941006806486L197.58567776442007,154.21181876955043L187.58567776442007,169.174227471036C120.25973849860856,169.174227471036 120.25973849860856,163.36077889444476 52.93379923279705,163.36077889444476Z"/><path class="sankey-link" style="stroke: rgb(68, 68, 68); stroke-opacity: 1; fill: rgb(174, 158, 128); fill-opacity: 1; stroke-width: 0px; opacity: 1;" d="M52.93379923279705,51.332537884080566C120.25973849860856,51.332537884080566 120.25973849860856,48 187.58567776442007,48L197.58567776442007,89.05171180369652L187.58567776442007,130.10342360739304C120.25973849860856,130.10342360739304 120.25973849860856,133.43596149147362 52.93379923279705,133.43596149147362Z"/><path class="sankey-link" style="stroke: rgb(68, 68, 68); stroke-opacity: 1; fill: rgb(242, 247, 138); fill-opacity: 1; stroke-width: 0px; opacity: 1;" d="M217.58567776442007,172.79982252795807C284.9116170302316,172.79982252795807 284.9116170302316,22.093926852257113 352.2375562960431,22.093926852257113L362.2375562960431,22.60796027901256L352.2375562960431,23.121993705768006C284.9116170302316,23.121993705768006 284.9116170302316,173.82788938146896 217.58567776442007,173.82788938146896Z"/><path class="sankey-link" style="stroke: rgb(68, 68, 68); stroke-opacity: 1; fill: rgb(222, 197, 128); fill-opacity: 1; stroke-width: 0px; opacity: 1;" d="M217.58567776442007,139.24941006806486C284.9116170302316,139.24941006806486 284.9116170302316,20.278178060939766 352.2375562960431,20.278178060939766L362.2375562960431,21.18605245659844L352.2375562960431,22.093926852257113C284.9116170302316,22.093926852257113 284.9116170302316,141.0651588593822 217.58567776442007,141.0651588593822Z"/><path class="sankey-link" style="stroke: rgb(68, 68, 68); stroke-opacity: 1; fill: rgb(174, 158, 128); fill-opacity: 1; stroke-width: 0px; opacity: 1;" d="M217.58567776442007,48.00000000000001C284.9116170302316,48.00000000000001 284.9116170302316,14.390965199203942 352.2375562960431,14.390965199203942L362.2375562960431,17.334571630071853L352.2375562960431,20.278178060939762C284.9116170302316,20.278178060939762 284.9116170302316,53.887212861735826 217.58567776442007,53.887212861735826Z"/><path class="sankey-link" style="stroke: rgb(242, 247, 138); stroke-opacity: 1; fill: rgb(242, 247, 138); fill-opacity: 1; stroke-width: 1px; opacity: 1;" d="M52.93379923279705,34.49920924693208C202.5856777644201,34.49920924693208 202.5856777644201,13.847216293938905 352.2375562960431,13.847216293938905L362.2375562960431,14.119090746571423L352.2375562960431,14.390965199203942C202.5856777644201,14.390965199203942 202.5856777644201,35.042958152197116 52.93379923279705,35.042958152197116Z"/><path class="sankey-link" style="stroke: rgb(222, 197, 128); stroke-opacity: 1; fill: rgb(222, 197, 128); fill-opacity: 1; stroke-width: 1px; opacity: 1;" d="M52.93379923279705,8.668553209119182C202.5856777644201,8.668553209119182 202.5856777644201,13.125174517616326 352.2375562960431,13.125174517616326L362.2375562960431,13.486195405777616L352.2375562960431,13.847216293938907C202.5856777644201,13.847216293938907 202.5856777644201,9.390594985441762 52.93379923279705,9.390594985441762Z"/><path class="sankey-link" style="stroke: rgb(68, 68, 68); stroke-opacity: 1; fill: rgb(242, 247, 138); fill-opacity: 1; stroke-width: 0px; opacity: 1;" d="M52.93379923279705,310.6499254199451C120.25973849860856,310.6499254199451 120.25973849860856,312.4606537533828 187.58567776442007,312.4606537533828L197.58567776442007,324.126861913327L187.58567776442007,335.79307007327117C120.25973849860856,335.79307007327117 120.25973849860856,333.98234173983343 52.93379923279705,333.98234173983343Z"/><path class="sankey-link" style="stroke: rgb(68, 68, 68); stroke-opacity: 1; fill: rgb(222, 197, 128); fill-opacity: 1; stroke-width: 0px; opacity: 1;" d="M52.93379923279705,292.2201195395345C120.25973849860856,292.2201195395345 120.25973849860856,289.0316349709145 187.58567776442007,289.0316349709145L197.58567776442007,298.24653791111984L187.58567776442007,307.46144085132516C120.25973849860856,307.46144085132516 120.25973849860856,310.64992541994513 52.93379923279705,310.64992541994513Z"/><path class="sankey-link" style="stroke: rgb(68, 68, 68); stroke-opacity: 1; fill: rgb(174, 158, 128); fill-opacity: 1; stroke-width: 0px; opacity: 1;" d="M52.93379923279705,236.01617478357474C120.25973849860856,236.01617478357474 120.25973849860856,229.3695152920909 187.58567776442007,229.3695152920909L197.58567776442007,256.89802328629617L187.58567776442007,284.4265312805014C120.25973849860856,284.4265312805014 120.25973849860856,291.07319077198525 52.93379923279705,291.07319077198525Z"/><path class="sankey-link" style="stroke: rgb(68, 68, 68); stroke-opacity: 1; fill: rgb(165, 215, 212); fill-opacity: 1; stroke-width: 0px; opacity: 1;" d="M52.93379923279705,291.07319077198525C531.8894348276662,291.07319077198525 531.8894348276662,233.94136019680747 1010.8450704225352,233.94136019680747L1020.8450704225352,234.5148245805821L1010.8450704225352,235.0882889643567C531.8894348276662,235.0882889643567 531.8894348276662,292.22011953953455 52.93379923279705,292.22011953953455Z"/><path class="sankey-link" style="stroke: rgb(68, 68, 68); stroke-opacity: 1; fill: rgb(217, 128, 183); fill-opacity: 1; stroke-width: 0px; opacity: 1;" d="M52.93379923279705,333.98234173983343C120.25973849860856,333.98234173983343 120.25973849860856,342.69398807711036 187.58567776442007,342.69398807711036L197.58567776442007,355.4539032520493L187.58567776442007,368.21381842698827C120.25973849860856,368.21381842698827 120.25973849860856,359.50217208971134 52.93379923279705,359.50217208971134Z"/><path class="sankey-link" style="stroke: rgb(242, 247, 138); stroke-opacity: 1; fill: rgb(242, 247, 138); fill-opacity: 1; stroke-width: 1px; opacity: 1;" d="M217.58567776442007,312.4606537533828C284.9116170302316,312.4606537533828 284.9116170302316,223.91216118027788 352.2375562960431,223.91216118027788L362.2375562960431,224.08912350752155L352.2375562960431,224.26608583476522C284.9116170302316,224.26608583476522 284.9116170302316,312.8145784078702 217.58567776442007,312.8145784078702Z"/><path class="sankey-link" style="stroke: rgb(222, 197, 128); stroke-opacity: 1; fill: rgb(222, 197, 128); fill-opacity: 1; stroke-width: 1px; opacity: 1;" d="M217.58567776442007,289.0316349709145C284.9116170302316,289.0316349709145 284.9116170302316,223.04198552601196 352.2375562960431,223.04198552601196L362.2375562960431,223.4770733531449L352.2375562960431,223.91216118027785C284.9116170302316,223.91216118027785 284.9116170302316,289.9018106251805 217.58567776442007,289.9018106251805Z"/><path class="sankey-link" style="stroke: rgb(68, 68, 68); stroke-opacity: 1; fill: rgb(174, 158, 128); fill-opacity: 1; stroke-width: 0px; opacity: 1;" d="M217.58567776442007,229.3695152920909C284.9116170302316,229.3695152920909 284.9116170302316,220.4012995701 352.2375562960431,220.4012995701L362.2375562960431,221.72164254805597L352.2375562960431,223.04198552601193C284.9116170302316,223.04198552601193 284.9116170302316,232.01020124800283 217.58567776442007,232.01020124800283Z"/><path class="sankey-link" style="stroke: rgb(165, 215, 212); stroke-opacity: 1; fill: rgb(165, 215, 212); fill-opacity: 1; stroke-width: 1px; opacity: 1;" d="M52.93379923279705,209.44003349066173C202.5856777644201,209.44003349066173 202.5856777644201,220.10946696025957 352.2375562960431,220.10946696025957L362.2375562960431,220.2553832651798L352.2375562960431,220.40129957010004C202.5856777644201,220.40129957010004 202.5856777644201,209.7318661005022 52.93379923279705,209.7318661005022Z"/><path class="sankey-link" style="stroke: rgb(68, 68, 68); stroke-opacity: 1; fill: rgb(217, 128, 183); fill-opacity: 1; stroke-width: 0px; opacity: 1;" d="M217.58567776442007,342.69398807711036C284.9116170302316,342.69398807711036 284.9116170302316,224.26608583476522 352.2375562960431,224.26608583476522L362.2375562960431,224.88523222281577L352.2375562960431,225.50437861086633C284.9116170302316,225.50437861086633 284.9116170302316,343.9322808532115 217.58567776442007,343.9322808532115Z"/><path class="sankey-link" style="stroke: rgb(68, 68, 68); stroke-opacity: 1; fill: rgb(242, 247, 138); fill-opacity: 1; stroke-width: 0px; opacity: 1;" d="M52.93379923279705,476.2310621977598C531.8894348276662,476.2310621977598 531.8894348276662,389.81829168453146 1010.8450704225352,389.81829168453146L1020.8450704225352,399.2363243136531L1010.8450704225352,408.6543569427747C531.8894348276662,408.6543569427747 531.8894348276662,495.06712745600305 52.93379923279705,495.06712745600305Z"/><path class="sankey-link" style="stroke: rgb(68, 68, 68); stroke-opacity: 1; fill: rgb(222, 197, 128); fill-opacity: 1; stroke-width: 0px; opacity: 1;" d="M52.93379923279705,463.66097127359853C531.8894348276662,463.66097127359853 531.8894348276662,371.2799519996968 1010.8450704225352,371.2799519996968L1020.8450704225352,377.5649974617774L1010.8450704225352,383.85004292385804C531.8894348276662,383.85004292385804 531.8894348276662,476.2310621977598 52.93379923279705,476.2310621977598Z"/><path class="sankey-link" style="stroke: rgb(68, 68, 68); stroke-opacity: 1; fill: rgb(174, 158, 128); fill-opacity: 1; stroke-width: 0px; opacity: 1;" d="M52.93379923279705,430.0452253309735C120.25973849860856,430.0452253309735 120.25973849860856,402.83459803003825 187.58567776442007,402.83459803003825L197.58567776442007,414.82634590977403L187.58567776442007,426.8180937895098C120.25973849860856,426.8180937895098 120.25973849860856,454.02872109044506 52.93379923279705,454.02872109044506Z"/><path class="sankey-link" style="stroke: rgb(68, 68, 68); stroke-opacity: 1; fill: rgb(217, 128, 183); fill-opacity: 1; stroke-width: 0px; opacity: 1;" d="M52.93379923279705,495.067127456003C531.8894348276662,495.067127456003 531.8894348276662,430.25612707759325 1010.8450704225352,430.25612707759325L1020.8450704225352,437.46102182965734L1010.8450704225352,444.66591658172143C531.8894348276662,444.66591658172143 531.8894348276662,509.4769169601312 52.93379923279705,509.4769169601312Z"/><path class="sankey-link" style="stroke: rgb(68, 68, 68); stroke-opacity: 1; fill: rgb(174, 158, 128); fill-opacity: 1; stroke-width: 0px; opacity: 1;" d="M52.93379923279705,454.77826077225416C531.8894348276662,454.77826077225416 531.8894348276662,352.47563798078 1010.8450704225352,352.47563798078L1020.8450704225352,356.9169932314522L1010.8450704225352,361.35834848212437C531.8894348276662,361.35834848212437 531.8894348276662,463.66097127359853 52.93379923279705,463.66097127359853Z"/><path class="sankey-link" style="stroke: rgb(242, 247, 138); stroke-opacity: 1; fill: rgb(242, 247, 138); fill-opacity: 1; stroke-width: 1px; opacity: 1;" d="M52.93379923279705,454.0287210904451C120.25973849860856,454.0287210904451 120.25973849860856,435.55068431231257 187.58567776442007,435.55068431231257L197.58567776442007,435.9254541532171L187.58567776442007,436.30022399412167C120.25973849860856,436.30022399412167 120.25973849860856,454.7782607722542 52.93379923279705,454.7782607722542Z"/><path class="sankey-link" style="stroke: rgb(242, 247, 138); stroke-opacity: 1; fill: rgb(242, 247, 138); fill-opacity: 1; stroke-width: 1px; opacity: 1;" d="M217.58567776442007,435.8575964187101C531.8894348276662,435.8575964187101 531.8894348276662,164.7487244172403 846.1931918909122,164.7487244172403L856.1931918909122,164.85028926169846L846.1931918909122,164.95185410615662C531.8894348276662,164.95185410615662 531.8894348276662,436.0607261076264 217.58567776442007,436.0607261076264Z"/><path class="sankey-link" style="stroke: rgb(174, 158, 128); stroke-opacity: 1; fill: rgb(174, 158, 128); fill-opacity: 1; stroke-width: 1px; opacity: 1;" d="M217.58567776442007,402.83459803003825C284.9116170302316,402.83459803003825 284.9116170302316,369.1778740229005 352.2375562960431,369.1778740229005L362.2375562960431,369.291857276288L352.2375562960431,369.4058405296755C284.9116170302316,369.4058405296755 284.9116170302316,403.0625645368133 217.58567776442007,403.0625645368133Z"/><path class="sankey-link" style="stroke: rgb(242, 247, 138); stroke-opacity: 1; fill: rgb(242, 247, 138); fill-opacity: 1; stroke-width: 1px; opacity: 1;" d="M217.58567776442007,435.55068431231257C284.9116170302316,435.55068431231257 284.9116170302316,369.4058405296756 352.2375562960431,369.4058405296756L362.2375562960431,369.55929658287437L352.2375562960431,369.71275263607316C284.9116170302316,369.71275263607316 284.9116170302316,435.85759641871016 217.58567776442007,435.85759641871016Z"/><path class="sankey-link" style="stroke: rgb(227, 166, 170); stroke-opacity: 1; fill: rgb(227, 166, 170); fill-opacity: 1; stroke-width: 1px; opacity: 1;" d="M382.2375562960431,369.1778740229005C449.56349556185467,369.1778740229005 449.56349556185467,110.18612152333452 516.8894348276662,110.18612152333452L526.8894348276662,110.45356082992083L516.8894348276662,110.72100013650714C449.56349556185467,110.72100013650714 449.56349556185467,369.7127526360731 382.2375562960431,369.7127526360731Z"/><path class="sankey-link" style="stroke: rgb(68, 68, 68); stroke-opacity: 1; fill: rgb(227, 166, 170); fill-opacity: 1; stroke-width: 0px; opacity: 1;" d="M382.2375562960431,27.053307161126323C449.56349556185467,27.053307161126323 449.56349556185467,94.79439068457606 516.8894348276662,94.79439068457606L526.8894348276662,99.7928002786519L516.8894348276662,104.79120987272773C449.56349556185467,104.79120987272773 449.56349556185467,37.050126349278 382.2375562960431,37.050126349278Z"/><path class="sankey-link" style="stroke: rgb(68, 68, 68); stroke-opacity: 1; fill: rgb(227, 166, 170); fill-opacity: 1; stroke-width: 0px; opacity: 1;" d="M382.2375562960431,220.10946696025957C449.56349556185467,220.10946696025957 449.56349556185467,104.79120987272773 516.8894348276662,104.79120987272773L526.8894348276662,107.48866569803113L516.8894348276662,110.18612152333452C449.56349556185467,110.18612152333452 449.56349556185467,225.50437861086635 382.2375562960431,225.50437861086635Z"/><path class="sankey-link" style="stroke: rgb(68, 68, 68); stroke-opacity: 1; fill: rgb(227, 166, 170); fill-opacity: 1; stroke-width: 0px; opacity: 1;" d="M217.58567776442007,520.4992725117534C284.9116170302316,520.4992725117534 284.9116170302316,501.2414860019677 352.2375562960431,501.2414860019677L362.2375562960431,505.6828412526399L352.2375562960431,510.1241965033121C284.9116170302316,510.1241965033121 284.9116170302316,529.3819830130976 217.58567776442007,529.3819830130976Z"/><path class="sankey-link" style="stroke: rgb(68, 68, 68); stroke-opacity: 1; fill: rgb(174, 158, 128); fill-opacity: 1; stroke-width: 0px; opacity: 1;" d="M217.58567776442007,529.3819830130977C284.9116170302316,529.3819830130977 284.9116170302316,516.5701129236508 352.2375562960431,516.5701129236508L362.2375562960431,526.9736350042397L352.2375562960431,537.3771570848286C284.9116170302316,537.3771570848286 284.9116170302316,550.1890271742756 217.58567776442007,550.1890271742756Z"/><path class="sankey-link" style="stroke: rgb(68, 68, 68); stroke-opacity: 1; fill: rgb(227, 166, 170); fill-opacity: 1; stroke-width: 0px; opacity: 1;" d="M217.58567776442007,550.1890271742756C284.9116170302316,550.1890271742756 284.9116170302316,540.1779346217016 352.2375562960431,540.1779346217016L362.2375562960431,565.8707356673816L352.2375562960431,591.5635367130616C284.9116170302316,591.5635367130616 284.9116170302316,601.5746292656355 217.58567776442007,601.5746292656355Z"/><path class="sankey-link" style="stroke: rgb(68, 68, 68); stroke-opacity: 1; fill: rgb(227, 166, 170); fill-opacity: 1; stroke-width: 0px; opacity: 1;" d="M217.58567776442007,601.5746292656355C284.9116170302316,601.5746292656355 284.9116170302316,597.7501549636245 352.2375562960431,597.7501549636245L362.2375562960431,606.9628403308067L352.2375562960431,616.1755256979889C284.9116170302316,616.1755256979889 284.9116170302316,619.9999999999999 217.58567776442007,619.9999999999999Z"/><path class="sankey-link" style="stroke: rgb(68, 68, 68); stroke-opacity: 1; fill: rgb(174, 158, 128); fill-opacity: 1; stroke-width: 0px; opacity: 1;" d="M382.2375562960431,501.2414860019677C449.56349556185467,501.2414860019677 449.56349556185467,495.6222196037785 516.8894348276662,495.6222196037785L526.8894348276662,500.0635748544507L516.8894348276662,504.50493010512287C449.56349556185467,504.50493010512287 449.56349556185467,510.1241965033121 382.2375562960431,510.1241965033121Z"/><path class="sankey-link" style="stroke: rgb(68, 68, 68); stroke-opacity: 1; fill: rgb(242, 247, 138); fill-opacity: 1; stroke-width: 0px; opacity: 1;" d="M382.2375562960431,586.1429012153868C449.56349556185467,586.1429012153868 449.56349556185467,574.7548902003143 516.8894348276662,574.7548902003143L526.8894348276662,577.4652079491517L516.8894348276662,580.1755256979891C449.56349556185467,580.1755256979891 449.56349556185467,591.5635367130616 382.2375562960431,591.5635367130616Z"/><path class="sankey-link" style="stroke: rgb(68, 68, 68); stroke-opacity: 1; fill: rgb(222, 197, 128); fill-opacity: 1; stroke-width: 0px; opacity: 1;" d="M382.2375562960431,578.3432533785264C449.56349556185467,578.3432533785264 449.56349556185467,560.7474382776884 516.8894348276662,560.7474382776884L526.8894348276662,564.6472621961186L516.8894348276662,568.5470861145488C449.56349556185467,568.5470861145488 449.56349556185467,586.1429012153868 382.2375562960431,586.1429012153868Z"/><path class="sankey-link" style="stroke: rgb(68, 68, 68); stroke-opacity: 1; fill: rgb(174, 158, 128); fill-opacity: 1; stroke-width: 0px; opacity: 1;" d="M382.2375562960431,540.1779346217016C449.56349556185467,540.1779346217016 449.56349556185467,518.9639763865673 516.8894348276662,518.9639763865673L526.8894348276662,538.0466357649797L516.8894348276662,557.129295143392C449.56349556185467,557.129295143392 449.56349556185467,578.3432533785264 382.2375562960431,578.3432533785264Z"/><path class="sankey-link" style="stroke: rgb(68, 68, 68); stroke-opacity: 1; fill: rgb(242, 247, 138); fill-opacity: 1; stroke-width: 0px; opacity: 1;" d="M52.93379923279705,399.83923659197035C367.23755629604307,399.83923659197035 367.23755629604307,300.1654392733576 681.5413133592891,300.1654392733576L691.5413133592891,300.9393722584208L681.5413133592891,301.713305243484C367.23755629604307,301.713305243484 367.23755629604307,401.38710256209674 52.93379923279705,401.38710256209674Z"/><path class="sankey-link" style="stroke: rgb(68, 68, 68); stroke-opacity: 1; fill: rgb(222, 197, 128); fill-opacity: 1; stroke-width: 0px; opacity: 1;" d="M52.93379923279705,378.10251201705347C367.23755629604307,378.10251201705347 367.23755629604307,298.05430975536285 681.5413133592891,298.05430975536285L691.5413133592891,299.10987451436023L681.5413133592891,300.1654392733576C367.23755629604307,300.1654392733576 367.23755629604307,380.2136415350482 52.93379923279705,380.2136415350482Z"/><path class="sankey-link" style="stroke: rgb(68, 68, 68); stroke-opacity: 1; fill: rgb(174, 158, 128); fill-opacity: 1; stroke-width: 0px; opacity: 1;" d="M546.8894348276662,495.6222196037785C614.2153740934776,495.6222196037785 614.2153740934776,318.3282493617865 681.5413133592891,318.3282493617865L691.5413133592891,321.34503570241685L681.5413133592891,324.3618220430472C614.2153740934776,324.3618220430472 614.2153740934776,501.6557922850392 546.8894348276662,501.6557922850392Z"/><path class="sankey-link" style="stroke: rgb(68, 68, 68); stroke-opacity: 1; fill: rgb(174, 158, 128); fill-opacity: 1; stroke-width: 0px; opacity: 1;" d="M382.2375562960431,516.5701129236508C531.8894348276662,516.5701129236508 531.8894348276662,301.713305243484 681.5413133592891,301.713305243484L691.5413133592891,302.36571522688115L681.5413133592891,303.0181252102783C531.8894348276662,303.0181252102783 531.8894348276662,517.8749328904449 382.2375562960431,517.8749328904449Z"/><path class="sankey-link" style="stroke: rgb(68, 68, 68); stroke-opacity: 1; fill: rgb(242, 247, 138); fill-opacity: 1; stroke-width: 0px; opacity: 1;" d="M546.8894348276662,574.7548902003143C614.2153740934776,574.7548902003143 614.2153740934776,333.50531913190855 681.5413133592891,333.50531913190855L691.5413133592891,334.34932742450184L681.5413133592891,335.1933357170951C614.2153740934776,335.1933357170951 614.2153740934776,576.4429067855008 546.8894348276662,576.4429067855008Z"/><path class="sankey-link" style="stroke: rgb(68, 68, 68); stroke-opacity: 1; fill: rgb(222, 197, 128); fill-opacity: 1; stroke-width: 0px; opacity: 1;" d="M546.8894348276662,560.7474382776884C614.2153740934776,560.7474382776884 614.2153740934776,331.1821896329051 681.5413133592891,331.1821896329051L691.5413133592891,332.3437543824068L681.5413133592891,333.50531913190855C614.2153740934776,333.50531913190855 614.2153740934776,563.0705677766919 546.8894348276662,563.0705677766919Z"/><path class="sankey-link" style="stroke: rgb(68, 68, 68); stroke-opacity: 1; fill: rgb(174, 158, 128); fill-opacity: 1; stroke-width: 0px; opacity: 1;" d="M546.8894348276662,518.9639763865673C614.2153740934776,518.9639763865673 614.2153740934776,324.3618220430472 681.5413133592891,324.3618220430472L691.5413133592891,327.7720058379761L681.5413133592891,331.182189632905C614.2153740934776,331.182189632905 614.2153740934776,525.7843439764251 546.8894348276662,525.7843439764251Z"/><path class="sankey-link" style="stroke: rgb(68, 68, 68); stroke-opacity: 1; fill: rgb(227, 166, 170); fill-opacity: 1; stroke-width: 0px; opacity: 1;" d="M382.2375562960431,597.7501549636245C531.8894348276662,597.7501549636245 531.8894348276662,303.01812521027824 681.5413133592891,303.01812521027824L691.5413133592891,310.6731872860324L681.5413133592891,318.3282493617865C531.8894348276662,318.3282493617865 531.8894348276662,613.0602791151327 382.2375562960431,613.0602791151327Z"/><path class="sankey-link" style="stroke: rgb(242, 247, 138); stroke-opacity: 1; fill: rgb(242, 247, 138); fill-opacity: 1; stroke-width: 1px; opacity: 1;" d="M 22.93379923279705 595.7308731973196 L17.93379923279705 595.7308731973196A12.444652500669566 12.444652500669566 0 0 0 5.489146732127482 608.1755256979892L5.489146732127482 613.1755256979891A12.444652500669566 12.444652500669566 0 0 0 17.93379923279705 625.6201781986587L551.8894348276662 625.6201781986587A10.234175711239754 10.234175711239754 0 0 0 562.1236105389058 615.386002487419L562.1236105389058 590.1755256979889A10.234175711239754 10.234175711239754 0 0 0 551.8894348276662 579.9413499867492L546.8894348276662 579.9413499867492L546.8894348276662 580.1755256979889L551.8894348276662 580.1755256979889A10 10 0 0 1 561.8894348276662 590.1755256979889L561.8894348276662 615.386002487419A10 10 0 0 1 551.8894348276662 625.386002487419L17.93379923279705 625.386002487419A12.210476789429812 12.210476789429812 0 0 1 5.723322443367236 613.1755256979891L5.723322443367236 608.1755256979892A12.210476789429812 12.210476789429812 0 0 1 17.93379923279705 595.9650489085593L22.93379923279705 595.9650489085593L32.93379923279705 595.8479610529395Z"/><path class="sankey-link" style="stroke: rgb(68, 68, 68); stroke-opacity: 1; fill: rgb(174, 158, 128); fill-opacity: 1; stroke-width: 0px; opacity: 1;" d="M 22.93379923279705 594.0126976190187 L17.93379923279705 594.0126976190187A14.162828078970348 14.162828078970348 0 0 0 3.7709711538267037 608.1755256979891L3.7709711538267037 613.1755256979891A14.162828078970348 14.162828078970348 0 0 0 17.93379923279705 627.3383537769595L551.8894348276662 627.3383537769595A11.952351289540536 11.952351289540536 0 0 0 563.8417861172067 615.386002487419L563.8417861172067 567.3634708546319A11.952351289540536 11.952351289540536 0 0 0 551.8894348276662 555.4111195650914L546.8894348276662 555.4111195650914L546.8894348276662 557.1292951433923L551.8894348276662 557.1292951433923A10.234175711239756 10.234175711239756 0 0 1 562.1236105389058 567.3634708546319L562.1236105389058 615.386002487419A10.234175711239756 10.234175711239756 0 0 1 551.8894348276662 625.6201781986587L17.93379923279705 625.6201781986587A12.444652500669568 12.444652500669568 0 0 1 5.489146732127484 613.1755256979891L5.489146732127484 608.1755256979891A12.444652500669568 12.444652500669568 0 0 1 17.93379923279705 595.7308731973195L22.93379923279705 595.7308731973195L32.93379923279705 594.8717854081691Z"/><path class="sankey-link" style="stroke: rgb(68, 68, 68); stroke-opacity: 1; fill: rgb(227, 166, 170); fill-opacity: 1; stroke-width: 0px; opacity: 1;" d="M 22.93379923279705 595.9650489085593 L17.93379923279705 595.9650489085593A12.210476789429812 12.210476789429812 0 0 0 5.723322443367238 608.1755256979891L5.723322443367238 631.1755256979891A12.210476789429812 12.210476789429812 0 0 0 17.93379923279705 643.3860024874189L387.2375562960431 643.3860024874189A12.210476789429812 12.210476789429812 0 0 0 399.4480330854729 631.1755256979891L399.4480330854729 626.1755256979891A12.210476789429812 12.210476789429812 0 0 0 387.2375562960431 613.9650489085593L382.2375562960431 613.9650489085593L382.2375562960431 616.1755256979891L387.2375562960431 616.1755256979891A10 10 0 0 1 397.2375562960431 626.1755256979891L397.2375562960431 631.1755256979891A10 10 0 0 1 387.2375562960431 641.1755256979891L17.93379923279705 641.1755256979891A10 10 0 0 1 7.93379923279705 631.1755256979891L7.93379923279705 608.1755256979891A10 10 0 0 1 17.93379923279705 598.1755256979891L22.93379923279705 598.1755256979891L32.93379923279705 597.0702873032742Z"/><path class="sankey-link" style="stroke: rgb(68, 68, 68); stroke-opacity: 1; fill: rgb(227, 166, 170); fill-opacity: 1; stroke-width: 0px; opacity: 1;" d="M876.1931918909122,164.7487244172403C943.5191311567237,164.7487244172403 943.5191311567237,73.88982545749658 1010.8450704225352,73.88982545749658L1020.8450704225352,80.54254452680782L1010.8450704225352,87.19526359611905C943.5191311567237,87.19526359611905 943.5191311567237,178.0541625558628 876.1931918909122,178.0541625558628Z"/><path class="sankey-link" style="stroke: rgb(68, 68, 68); stroke-opacity: 1; fill: rgb(227, 166, 170); fill-opacity: 1; stroke-width: 0px; opacity: 1;" d="M546.8894348276662,94.79439068457606C778.8672526251007,94.79439068457606 778.8672526251007,68.3476669581557 1010.8450704225352,68.3476669581557L1020.8450704225352,70.5643529520502L1010.8450704225352,72.7810389459447C778.8672526251007,72.7810389459447 778.8672526251007,99.22776267236506 546.8894348276662,99.22776267236506Z"/><path class="sankey-link" style="stroke: rgb(68, 68, 68); stroke-opacity: 1; fill: rgb(227, 166, 170); fill-opacity: 1; stroke-width: 0px; opacity: 1;" d="M382.2375562960431,23.06344977795807C696.5413133592891,23.06344977795807 696.5413133592891,64.35780957498744 1010.8450704225352,64.35780957498744L1020.8450704225352,66.35273826657158L1010.8450704225352,68.34766695815571C696.5413133592891,68.34766695815571 696.5413133592891,27.053307161126327 382.2375562960431,27.053307161126327Z"/><path class="sankey-link" style="stroke: rgb(227, 166, 170); stroke-opacity: 1; fill: rgb(227, 166, 170); fill-opacity: 1; stroke-width: 1px; opacity: 1;" d="M382.2375562960431,225.50437861086635C696.5413133592891,225.50437861086635 696.5413133592891,72.7810389459447 1010.8450704225352,72.7810389459447L1020.8450704225352,72.89191759709989L1010.8450704225352,73.00279624825508C696.5413133592891,73.00279624825508 696.5413133592891,225.72613591317673 382.2375562960431,225.72613591317673Z"/><path class="sankey-link" style="stroke: rgb(227, 166, 170); stroke-opacity: 1; fill: rgb(227, 166, 170); fill-opacity: 1; stroke-width: 1px; opacity: 1;" d="M382.2375562960431,369.7127526360731C696.5413133592891,369.7127526360731 696.5413133592891,73.00279624825508 1010.8450704225352,73.00279624825508L1020.8450704225352,73.44631085287583L1010.8450704225352,73.88982545749657C696.5413133592891,73.88982545749657 696.5413133592891,370.5997818453146 382.2375562960431,370.5997818453146Z"/></g><g class="sankey-node-set" style="cursor: ns-resize;"><g class="sankey-node" transform="translate(691.541,298.054)" style="opacity: 1;"><rect class="node-rect" width="20" height="48.04238900172868" style="stroke-width: 0px; stroke: rgb(68, 68, 68); stroke-opacity: 1; fill: rgb(217, 128, 183); fill-opacity: 1;"/><text class="node-label" style="cursor: default; font-family: TOBESTRIPPEDOpen SansTOBESTRIPPED, verdana, arial, sans-serif; font-size: 12px; fill: rgb(68, 68, 68); fill-opacity: 1; white-space: pre; text-shadow: rgb(255, 255, 255) 1px 1px 1px, rgb(255, 255, 255) -1px -1px 1px, rgb(255, 255, 255) 1px -1px 1px, rgb(255, 255, 255) -1px 1px 1px;" data-notex="1" x="0" y="0" text-anchor="start" transform="translate(23,28.22119450086434)">Demolition</text></g><g class="sankey-node" transform="translate(362.238,13.125)" style="opacity: 1;"><rect class="node-rect" width="20" height="23.924951831661648" style="stroke-width: 0px; stroke: rgb(68, 68, 68); stroke-opacity: 1; fill: rgb(217, 128, 183); fill-opacity: 1;"/><text class="node-label" style="cursor: default; font-family: TOBESTRIPPEDOpen SansTOBESTRIPPED, verdana, arial, sans-serif; font-size: 12px; fill: rgb(68, 68, 68); fill-opacity: 1; white-space: pre; text-shadow: rgb(255, 255, 255) 1px 1px 1px, rgb(255, 255, 255) -1px -1px 1px, rgb(255, 255, 255) 1px -1px 1px, rgb(255, 255, 255) -1px 1px 1px;" data-notex="1" x="0" y="0" text-anchor="start" transform="translate(23,16.162475915830825)">Overburden and Interburden</text></g><g class="sankey-node" transform="translate(362.238,220.109)" style="opacity: 1;"><rect class="node-rect" width="20" height="11.737170496683348" style="stroke-width: 0px; stroke: rgb(68, 68, 68); stroke-opacity: 1; fill: rgb(217, 128, 183); fill-opacity: 1;"/><text class="node-label" style="cursor: default; font-family: TOBESTRIPPEDOpen SansTOBESTRIPPED, verdana, arial, sans-serif; font-size: 12px; fill: rgb(68, 68, 68); fill-opacity: 1; white-space: pre; text-shadow: rgb(255, 255, 255) 1px 1px 1px, rgb(255, 255, 255) -1px -1px 1px, rgb(255, 255, 255) 1px -1px 1px, rgb(255, 255, 255) -1px 1px 1px;" data-notex="1" x="0" y="0" text-anchor="start" transform="translate(23,10.068585248341673)">Scalpings and Fines</text></g><g class="sankey-node" transform="translate(32.934,594.013)" style="opacity: 1;"><rect class="node-rect" width="20" height="4.162828078970506" style="stroke-width: 0px; stroke: rgb(68, 68, 68); stroke-opacity: 1; fill: rgb(217, 128, 183); fill-opacity: 1;"/><text class="node-label" style="cursor: default; font-family: TOBESTRIPPEDOpen SansTOBESTRIPPED, verdana, arial, sans-serif; font-size: 12px; fill: rgb(68, 68, 68); fill-opacity: 1; white-space: pre; text-shadow: rgb(255, 255, 255) 1px 1px 1px, rgb(255, 255, 255) -1px -1px 1px, rgb(255, 255, 255) 1px -1px 1px, rgb(255, 255, 255) -1px 1px 1px;" data-notex="1" x="0" y="0" text-anchor="start" transform="translate(23,6.281414039485252)">Deconstruction</text></g><g class="sankey-node" transform="translate(32.934,51.333)" style="opacity: 1;"><rect class="node-rect" width="20" height="131.98196307225146" style="stroke-width: 0px; stroke: rgb(68, 68, 68); stroke-opacity: 1; fill: rgb(167, 230, 111); fill-opacity: 1;"/><text class="node-label" style="cursor: default; font-family: TOBESTRIPPEDOpen SansTOBESTRIPPED, verdana, arial, sans-serif; font-size: 12px; fill: rgb(68, 68, 68); fill-opacity: 1; white-space: pre; text-shadow: rgb(255, 255, 255) 1px 1px 1px, rgb(255, 255, 255) -1px -1px 1px, rgb(255, 255, 255) 1px -1px 1px, rgb(255, 255, 255) -1px 1px 1px;" data-notex="1" x="0" y="0" text-anchor="start" transform="translate(23,70.19098153612573)">Extraction</text></g><g class="sankey-node" transform="translate(197.586,172.800)" style="opacity: 1;"><rect class="node-rect" width="20" height="19.95372206188739" style="stroke-width: 0px; stroke: rgb(68, 68, 68); stroke-opacity: 1; fill: rgb(242, 247, 138); fill-opacity: 1;"/><text class="node-label" style="cursor: default; font-family: TOBESTRIPPEDOpen SansTOBESTRIPPED, verdana, arial, sans-serif; font-size: 12px; fill: rgb(68, 68, 68); fill-opacity: 1; white-space: pre; text-shadow: rgb(255, 255, 255) 1px 1px 1px, rgb(255, 255, 255) -1px -1px 1px, rgb(255, 255, 255) 1px -1px 1px, rgb(255, 255, 255) -1px 1px 1px;" data-notex="1" x="0" y="0" text-anchor="start" transform="translate(23,14.176861030943694)">Extraction Sand</text></g><g class="sankey-node" transform="translate(197.586,139.249)" style="opacity: 1;"><rect class="node-rect" width="20" height="29.9248174029712" style="stroke-width: 0px; stroke: rgb(68, 68, 68); stroke-opacity: 1; fill: rgb(222, 197, 128); fill-opacity: 1;"/><text class="node-label" style="cursor: default; font-family: TOBESTRIPPEDOpen SansTOBESTRIPPED, verdana, arial, sans-serif; font-size: 12px; fill: rgb(68, 68, 68); fill-opacity: 1; white-space: pre; text-shadow: rgb(255, 255, 255) 1px 1px 1px, rgb(255, 255, 255) -1px -1px 1px, rgb(255, 255, 255) 1px -1px 1px, rgb(255, 255, 255) -1px 1px 1px;" data-notex="1" x="0" y="0" text-anchor="start" transform="translate(23,19.1624087014856)">Extraction Gravel</text></g><g class="sankey-node" transform="translate(197.586,48.000)" style="opacity: 1;"><rect class="node-rect" width="20" height="82.10342360739295" style="stroke-width: 0px; stroke: rgb(68, 68, 68); stroke-opacity: 1; fill: rgb(174, 158, 128); fill-opacity: 1;"/><text class="node-label" style="cursor: default; font-family: TOBESTRIPPEDOpen SansTOBESTRIPPED, verdana, arial, sans-serif; font-size: 12px; fill: rgb(68, 68, 68); fill-opacity: 1; white-space: pre; text-shadow: rgb(255, 255, 255) 1px 1px 1px, rgb(255, 255, 255) -1px -1px 1px, rgb(255, 255, 255) 1px -1px 1px, rgb(255, 255, 255) -1px 1px 1px;" data-notex="1" x="0" y="0" text-anchor="start" transform="translate(23,45.25171180369648)">Extraction Crushed Rock</text></g><g class="sankey-node" transform="translate(32.934,34.499)" style="opacity: 1;"><rect class="node-rect" width="20" height="0.5437489052650335" style="stroke-width: 0px; stroke: rgb(68, 68, 68); stroke-opacity: 1; fill: rgb(242, 247, 138); fill-opacity: 1;"/><text class="node-label" style="cursor: default; font-family: TOBESTRIPPEDOpen SansTOBESTRIPPED, verdana, arial, sans-serif; font-size: 12px; fill: rgb(68, 68, 68); fill-opacity: 1; white-space: pre; text-shadow: rgb(255, 255, 255) 1px 1px 1px, rgb(255, 255, 255) -1px -1px 1px, rgb(255, 255, 255) 1px -1px 1px, rgb(255, 255, 255) -1px 1px 1px;" data-notex="1" x="0" y="0" text-anchor="start" transform="translate(23,4.471874452632516)">Marine Dredged Sand</text></g><g class="sankey-node" transform="translate(32.934,8.669)" style="opacity: 1;"><rect class="node-rect" width="20" height="0.7220417763226123" style="stroke-width: 0px; stroke: rgb(68, 68, 68); stroke-opacity: 1; fill: rgb(222, 197, 128); fill-opacity: 1;"/><text class="node-label" style="cursor: default; font-family: TOBESTRIPPEDOpen SansTOBESTRIPPED, verdana, arial, sans-serif; font-size: 12px; fill: rgb(68, 68, 68); fill-opacity: 1; white-space: pre; text-shadow: rgb(255, 255, 255) 1px 1px 1px, rgb(255, 255, 255) -1px -1px 1px, rgb(255, 255, 255) 1px -1px 1px, rgb(255, 255, 255) -1px 1px 1px;" data-notex="1" x="0" y="0" text-anchor="start" transform="translate(23,4.5610208881613055)">Marine Dredged Gravel</text></g><g class="sankey-node" transform="translate(32.934,236.016)" style="opacity: 1;"><rect class="node-rect" width="20" height="123.48599730613637" style="stroke-width: 0px; stroke: rgb(68, 68, 68); stroke-opacity: 1; fill: rgb(167, 230, 111); fill-opacity: 1;"/><text class="node-label" style="cursor: default; font-family: TOBESTRIPPEDOpen SansTOBESTRIPPED, verdana, arial, sans-serif; font-size: 12px; fill: rgb(68, 68, 68); fill-opacity: 1; white-space: pre; text-shadow: rgb(255, 255, 255) 1px 1px 1px, rgb(255, 255, 255) -1px -1px 1px, rgb(255, 255, 255) 1px -1px 1px, rgb(255, 255, 255) -1px 1px 1px;" data-notex="1" x="0" y="0" text-anchor="start" transform="translate(23,65.94299865306819)">Processing/Production</text></g><g class="sankey-node" transform="translate(197.586,312.461)" style="opacity: 1;"><rect class="node-rect" width="20" height="23.332416319888466" style="stroke-width: 0px; stroke: rgb(68, 68, 68); stroke-opacity: 1; fill: rgb(242, 247, 138); fill-opacity: 1;"/><text class="node-label" style="cursor: default; font-family: TOBESTRIPPEDOpen SansTOBESTRIPPED, verdana, arial, sans-serif; font-size: 12px; fill: rgb(68, 68, 68); fill-opacity: 1; white-space: pre; text-shadow: rgb(255, 255, 255) 1px 1px 1px, rgb(255, 255, 255) -1px -1px 1px, rgb(255, 255, 255) 1px -1px 1px, rgb(255, 255, 255) -1px 1px 1px;" data-notex="1" x="0" y="0" text-anchor="start" transform="translate(23,15.866208159944232)">Processing/Production Sand</text></g><g class="sankey-node" transform="translate(197.586,289.032)" style="opacity: 1;"><rect class="node-rect" width="20" height="18.429805880410413" style="stroke-width: 0px; stroke: rgb(68, 68, 68); stroke-opacity: 1; fill: rgb(222, 197, 128); fill-opacity: 1;"/><text class="node-label" style="cursor: default; font-family: TOBESTRIPPEDOpen SansTOBESTRIPPED, verdana, arial, sans-serif; font-size: 12px; fill: rgb(68, 68, 68); fill-opacity: 1; white-space: pre; text-shadow: rgb(255, 255, 255) 1px 1px 1px, rgb(255, 255, 255) -1px -1px 1px, rgb(255, 255, 255) 1px -1px 1px, rgb(255, 255, 255) -1px 1px 1px;" data-notex="1" x="0" y="0" text-anchor="start" transform="translate(23,13.414902940205206)">Processing/Production Gravel</text></g><g class="sankey-node" transform="translate(197.586,229.370)" style="opacity: 1;"><rect class="node-rect" width="20" height="55.0570159884104" style="stroke-width: 0px; stroke: rgb(68, 68, 68); stroke-opacity: 1; fill: rgb(174, 158, 128); fill-opacity: 1;"/><text class="node-label" style="cursor: default; font-family: TOBESTRIPPEDOpen SansTOBESTRIPPED, verdana, arial, sans-serif; font-size: 12px; fill: rgb(68, 68, 68); fill-opacity: 1; white-space: pre; text-shadow: rgb(255, 255, 255) 1px 1px 1px, rgb(255, 255, 255) -1px -1px 1px, rgb(255, 255, 255) 1px -1px 1px, rgb(255, 255, 255) -1px 1px 1px;" data-notex="1" x="0" y="0" text-anchor="start" transform="translate(23,31.7285079942052)">Processing/Production Crushed Rock</text></g><g class="sankey-node" transform="translate(32.934,209.440)" style="opacity: 1;"><rect class="node-rect" width="20" height="0.5" style="stroke-width: 0px; stroke: rgb(68, 68, 68); stroke-opacity: 1; fill: rgb(165, 215, 212); fill-opacity: 1;"/><text class="node-label" style="cursor: default; font-family: TOBESTRIPPEDOpen SansTOBESTRIPPED, verdana, arial, sans-serif; font-size: 12px; fill: rgb(68, 68, 68); fill-opacity: 1; white-space: pre; text-shadow: rgb(255, 255, 255) 1px 1px 1px, rgb(255, 255, 255) -1px -1px 1px, rgb(255, 255, 255) 1px -1px 1px, rgb(255, 255, 255) -1px 1px 1px;" data-notex="1" x="0" y="0" text-anchor="start" transform="translate(23,4.449999999999999)">Processing/Production Secondary Aggregates</text></g><g class="sankey-node" transform="translate(1020.845,227.821)" style="opacity: 1;"><rect class="node-rect" width="20" height="7.267430311316048" style="stroke-width: 0px; stroke: rgb(68, 68, 68); stroke-opacity: 1; fill: rgb(162, 227, 155); fill-opacity: 1;"/><text class="node-label" style="cursor: default; font-family: TOBESTRIPPEDOpen SansTOBESTRIPPED, verdana, arial, sans-serif; font-size: 12px; fill: rgb(68, 68, 68); fill-opacity: 1; white-space: pre; text-shadow: rgb(255, 255, 255) 1px 1px 1px, rgb(255, 255, 255) -1px -1px 1px, rgb(255, 255, 255) 1px -1px 1px, rgb(255, 255, 255) -1px 1px 1px;" data-notex="1" x="0" y="0" text-anchor="end" transform="translate(-3,7.833715155658023)">Processing/Production recycled Waste</text></g><g class="sankey-node" transform="translate(197.586,342.694)" style="opacity: 1;"><rect class="node-rect" width="20" height="25.51983034987859" style="stroke-width: 0px; stroke: rgb(68, 68, 68); stroke-opacity: 1; fill: rgb(217, 128, 183); fill-opacity: 1;"/><text class="node-label" style="cursor: default; font-family: TOBESTRIPPEDOpen SansTOBESTRIPPED, verdana, arial, sans-serif; font-size: 12px; fill: rgb(68, 68, 68); fill-opacity: 1; white-space: pre; text-shadow: rgb(255, 255, 255) 1px 1px 1px, rgb(255, 255, 255) -1px -1px 1px, rgb(255, 255, 255) 1px -1px 1px, rgb(255, 255, 255) -1px 1px 1px;" data-notex="1" x="0" y="0" text-anchor="start" transform="translate(23,16.959915174939294)">Processing/Production C&amp;D Waste</text></g><g class="sankey-node" transform="translate(32.934,430.045)" style="opacity: 1;"><rect class="node-rect" width="20" height="79.43169162915785" style="stroke-width: 0px; stroke: rgb(68, 68, 68); stroke-opacity: 1; fill: rgb(167, 230, 111); fill-opacity: 1;"/><text class="node-label" style="cursor: default; font-family: TOBESTRIPPEDOpen SansTOBESTRIPPED, verdana, arial, sans-serif; font-size: 12px; fill: rgb(68, 68, 68); fill-opacity: 1; white-space: pre; text-shadow: rgb(255, 255, 255) 1px 1px 1px, rgb(255, 255, 255) -1px -1px 1px, rgb(255, 255, 255) 1px -1px 1px, rgb(255, 255, 255) -1px 1px 1px;" data-notex="1" x="0" y="0" text-anchor="start" transform="translate(23,43.91584581457893)">Manufacturing</text></g><g class="sankey-node" transform="translate(1020.845,389.818)" style="opacity: 1;"><rect class="node-rect" width="20" height="18.836065258243252" style="stroke-width: 0px; stroke: rgb(68, 68, 68); stroke-opacity: 1; fill: rgb(242, 247, 138); fill-opacity: 1;"/><text class="node-label" style="cursor: default; font-family: TOBESTRIPPEDOpen SansTOBESTRIPPED, verdana, arial, sans-serif; font-size: 12px; fill: rgb(68, 68, 68); fill-opacity: 1; white-space: pre; text-shadow: rgb(255, 255, 255) 1px 1px 1px, rgb(255, 255, 255) -1px -1px 1px, rgb(255, 255, 255) 1px -1px 1px, rgb(255, 255, 255) -1px 1px 1px;" data-notex="1" x="0" y="0" text-anchor="end" transform="translate(-3,13.618032629121625)">Concreting Sand</text></g><g class="sankey-node" transform="translate(1020.845,371.280)" style="opacity: 1;"><rect class="node-rect" width="20" height="12.570090924161264" style="stroke-width: 0px; stroke: rgb(68, 68, 68); stroke-opacity: 1; fill: rgb(222, 197, 128); fill-opacity: 1;"/><text class="node-label" style="cursor: default; font-family: TOBESTRIPPEDOpen SansTOBESTRIPPED, verdana, arial, sans-serif; font-size: 12px; fill: rgb(68, 68, 68); fill-opacity: 1; white-space: pre; text-shadow: rgb(255, 255, 255) 1px 1px 1px, rgb(255, 255, 255) -1px -1px 1px, rgb(255, 255, 255) 1px -1px 1px, rgb(255, 255, 255) -1px 1px 1px;" data-notex="1" x="0" y="0" text-anchor="end" transform="translate(-3,10.485045462080631)">Concreting Gravel</text></g><g class="sankey-node" transform="translate(197.586,402.835)" style="opacity: 1;"><rect class="node-rect" width="20" height="23.98349575947202" style="stroke-width: 0px; stroke: rgb(68, 68, 68); stroke-opacity: 1; fill: rgb(174, 158, 128); fill-opacity: 1;"/><text class="node-label" style="cursor: default; font-family: TOBESTRIPPEDOpen SansTOBESTRIPPED, verdana, arial, sans-serif; font-size: 12px; fill: rgb(68, 68, 68); fill-opacity: 1; white-space: pre; text-shadow: rgb(255, 255, 255) 1px 1px 1px, rgb(255, 255, 255) -1px -1px 1px, rgb(255, 255, 255) 1px -1px 1px, rgb(255, 255, 255) -1px 1px 1px;" data-notex="1" x="0" y="0" text-anchor="start" transform="translate(23,16.19174787973601)">Concreting Crushed Rock</text></g><g class="sankey-node" transform="translate(1020.845,423.984)" style="opacity: 1;"><rect class="node-rect" width="20" height="20.681973042674485" style="stroke-width: 0px; stroke: rgb(68, 68, 68); stroke-opacity: 1; fill: rgb(217, 128, 183); fill-opacity: 1;"/><text class="node-label" style="cursor: default; font-family: TOBESTRIPPEDOpen SansTOBESTRIPPED, verdana, arial, sans-serif; font-size: 12px; fill: rgb(68, 68, 68); fill-opacity: 1; white-space: pre; text-shadow: rgb(255, 255, 255) 1px 1px 1px, rgb(255, 255, 255) -1px -1px 1px, rgb(255, 255, 255) 1px -1px 1px, rgb(255, 255, 255) -1px 1px 1px;" data-notex="1" x="0" y="0" text-anchor="end" transform="translate(-3,14.540986521337242)">Concreting C&amp;D</text></g><g class="sankey-node" transform="translate(1020.845,352.476)" style="opacity: 1;"><rect class="node-rect" width="20" height="8.88271050134449" style="stroke-width: 0px; stroke: rgb(68, 68, 68); stroke-opacity: 1; fill: rgb(174, 158, 128); fill-opacity: 1;"/><text class="node-label" style="cursor: default; font-family: TOBESTRIPPEDOpen SansTOBESTRIPPED, verdana, arial, sans-serif; font-size: 12px; fill: rgb(68, 68, 68); fill-opacity: 1; white-space: pre; text-shadow: rgb(255, 255, 255) 1px 1px 1px, rgb(255, 255, 255) -1px -1px 1px, rgb(255, 255, 255) 1px -1px 1px, rgb(255, 255, 255) -1px 1px 1px;" data-notex="1" x="0" y="0" text-anchor="end" transform="translate(-3,8.641355250672245)">Asphalt Crushed Rock</text></g><g class="sankey-node" transform="translate(197.586,435.551)" style="opacity: 1;"><rect class="node-rect" width="20" height="0.7495396818090967" style="stroke-width: 0px; stroke: rgb(68, 68, 68); stroke-opacity: 1; fill: rgb(242, 247, 138); fill-opacity: 1;"/><text class="node-label" style="cursor: default; font-family: TOBESTRIPPEDOpen SansTOBESTRIPPED, verdana, arial, sans-serif; font-size: 12px; fill: rgb(68, 68, 68); fill-opacity: 1; white-space: pre; text-shadow: rgb(255, 255, 255) 1px 1px 1px, rgb(255, 255, 255) -1px -1px 1px, rgb(255, 255, 255) 1px -1px 1px, rgb(255, 255, 255) -1px 1px 1px;" data-notex="1" x="0" y="0" text-anchor="start" transform="translate(23,4.574769840904548)">Mortar Manufacturing</text></g><g class="sankey-node" transform="translate(362.238,369.178)" style="opacity: 1;"><rect class="node-rect" width="20" height="1.421907822413914" style="stroke-width: 0px; stroke: rgb(68, 68, 68); stroke-opacity: 1; fill: rgb(217, 128, 183); fill-opacity: 1;"/><text class="node-label" style="cursor: default; font-family: TOBESTRIPPEDOpen SansTOBESTRIPPED, verdana, arial, sans-serif; font-size: 12px; fill: rgb(68, 68, 68); fill-opacity: 1; white-space: pre; text-shadow: rgb(255, 255, 255) 1px 1px 1px, rgb(255, 255, 255) -1px -1px 1px, rgb(255, 255, 255) 1px -1px 1px, rgb(255, 255, 255) -1px 1px 1px;" data-notex="1" x="0" y="0" text-anchor="start" transform="translate(23,4.910953911206956)">Manufacturing Waste</text></g><g class="sankey-node" transform="translate(197.586,520.499)" style="opacity: 1;"><rect class="node-rect" width="20" height="99.50072748824664" style="stroke-width: 0px; stroke: rgb(68, 68, 68); stroke-opacity: 1; fill: rgb(167, 230, 111); fill-opacity: 1;"/><text class="node-label" style="cursor: default; font-family: TOBESTRIPPEDOpen SansTOBESTRIPPED, verdana, arial, sans-serif; font-size: 12px; fill: rgb(68, 68, 68); fill-opacity: 1; white-space: pre; text-shadow: rgb(255, 255, 255) 1px 1px 1px, rgb(255, 255, 255) -1px -1px 1px, rgb(255, 255, 255) 1px -1px 1px, rgb(255, 255, 255) -1px 1px 1px;" data-notex="1" x="0" y="0" text-anchor="start" transform="translate(23,53.95036374412332)">Use</text></g><g class="sankey-node" transform="translate(362.238,501.241)" style="opacity: 1;"><rect class="node-rect" width="20" height="8.882710501344718" style="stroke-width: 0px; stroke: rgb(68, 68, 68); stroke-opacity: 1; fill: rgb(202, 145, 253); fill-opacity: 1;"/><text class="node-label" style="cursor: default; font-family: TOBESTRIPPEDOpen SansTOBESTRIPPED, verdana, arial, sans-serif; font-size: 12px; fill: rgb(68, 68, 68); fill-opacity: 1; white-space: pre; text-shadow: rgb(255, 255, 255) 1px 1px 1px, rgb(255, 255, 255) -1px -1px 1px, rgb(255, 255, 255) 1px -1px 1px, rgb(255, 255, 255) -1px 1px 1px;" data-notex="1" x="0" y="0" text-anchor="start" transform="translate(23,8.641355250672358)">Road</text></g><g class="sankey-node" transform="translate(362.238,540.178)" style="opacity: 1;"><rect class="node-rect" width="20" height="51.38560209135949" style="stroke-width: 0px; stroke: rgb(68, 68, 68); stroke-opacity: 1; fill: rgb(202, 145, 253); fill-opacity: 1;"/><text class="node-label" style="cursor: default; font-family: TOBESTRIPPEDOpen SansTOBESTRIPPED, verdana, arial, sans-serif; font-size: 12px; fill: rgb(68, 68, 68); fill-opacity: 1; white-space: pre; text-shadow: rgb(255, 255, 255) 1px 1px 1px, rgb(255, 255, 255) -1px -1px 1px, rgb(255, 255, 255) 1px -1px 1px, rgb(255, 255, 255) -1px 1px 1px;" data-notex="1" x="0" y="0" text-anchor="start" transform="translate(23,29.892801045679743)">Buildings</text></g><g class="sankey-node" transform="translate(32.934,399.839)" style="opacity: 1;"><rect class="node-rect" width="20" height="1.5478659701261677" style="stroke-width: 0px; stroke: rgb(68, 68, 68); stroke-opacity: 1; fill: rgb(242, 247, 138); fill-opacity: 1;"/><text class="node-label" style="cursor: default; font-family: TOBESTRIPPEDOpen SansTOBESTRIPPED, verdana, arial, sans-serif; font-size: 12px; fill: rgb(68, 68, 68); fill-opacity: 1; white-space: pre; text-shadow: rgb(255, 255, 255) 1px 1px 1px, rgb(255, 255, 255) -1px -1px 1px, rgb(255, 255, 255) 1px -1px 1px, rgb(255, 255, 255) -1px 1px 1px;" data-notex="1" x="0" y="0" text-anchor="start" transform="translate(23,4.973932985063083)">Road Sand</text></g><g class="sankey-node" transform="translate(32.934,378.103)" style="opacity: 1;"><rect class="node-rect" width="20" height="2.1111295179948684" style="stroke-width: 0px; stroke: rgb(68, 68, 68); stroke-opacity: 1; fill: rgb(222, 197, 128); fill-opacity: 1;"/><text class="node-label" style="cursor: default; font-family: TOBESTRIPPEDOpen SansTOBESTRIPPED, verdana, arial, sans-serif; font-size: 12px; fill: rgb(68, 68, 68); fill-opacity: 1; white-space: pre; text-shadow: rgb(255, 255, 255) 1px 1px 1px, rgb(255, 255, 255) -1px -1px 1px, rgb(255, 255, 255) 1px -1px 1px, rgb(255, 255, 255) -1px 1px 1px;" data-notex="1" x="0" y="0" text-anchor="start" transform="translate(23,5.2555647589974335)">Road Gravel</text></g><g class="sankey-node" transform="translate(526.889,495.622)" style="opacity: 1;"><rect class="node-rect" width="20" height="8.88271050134449" style="stroke-width: 0px; stroke: rgb(68, 68, 68); stroke-opacity: 1; fill: rgb(174, 158, 128); fill-opacity: 1;"/><text class="node-label" style="cursor: default; font-family: TOBESTRIPPEDOpen SansTOBESTRIPPED, verdana, arial, sans-serif; font-size: 12px; fill: rgb(68, 68, 68); fill-opacity: 1; white-space: pre; text-shadow: rgb(255, 255, 255) 1px 1px 1px, rgb(255, 255, 255) -1px -1px 1px, rgb(255, 255, 255) 1px -1px 1px, rgb(255, 255, 255) -1px 1px 1px;" data-notex="1" x="0" y="0" text-anchor="start" transform="translate(23,8.641355250672245)">Road Crushed Rock</text></g><g class="sankey-node" transform="translate(362.238,516.570)" style="opacity: 1;"><rect class="node-rect" width="20" height="20.807044161178055" style="stroke-width: 0px; stroke: rgb(68, 68, 68); stroke-opacity: 1; fill: rgb(202, 145, 253); fill-opacity: 1;"/><text class="node-label" style="cursor: default; font-family: TOBESTRIPPEDOpen SansTOBESTRIPPED, verdana, arial, sans-serif; font-size: 12px; fill: rgb(68, 68, 68); fill-opacity: 1; white-space: pre; text-shadow: rgb(255, 255, 255) 1px 1px 1px, rgb(255, 255, 255) -1px -1px 1px, rgb(255, 255, 255) 1px -1px 1px, rgb(255, 255, 255) -1px 1px 1px;" data-notex="1" x="0" y="0" text-anchor="start" transform="translate(23,14.603522080589027)">Railway Ballast</text></g><g class="sankey-node" transform="translate(526.889,574.755)" style="opacity: 1;"><rect class="node-rect" width="20" height="5.420635497674539" style="stroke-width: 0px; stroke: rgb(68, 68, 68); stroke-opacity: 1; fill: rgb(242, 247, 138); fill-opacity: 1;"/><text class="node-label" style="cursor: default; font-family: TOBESTRIPPEDOpen SansTOBESTRIPPED, verdana, arial, sans-serif; font-size: 12px; fill: rgb(68, 68, 68); fill-opacity: 1; white-space: pre; text-shadow: rgb(255, 255, 255) 1px 1px 1px, rgb(255, 255, 255) -1px -1px 1px, rgb(255, 255, 255) 1px -1px 1px, rgb(255, 255, 255) -1px 1px 1px;" data-notex="1" x="0" y="0" text-anchor="start" transform="translate(23,6.910317748837269)">Building Sand</text></g><g class="sankey-node" transform="translate(526.889,560.747)" style="opacity: 1;"><rect class="node-rect" width="20" height="7.7996478368604585" style="stroke-width: 0px; stroke: rgb(68, 68, 68); stroke-opacity: 1; fill: rgb(222, 197, 128); fill-opacity: 1;"/><text class="node-label" style="cursor: default; font-family: TOBESTRIPPEDOpen SansTOBESTRIPPED, verdana, arial, sans-serif; font-size: 12px; fill: rgb(68, 68, 68); fill-opacity: 1; white-space: pre; text-shadow: rgb(255, 255, 255) 1px 1px 1px, rgb(255, 255, 255) -1px -1px 1px, rgb(255, 255, 255) 1px -1px 1px, rgb(255, 255, 255) -1px 1px 1px;" data-notex="1" x="0" y="0" text-anchor="start" transform="translate(23,8.099823918430229)">Building Gravel</text></g><g class="sankey-node" transform="translate(526.889,518.964)" style="opacity: 1;"><rect class="node-rect" width="20" height="38.165318756824945" style="stroke-width: 0px; stroke: rgb(68, 68, 68); stroke-opacity: 1; fill: rgb(174, 158, 128); fill-opacity: 1;"/><text class="node-label" style="cursor: default; font-family: TOBESTRIPPEDOpen SansTOBESTRIPPED, verdana, arial, sans-serif; font-size: 12px; fill: rgb(68, 68, 68); fill-opacity: 1; white-space: pre; text-shadow: rgb(255, 255, 255) 1px 1px 1px, rgb(255, 255, 255) -1px -1px 1px, rgb(255, 255, 255) 1px -1px 1px, rgb(255, 255, 255) -1px 1px 1px;" data-notex="1" x="0" y="0" text-anchor="start" transform="translate(23,23.282659378412472)">Building Crushed Rock</text></g><g class="sankey-node" transform="translate(362.238,597.750)" style="opacity: 1;"><rect class="node-rect" width="20" height="18.425370734364606" style="stroke-width: 0px; stroke: rgb(68, 68, 68); stroke-opacity: 1; fill: rgb(202, 145, 253); fill-opacity: 1;"/><text class="node-label" style="cursor: default; font-family: TOBESTRIPPEDOpen SansTOBESTRIPPED, verdana, arial, sans-serif; font-size: 12px; fill: rgb(68, 68, 68); fill-opacity: 1; white-space: pre; text-shadow: rgb(255, 255, 255) 1px 1px 1px, rgb(255, 255, 255) -1px -1px 1px, rgb(255, 255, 255) 1px -1px 1px, rgb(255, 255, 255) -1px 1px 1px;" data-notex="1" x="0" y="0" text-anchor="start" transform="translate(23,13.412685367182302)">Other Infrastructure</text></g><g class="sankey-node" transform="translate(856.193,164.749)" style="opacity: 1;"><rect class="node-rect" width="20" height="13.305438138622492" style="stroke-width: 0px; stroke: rgb(68, 68, 68); stroke-opacity: 1; fill: rgb(217, 128, 183); fill-opacity: 1;"/><text class="node-label" style="cursor: default; font-family: TOBESTRIPPEDOpen SansTOBESTRIPPED, verdana, arial, sans-serif; font-size: 12px; fill: rgb(68, 68, 68); fill-opacity: 1; white-space: pre; text-shadow: rgb(255, 255, 255) 1px 1px 1px, rgb(255, 255, 255) -1px -1px 1px, rgb(255, 255, 255) 1px -1px 1px, rgb(255, 255, 255) -1px 1px 1px;" data-notex="1" x="0" y="0" text-anchor="start" transform="translate(23,10.852719069311245)">Landfill</text></g><g class="sankey-node" transform="translate(526.889,94.794)" style="opacity: 1;"><rect class="node-rect" width="20" height="15.926609451931029" style="stroke-width: 0px; stroke: rgb(68, 68, 68); stroke-opacity: 1; fill: rgb(217, 128, 183); fill-opacity: 1;"/><text class="node-label" style="cursor: default; font-family: TOBESTRIPPEDOpen SansTOBESTRIPPED, verdana, arial, sans-serif; font-size: 12px; fill: rgb(68, 68, 68); fill-opacity: 1; white-space: pre; text-shadow: rgb(255, 255, 255) 1px 1px 1px, rgb(255, 255, 255) -1px -1px 1px, rgb(255, 255, 255) 1px -1px 1px, rgb(255, 255, 255) -1px 1px 1px;" data-notex="1" x="0" y="0" text-anchor="start" transform="translate(23,12.163304725965514)">Other Waste Processing</text></g><g class="sankey-node" transform="translate(1020.845,281.292)" style="opacity: 1;"><rect class="node-rect" width="20" height="29.884014059345873" style="stroke-width: 0px; stroke: rgb(68, 68, 68); stroke-opacity: 1; fill: rgb(217, 128, 183); fill-opacity: 1;"/><text class="node-label" style="cursor: default; font-family: TOBESTRIPPEDOpen SansTOBESTRIPPED, verdana, arial, sans-serif; font-size: 12px; fill: rgb(68, 68, 68); fill-opacity: 1; white-space: pre; text-shadow: rgb(255, 255, 255) 1px 1px 1px, rgb(255, 255, 255) -1px -1px 1px, rgb(255, 255, 255) 1px -1px 1px, rgb(255, 255, 255) -1px 1px 1px;" data-notex="1" x="0" y="0" text-anchor="end" transform="translate(-3,19.142007029672936)">Processing/Production C&amp;D</text></g><g class="sankey-node" transform="translate(1020.845,13.214)" style="opacity: 1;"><rect class="node-rect" width="20" height="9.938275260341868" style="stroke-width: 0px; stroke: rgb(68, 68, 68); stroke-opacity: 1; fill: rgb(202, 145, 253); fill-opacity: 1;"/><text class="node-label" style="cursor: default; font-family: TOBESTRIPPEDOpen SansTOBESTRIPPED, verdana, arial, sans-serif; font-size: 12px; fill: rgb(68, 68, 68); fill-opacity: 1; white-space: pre; text-shadow: rgb(255, 255, 255) 1px 1px 1px, rgb(255, 255, 255) -1px -1px 1px, rgb(255, 255, 255) 1px -1px 1px, rgb(255, 255, 255) -1px 1px 1px;" data-notex="1" x="0" y="0" text-anchor="end" transform="translate(-3,9.169137630170933)">Use as Fill</text></g><g class="sankey-node" transform="translate(1020.845,64.358)" style="opacity: 1;"><rect class="node-rect" width="20" height="22.837454021131578" style="stroke-width: 0px; stroke: rgb(68, 68, 68); stroke-opacity: 1; fill: rgb(167, 230, 111); fill-opacity: 1;"/><text class="node-label" style="cursor: default; font-family: TOBESTRIPPEDOpen SansTOBESTRIPPED, verdana, arial, sans-serif; font-size: 12px; fill: rgb(68, 68, 68); fill-opacity: 1; white-space: pre; text-shadow: rgb(255, 255, 255) 1px 1px 1px, rgb(255, 255, 255) -1px -1px 1px, rgb(255, 255, 255) 1px -1px 1px, rgb(255, 255, 255) -1px 1px 1px;" data-notex="1" x="0" y="0" text-anchor="end" transform="translate(-3,15.618727010565788)">Stock</text></g></g></g><defs id="topdefs-ba7c00"><g class="clips"/></defs><g class="layer-above"><g class="imagelayer"/><g class="shapelayer"/></g><g class="infolayer"><g class="g-gtitle"><text class="gtitle" style="font-family: TOBESTRIPPEDOpen SansTOBESTRIPPED, verdana, arial, sans-serif; font-size: 17px; fill: rgb(68, 68, 68); opacity: 1; font-weight: normal; white-space: pre;" x="600" y="50" text-anchor="middle" dy="0em">Waste management</text></g><g class="first-render"/></g></svg>