<svg id="svg69002" class="main-svg" width="1682.6" height="804.97" inkscape:version="1.1.2 (0a00cf5339, 2022-02-04)" sodipodi:docname="manufacturing.svg" version="1.1" viewBox="0 0 1682.6 804.97" xmlns="http://www.w3.org/2000/svg" xmlns:inkscape="http://www.inkscape.org/namespaces/inkscape" xmlns:sodipodi="http://sodipodi.sourceforge.net/DTD/sodipodi-0.dtd">
 <path id="0" class="sankey-link" d="m1354.1 5.0298e-7 -813.68 4.8418c-115.96 0-115.96 15.754-231.93 15.754h-50c-86.144 0-96.145 157.54-182.29 157.54v44c86.144 0 96.145-157.54 182.29-157.54v102.13h50c115.96 0 115.96-15.754 231.93-15.754l813.68-4.8418z" style="fill:#ae9e80;stroke-width:0px"/>
 <path id="1" class="sankey-link" d="m258.47 64.596c-85.722 0.5582-95.845 157.53-181.84 157.53l-0.64649-8.9219v29.525c86.144 0 96.791-157.15 182.94-157.15zm450.85 101.73c-200.43 0-200.43 0.40234-400.85 0.40234h-50v18.807h50c200.43 0 200.43-0.40039 400.85-0.40039l10-9.4043z" style="fill:#ae9e80;stroke-width:0px"/>
 <path id="2" class="sankey-link" d="m258.92 85.582c-86.144 0-96.791 157.15-182.94 157.15l0.19336 8.9316c85.991 0 97.214-156.59 182.94-157.15zm-0.45312 99.953v54.717h50c199.49 0 199.49 65.574 398.99 65.574l10-27.359-10-27.357c-199.49 0-199.49-65.574-398.99-65.574z" style="fill:#ae9e80;stroke-width:0px"/>
 <path id="3" class="sankey-link" d="m709.32 185.13c-201.36 0-201.36 80.945-402.71 80.945h-50c-85.213 0-95.213-14.418-180.43-14.418v1.4824c85.213 0 95.213 14.418 180.43 14.418h50c201.36 0 201.36-80.945 402.71-80.945l10-0.74219z" style="fill:#dec580;stroke-width:0px"/>
 <path id="4" class="sankey-link" d="m76.177 253.14v51.408c85.213 0 95.213 14.416 180.43 14.416h50v2e-3c200.43 0 200.43 38.264 400.85 38.264l10-25.705-10-25.703c-200.43 0-200.43-38.264-400.85-38.264v-2e-3h-50c-85.213 0-95.213-14.416-180.43-14.416z" style="fill:#dec580;stroke-width:0px"/>
 <path id="5" class="sankey-link" d="m709.32 186.62c-201.82 0-201.82 144.91-403.65 144.91h-50c-84.747 1e-5 -94.747-26.975-179.49-26.975l2e-3 2.3223c84.747 0 94.747 26.975 179.49 26.975h49.998v2e-3c201.82 0 201.82-144.91 403.65-144.91l10-1.1621z" style="fill:#f2f78a;stroke-width:0px"/>
 <path id="6" class="sankey-link" d="m76.177 306.88v85.418c84.747 0 94.747 26.975 179.49 26.975h50c200.89 0 200.89 23.381 401.78 23.381l10-42.709-10-42.707c-200.89 0-200.89-23.383-401.78-23.383h-50c-84.747 0-94.747-26.975-179.49-26.975z" style="fill:#f2f78a;stroke-width:0px"/>
 <path id="7" class="sankey-link" d="m76.177 392.3v23.809c84.747 0 94.747 26.975 179.49 26.975h50c88.008 0 88.008 339.79 176.02 339.79l10-11.904-10-11.906c-88.008 0-88.008-339.79-176.02-339.79v2e-3h-50c-84.747 0-94.747-26.975-179.49-26.975z" style="fill:#f2f78a;stroke-width:0px"/>
 <path id="8" class="sankey-link" d="m76.178 416.11c84.747 0 84.747 38.147 169.49 38.147l10 45.138-10 45.138c-84.747 0-84.747-38.147-169.49-38.147z" style="fill:#d980b7;stroke-width:0px"/>
 <path id="9" class="sankey-link" d="m76.177 506.38v1.4902c88.008 0 98.009 225.59 186.02 225.59h50c84.747 0 84.745 60.68 169.49 60.68l10-0.74414-10-0.74414c-84.747 0-84.745-60.68-169.49-60.68h-50c-88.008 0-98.009-225.59-186.02-225.59z" style="fill:#a5d7d4;stroke-width:0px"/>
 <path id="10" class="sankey-link" d="m305.67 454.25c201.82 0 201.82-265.31 403.65-265.31l10 3.417-10 3.4171c-201.82 0-201.82 265.31-403.65 265.31z" style="fill:#a5d7d4;stroke-width:0px"/>
 <path id="11" class="sankey-link" d="m305.67 461.09c200.89 0 200.89-18.435 401.78-18.435l10 36.834-10 36.834c-200.89 0-200.89 18.435-401.78 18.435z" style="fill:#a5d7d4;stroke-width:0px"/>
 <path id="12" class="sankey-link" d="m305.67 534.75c88.008 0 88.008 248.12 176.02 248.12l10 4.8873-10 4.8873c-88.008 0-88.008-248.12-176.02-248.12z" style="fill:#a5d7d4;stroke-width:0px"/>
 <path id="13" class="sankey-link" d="m75.246 573.98c316.1 0 316.1-57.665 632.21-57.665l10 22.026-10 22.026c-316.1 0-316.1 57.666-632.21 57.666z" style="fill:#d980b7;stroke-width:0px"/>
 <path id="14" class="sankey-link" d="m76.178 646.03c85.679 0 85.679 0.42455 171.36 0.42455l10 24.866-10 24.866c-85.679 0-85.679-0.42455-171.36-0.42455z" style="fill:#e3a6aa;stroke-width:0px"/>
 <path id="15" class="sankey-link" d="m709.32 195.78c-85.213 0-85.213 425.49-170.43 425.49v2e-3h-50c-85.679 0-95.679 25.191-181.36 25.191v6.1289c85.679 0 95.679-25.191 181.36-25.191h50c85.213 0 85.213-425.49 170.43-425.49l10-3.0644z" style="fill:#ae9e80;stroke-width:0px"/>
 <path id="16" class="sankey-link" d="m707.45 560.37c-84.281 0-84.282 67.027-168.56 67.027h-50c-85.679-1e-5 -95.679 25.191-181.36 25.191v43.604c85.679 0 95.679-25.191 181.36-25.191h50v-2e-3c84.281 0 84.282-67.025 168.56-67.025l10-21.803z" style="fill:#ae9e80;stroke-width:0px"/>
 <path id="17" class="sankey-link" d="m707.45 603.97c-83.815 0-83.816 101.03-167.63 101.03h-50c-86.144-1e-5 -96.145-8.8066-182.29-8.8066v2.9473c86.144 0 96.145 8.8066 182.29 8.8066h50c83.815 0 83.816-101.03 167.63-101.03l10-1.4727z" style="fill:#dec580;stroke-width:0px"/>
 <path id="18" class="sankey-link" d="m769.32 166.33c109.44 0 465-3.938 574.44-3.938l10 31.193-10 31.193c-109.44 0-465 3.938-574.44 3.938z" style="fill:#ae9e80;stroke-width:0px" sodipodi:nodetypes="cccccc"/>
 <path id="19" class="sankey-link" d="m995.4 239.83c-108.97 0-118.97 11.283-227.95 11.283v166.84c108.97 0 118.97-11.283 227.95-11.283h50c148.8 0 159.73 160.08 308.09 160.6v101.34h49.998c7e-4 0 0 0 0 0 101.18-5e-5 101.19-3.498 202.37-3.498l10-134.02-10-134.02c-101.19 0-101.19 3.4961-202.38 3.4961v2e-3h-49.998v83.648-83.648c-149.04 0-159.04-160.73-308.09-160.73z" style="fill:#ae9e80;stroke-width:0px"/>
 <path id="20" class="sankey-link" d="m995.4 406.67c-108.97 0-118.97 11.283-227.95 11.283v1.6016c108.97 0 118.97-11.283 227.95-11.283h50c58.656 0 58.657 375.71 117.31 375.71l10-0.79883-10-0.80078c-58.656 0-58.657-375.72-117.31-375.72z" style="fill:#ae9e80;stroke-width:0px"/>
 <path id="21" class="sankey-link" d="m994.94 416.94c-108.74 0-118.74 2.6152-227.48 2.6152v101.2c108.74 0 118.74-2.6152 227.48-2.6152h50c149.28 0 149.27 150.46 298.55 150.46l10-50.602-10-50.602c-149.28 0-149.27-150.46-298.55-150.46z" style="fill:#d980b7;stroke-width:0px"/>
 <path id="22" class="sankey-link" d="m1343.5 244.7c-147.64 0-147.64 282.95-295.29 282.96-7e-4 0 0 0 0 0h-49.998c-110.37 0-120.37-6.8984-230.74-6.8984l2e-3 33.504c110.37 0 120.37 6.8984 230.74 6.8984h49.996c7e-4 0 0 0 0 0 147.64-3e-3 147.64-282.96 295.29-282.96l10-16.752z" style="fill:#dec580;stroke-width:0px"/>
 <path id="23" class="sankey-link" d="m767.46 554.26v54.779c110.37 0 120.37 6.8984 230.74 6.8984h49.996c147.64 2e-3 157.64 118.45 305.29 118.45h49.998c101.19 0 101.19-14.498 202.38-14.498l10-27.389-10-27.391c-101.19 0-101.19 14.498-202.38 14.498h-49.998c-147.64 0-157.65-118.45-305.29-118.45-6e-4 0 0 0 0 0h-49.998c-110.37 0-120.37-6.8984-230.74-6.8984z" style="fill:#dec580;stroke-width:0px"/>
 <path id="24" class="sankey-link" d="m1343.5 278.2c-147.64 0-147.64 348.33-295.29 348.33h-50c-110.37 0-120.37-17.498-230.74-17.498v95.902c110.37 2.2e-4 120.37 17.498 230.74 17.498h50c147.64 0 147.64-348.33 295.29-348.33l10-47.951z" style="fill:#f2f78a;stroke-width:0px"/>
 <path id="25" class="sankey-link" d="m767.45 704.94v36.389c110.37 0 120.37 17.5 230.74 17.5h50v-2e-3c147.64 1.9e-4 157.64 19.893 305.29 19.893v-37.23c-147.64 0-157.65-19.051-305.29-19.051v2e-3h-49.998c-110.37 0-120.37-17.5-230.74-17.5zm586.03 36.549v38.07h49.998c101.19 0 101.19-21.604 202.38-21.604l10-19.035-10-19.035c-101.19 0-101.19 21.603-202.38 21.604z" style="fill:#f2f78a;stroke-width:0px"/>
 <path id="26" class="sankey-link" d="m541.69 759.06c400.9 0 410.9 19.654 811.8 19.654l5e-4 0.84062c-400.9 0-410.9-18.812-811.8-18.812z" style="fill:#f2f78a;stroke-width:0px" sodipodi:nodetypes="cccccc"/>
 <path id="27" class="sankey-link" d="m541.69 760.75c310.51 0 310.51 23.236 621.03 23.236l10 1.0778-10 1.0777c-310.51 0-310.51-23.236-621.03-23.236z" style="fill:#f2f78a;stroke-width:0px"/>
 <path id="28" class="sankey-link" d="m541.69 762.9c82.883 0 82.883 29.81 165.77 29.81l10 0.71332-10 0.71331c-82.883 0-82.883-29.81-165.77-29.81z" style="fill:#f2f78a;stroke-width:0px"/>
 <path id="29" class="sankey-link" d="m767.45 792.71c419.67 0 419.67-3 839.34-3l10 0.71332-10 0.71331c-419.67 0-419.67 3-839.34 3z" style="fill:#e3a6aa;stroke-width:0px" sodipodi:nodetypes="cccccc"/>
 <path id="30" class="sankey-link" d="m1222.7 782.38c192.04 0 192.04 3.5733 384.08 3.5733l10 1.8783-10 1.8783c-192.04 0-192.04-3.5734-384.08-3.5734z" style="fill:#e3a6aa;stroke-width:0px"/>
 <path id="31" class="sankey-link" d="m1404.1 2.3503e-5 201.79 0.13865 10 73.066-10 73.066-201.79-0.13864z" style="fill:#ae9e80;stroke-width:0px" sodipodi:nodetypes="cccccc"/>
 <path id="32" class="sankey-link" d="m1403.8 162.39c101.05 0 101.05-16.117 202.11-16.117l10 31.193-10 31.193c-101.05 0-101.05 16.117-202.11 16.117z" style="fill:#e3a6aa;stroke-width:0px"/>
 <path id="33" class="sankey-link" d="m1403.5 244.7c101.19 0 101.19-36.041 202.37-36.041l10 64.703-10 64.703c-101.19 0-101.19 36.041-202.37 36.041z" style="fill:#e3a6aa;stroke-width:0px"/>
 <text id="text68797" class="node-label" x="268.02264" y="390.13367">Sand</text>
 <text id="text68803" class="node-label" x="241.01375" y="743.24976">Secondary Aggregates</text>
 <rect id="rect68807" class="node-rect" x="255.67" y="454.25" width="50" height="90.276" style="fill:#d980b7;stroke-width:0px"/>
 <text id="text68809" class="node-label" x="257.3064" y="502.48792">C&amp;D Waste</text>
 <text id="text68815" class="node-label" x="269.46295" y="298.32828">Gravel</text>
 <rect id="rect68825" class="node-rect" x="26.177" y="178.14" width="50" height="329.73" style="fill:#a7e66f;stroke-width:0px"/>
 <text id="text68827" class="node-label" x="8.3397961" y="348.55209">Processing/Production</text>
 <rect id="rect68831" class="node-rect" x="26.178" y="646.03" width="50" height="49.733" style="fill:#a7e66f;stroke-width:0px"/>
 <text id="text68833" class="node-label" x="40.336792" y="672.28979">Trade</text>
 <rect id="rect68837" class="node-rect" x="257.54" y="646.46" width="50" height="52.679" style="fill:#c48d98;stroke-width:0px"/>
 <text id="text68839" class="node-label" x="264.20013" y="676.86707">Land Won</text>
 <text id="text68845" class="node-label" x="504.64355" y="710.8075">Gravel</text>
 <rect id="rect68855" class="node-rect" x="25.246" y="573.98" width="50" height="44.051" style="fill:#d980b7;stroke-width:0px"/>
 <text id="text68857" class="node-label" x="30.322205" y="598.70197">Demolition</text>
 <rect id="rect68861" class="node-rect" x="717.45" y="251.11" width="50" height="490.22" style="fill:#ca91fd;stroke-width:0px"/>
 <text id="text68863" class="node-label" x="690.98755" y="498.54443">Concreting Manufacturing</text>
 <rect id="rect68867" class="node-rect" x="719.32" y="166.33" width="50" height="62.385" style="fill:#ca91fd;stroke-width:0px"/>

  <text id="text68869" class="node-label" x="699.82349" y="199.84625">Asphalt Manufacturing</text>
  <text id="text68875" class="node-label" x="921.26697" y="690.13409">Sand</text>
  <text id="text68881" class="node-label" x="924.10138" y="564.85651">Gravel</text>
  <text id="text68887" class="node-label" x="967.2326" y="338.77237">Crushed Rock</text>
  <text id="text68893" class="node-label" x="964.36011" y="467.18213">C&amp;D Waste</text>

 <rect id="rect68903" class="node-rect" x="491.69" y="759.06" width="50" height="35.074" style="fill:#f2f78a;stroke-width:0px"/>
 <text id="text68905" class="node-label" x="480.99847" y="778.77802">Mortar Manufacturing</text>
 <rect id="rect68909" class="node-rect" x="717.45" y="792.71" width="50" height="1.4266" style="fill:#d980b7;stroke-width:0px"/>
 <text id="text68911" class="node-label" x="728.60974" y="804.8797">Landfill</text>
 <text id="text68923" class="node-label" x="1075.4659" y="193.15987">Crushed Rock</text>
 <rect id="rect68927" class="node-rect" x="1353.8" y="162.39" width="50" height="62.385" style="fill:#ca91fd;stroke-width:0px"/>
 <text id="text68929" class="node-label" x="1367.9161" y="196.79814">Road</text>
 <rect id="rect68933" class="node-rect" x="1354.1" y="2.3516e-5" width="50" height="146.13" style="fill:#ca91fd;stroke-width:0px"/>
 <text id="text68935" class="node-label" x="1348.2213" y="75.393288">Railway Ballast</text>
 <rect id="rect68939" class="node-rect" x="1353.5" y="244.7" width="50" height="129.41" style="fill:#ca91fd;stroke-width:0px"/>
 <text id="text68941" class="node-label" x="1339.4592" y="312.61731">Other Infrastructure</text>
 <rect id="rect68963" class="node-rect" x="1616.8" y="785.96" width="50" height="5.1832" style="fill:#a7e66f;stroke-width:0px"/>
 <text id="text68965" class="node-label" x="1682.6199" y="799.92834" text-anchor="end">Waste Management</text>
 <rect id="rect68969" class="node-rect" x="1615.9" y=".13867" width="50" height="337.92" style="fill:#ca91fd;stroke-width:0px"/>
 <text id="text68971" class="node-label" x="1614.1346" y="172.31294">Infrastructure</text>
 <rect id="rect68975" class="node-rect" x="1615.9" y="397.06" width="50" height="360.89" style="fill:#ca91fd;stroke-width:0px"/>
 <text id="text68977" class="node-label" x="1622.392" y="579.83612">Buildings</text>
 <rect id="rect104326" class="node-rect" x="1172.7" y="782.38" width="50" height="3.7566" style="fill:#a2e39b;stroke-width:0px"/>
 <text id="text104328" class="node-label" x="1164.8994" y="786.98187" style="fill:#444444;font-family:'Liberation Sans';font-size:12px;white-space:pre">Reprocessing</text>
 <text id="text68851" class="node-label" x="491.02997" y="648.93964">Crushed Rock</text>
</svg>
