<svg id="svg34428" class="main-svg" width="1056.2" height="389.01" inkscape:version="1.1.2 (0a00cf5339, 2022-02-04)" sodipodi:docname="processing-production.svg" version="1.1" viewBox="0 0 1056.2 389.01" xmlns="http://www.w3.org/2000/svg" xmlns:inkscape="http://www.inkscape.org/namespaces/inkscape" xmlns:sodipodi="http://sodipodi.sourceforge.net/DTD/sodipodi-0.dtd">
 <sodipodi:namedview id="namedview34192" bordercolor="#666666" borderopacity="1.0" fit-margin-bottom="0" fit-margin-left="0" fit-margin-right="0" fit-margin-top="0" inkscape:current-layer="svg34428" inkscape:cx="673.57297" inkscape:cy="180.59565" inkscape:lockguides="false" inkscape:pagecheckerboard="0" inkscape:pageopacity="0.0" inkscape:pageshadow="2" inkscape:window-height="1051" inkscape:window-maximized="1" inkscape:window-width="1920" inkscape:window-x="0" inkscape:window-y="29" inkscape:zoom="1.8438982" pagecolor="#ffffff" showgrid="false"/>
 <path id="path34228-8-7-6-6" class="sankey-link" d="m468.22 116.06v1.5c65.704 1e-3 76.706 13.203 142.41 13.203l2e-3 6e-3h47.998v-0.0117c161.42 5.4e-4 161.42 64.461 322.85 64.461l10-0.75-10-0.75c-161.42 0-161.42-64.461-322.85-64.461v0.0117h-49.998v-0.0195c-63.91-0.26935-75.395-13.188-140.41-13.19z" style="fill:#dec580"/>
 <path id="path34228-8-8-2" class="sankey-link" d="m468.21 112.2v3.8652c65.711 2.8e-4 76.711 13.203 142.42 13.203l2e-3 6e-3h47.998v-6e-3c161.42 1.9e-4 161.42 22.357 322.85 22.357l10-1.9336-10-1.9316c-161.42 0-161.42-22.357-322.85-22.357v6e-3h-47.996l-2e-3 -6e-3c-65.707 0-76.707-13.203-142.42-13.203z" style="fill:#dec580"/>
 <path id="path34230-3-4-8" class="sankey-link" d="m608.63 66.192v0.0098h50v-0.0098zm0 20.543c-64.971 0-76.644 3.7381-140.42 3.8223v2e-3c63.776-0.0842 75.449-3.8223 140.42-3.8223h50v-2e-3zm50 5.1562v2e-3h-50c-64.971 0-76.644 3.7381-140.42 3.8223v2.7188c63.776-0.0842 75.449-3.8223 140.42-3.8223h50v-0.0059c161.42 0 161.42 175.12 322.85 175.12l10-1.3594-10-1.3574c-161.42 0-161.42-175.12-322.85-175.12z" style="fill:#ae9e80"/>
 <path id="path34230-6-0-4" class="sankey-link" d="m608.63 74.1c-65.708 0-76.707 3.8379-142.42 3.8379v12.633c65.713 0 76.712-3.8379 142.42-3.8379h50v2e-3c161.42 0 161.42 61.018 322.85 61.018l10-6.3164-10-6.3184c-161.42 0-161.42-61.018-322.85-61.018z" style="fill:#ae9e80"/>
 <path id="0" class="sankey-link" d="m981.48 8.266c-352.85 0-352.85 4.6543-705.7 4.6543h-48c-65.708 0-76.707 9.3008-142.42 9.3008v5.9707c65.713 0 76.712-9.3008 142.42-9.3008h50v-0.0039c350.6-0.01979 351.6-4.6504 703.7-4.6504l10-2.9863z" style="fill:#ae9e80"/>
 <path id="1" class="sankey-link" d="m227.78 18.891c-65.708 0-76.707 9.3008-142.42 9.3008v10.049c63.315-1.1669 78.696-10.529 148.83-10.529h41.584c257.14 0 268.14 241 525.28 241l0.63867-3.9355-0.58398-5.3359c-256.46 0-268.16-239.26-523.33-240.52v-0.0293h-2z" style="fill:#ae9e80"/>
 <path id="2" class="sankey-link" d="m233.19 27.717c-70.134 0-84.515 9.3566-147.83 10.523l-0.0058 74.452c65.708 0 75.713-9.3021 141.43-9.3021h49.193c65.518 0.0855 65.59 42.314 131.24 42.314l10-37.832-10-37.834c-65.373 0-65.741-41.861-130.43-42.299v-0.02344z" style="fill:#ae9e80" sodipodi:nodetypes="sccsccccccs"/>
 <path id="path34194" class="sankey-link" d="m84.359 274.63c161.43 0 161.43-62.252 322.85-62.252l10 2.3274-10 2.3274c-161.43 0-161.43 62.252-322.85 62.252z" style="fill:#a5d7d4"/>
 <path id="path34196" class="sankey-link" d="m84.359 308.19c161.43 0 161.43-91.152 322.85-91.152l10 0.2685-10 0.26849c-161.43 0-161.43 91.152-322.85 91.152z" style="fill:#f2f78a"/>
 <path id="path34198" class="sankey-link" d="m84.359 334.97c161.43 0 161.43-117.4 322.85-117.4l10 3.1032-10 3.1032c-161.43 0-161.43 117.4-322.85 117.4z" style="fill:#a5d7d4"/>
 <path id="path34200" class="sankey-link" d="m84.359 201.46c161.43 0 161.43-19.383 322.85-19.383l10 15.152-10 15.152c-161.43 0-161.43 19.383-322.85 19.383z" style="fill:#a5d7d4"/>
 <path id="path34202" class="sankey-link" d="m275.78 147.11c65.713 0 65.713 20.28 131.43 20.28l10 7.343-10 7.343c-65.713 0-65.713-20.28-131.43-20.28z" style="fill:#f2f78a"/>
 <path id="path34204" class="sankey-link" d="m83.359 114.18v21.688c65.713 0 76.712 1.8691 142.42 1.8691v2e-3h50v-6e-3c65.717 0 65.717 29.658 131.43 29.658l10-10.842-10-10.842c-65.717 0-65.717-29.658-131.43-29.658v2e-3h-50v-2e-3c-65.708 0-76.707-1.8691-142.42-1.8691z" style="fill:#dec580"/>
 <path id="path34208" class="sankey-link" d="m275.78 146.07c352.85 0 352.85-130.34 705.7-130.34l10 0.52125-10 0.52126c-352.85 0-352.85 130.34-705.7 130.34z" style="fill:#f2f78a"/>
 <path id="path34210" class="sankey-link" d="m981.48 14.241c-352.85 0-352.85 100.32-705.7 100.32v-2e-3h-50v-2e-3c-65.708 0-76.707-1.8692-142.42-1.8691v1.4922c65.713 0 76.712 1.8691 142.42 1.8691v2e-3h50v2e-3c352.85 0 352.85-100.32 705.7-100.32l10-0.74609z" style="fill:#dec580"/>
 <path id="path34214" class="sankey-link" d="m275.78 161.8c257.14 0 268.42 127.18 525.56 127.18l-0.28043 0.9629c-257.14 0-268.14-126.9-525.28-126.9z" style="fill:#f2f78a" sodipodi:nodetypes="cccccc"/>
 <path id="path34216" class="sankey-link" d="m83.359 135.86v1.834c65.708 0 76.707 1.8691 142.42 1.8691h50c257.14 0 268.14 141.27 525.28 141.27l0.31446-1.7539c-257.14 0-268.45-141.35-525.59-141.35v4e-3h-50v-2e-3c-65.708 0-76.707-1.8691-142.42-1.8691z" style="fill:#dec580"/>
 <path id="path34220-9" class="sankey-link" d="m83.359 152.9v1.7734c65.708 0 76.707 8.3633 142.42 8.3633v6e-3h50v-1.7715h-49.998l-2e-3 -6e-3c-65.708 0-76.707-8.3652-142.42-8.3652z" style="fill:#f2f78a" sodipodi:nodetypes="ccccccccc"/>
 <path id="path34220-8-9" class="sankey-link" d="m83.359 138.74v14.162c65.713 0 76.712 8.3652 142.42 8.3652l2e-3 6e-3h49.998v-14.162h-49.998l-2e-3 -6e-3c-65.708 0-76.707-8.3652-142.42-8.3652zm192.42 6.8047v0.52344h2e-3v-0.52344z" style="fill:#f2f78a"/>
 <path id="path34220-6-9" class="sankey-link" d="m83.359 137.7v1.043c65.713 1e-5 76.712 8.3652 142.42 8.3652l2e-3 6e-3h49.998v-1.043h-49.998l-2e-3 -6e-3c-65.708 0-76.707-8.3652-142.42-8.3652z" style="fill:#f2f78a"/>
 <path id="path34230-3-41" class="sankey-link" d="m608.63 86.735c-64.971 0-76.644 3.7381-140.42 3.8223v5.1562c63.776-0.0842 75.449-3.8223 140.42-3.8223h50v2e-3c161.42 0 161.42 101.83 322.85 101.83l10-2.5762-10-2.5762c-161.42 0-161.42-101.83-322.85-101.83v-0.0059z" style="fill:#ae9e80" sodipodi:nodetypes="sccscccccccs"/>
 <path id="path34228-8-6" class="sankey-link" d="m981.48 73.504c-161.42 0-161.42 44.477-322.85 44.477h-47.998l-2e-3 -6e-3c-65.708 0-76.707-13.203-142.42-13.203v7.4199c65.713 0 76.712 13.203 142.42 13.203l2e-3 6e-3h47.998v2e-3c161.42 0 161.42-44.477 322.85-44.477l10-3.7109z" style="fill:#dec580"/>
 <path id="path34230-3-1-3" class="sankey-link" d="m608.62 98.258c-64.967 0-76.644 3.7377-140.41 3.8223v2.6914c65.702-2.5e-4 76.703-3.8379 142.41-3.8379v-2e-3c17.667-0.0433 35.606 0.01 53.01 0.01 7.0654 1e-5 12.793 5.7276 12.793 12.793v255.41c-2e-5 7.0654-5.7276 12.793-12.793 12.793h-644.28c-7.0654-3e-5 -12.793-5.7276-12.793-12.793v-17.963c1.7e-5 -7.0654 5.7276-12.793 12.793-12.793h5l10-1.3398-10-1.3379h-5c-8.5442 1.6e-4 -15.471 6.9265-15.471 15.471v17.963c1.66e-4 8.5442 6.9265 15.471 15.471 15.471h644.28c8.5442-1.6e-4 15.471-6.9265 15.471-15.471v-255.41c-1.7e-4 -8.5442-6.9265-15.471-15.471-15.471-18.179 0.049-36.681-0.0059-55.014-0.0059z" style="fill:#ae9e80" sodipodi:nodetypes="ccccccccccssscccccccccccc"/>
 <path id="path34230-3-7-6" class="sankey-link" d="m658.62 66.209v20.525h-50c-6.8755 0-12.855 0.0615-18.658 0.13672 5.7994-0.0748 11.793-0.13477 18.658-0.13477h50v3.6446h6e-3v-20.525h4e-3v-3.6465zm0 24.174v4.2285h-50c-64.967 0-76.644 3.7377-140.41 3.8223v6.3477h6e-3v-2.7012c63.767-0.0846 75.443-3.8223 140.41-3.8223h50v-7.875zm-189.61 0.16602c-0.28816 5.4e-4 -0.54226 0.0029-0.80274 0.0059v0.0039c0.29327-1e-3 0.5098-0.0088 0.80274-0.0098zm189.62 4.0605 6e-3 3.6484c65.712-1e-6 76.766 161.19 142.48 161.19l-0.0547-3.207c-65.717 0-76.717-161.63-142.43-161.63z" style="fill:#ae9e80"/>
 <path id="path34232" class="sankey-link" d="m467.21 173c65.713 0 76.703 189.56 142.42 189.56v1.163c-65.713 0-76.703-189.56-142.42-189.56z" style="fill:#a5d7d4" sodipodi:nodetypes="cccccc"/>
 <path id="path34234" class="sankey-link" d="m468.21 147.12c65.713 0 70.059 45.433 135.77 45.433l4.5929 13.003-4.6371 12.286c-65.713 0-70.014-44.843-135.73-44.843z" style="fill:#a5d7d4" sodipodi:nodetypes="cccccc"/>
 <path id="path34236" class="sankey-link" d="m981.48 80.926c-161.42 0-161.42 70.844-322.85 70.844h-47.998l-2e-3 -6e-3c-65.708 0-76.707-28.303-142.42-28.303v12.332c65.713 0 76.712 28.303 142.42 28.303l2e-3 8e-3h47.998c161.42 0 161.42-70.844 322.85-70.844l10-6.168z" style="fill:#f2f78a"/>
 <path id="path34238" class="sankey-link" d="m658.63 192.4c161.43 0 161.43-99.143 322.85-99.143l10 5.3182-10 5.3182c-161.43 0-161.43 99.143-322.85 99.143z" style="fill:#a5d7d4"/>
 <path id="path34242" class="sankey-link" d="m981.48 65.596c-161.42 0-161.42 0.60352-322.85 0.60352h-50c-65.708 0-74.707 3.8398-140.42 3.8398l-6e-3 7.9219c65.713 0 74.718-3.8613 140.43-3.8613h50c161.42 0 161.42-0.60352 322.85-0.60352l10-3.9492z" style="fill:#ae9e80"/>
 <path id="path34244" class="sankey-link" d="m468.21 138.72v0.34375c65.713 0 76.712 28.303 142.42 28.303l2e-3 6e-3h47.998v-4e-3c161.42 0 161.42 102.91 322.85 102.91l10-0.16797-10-0.16797c-161.42 0-161.42-102.91-322.85-102.91v-2e-3h-50v-0.0332c-63.913-0.57708-75.396-28.277-140.42-28.277z" style="fill:#f2f78a"/>
 <path id="path34246" class="sankey-link" d="m658.63 212.42c161.43 0 161.43 57.848 322.85 57.848l10 0.49337-10 0.49337c-161.43 0-161.43-57.848-322.85-57.848z" style="fill:#a5d7d4"/>
 <path id="path34248" class="sankey-link" d="m468.22 117.56v0.2207c65.704 1e-3 76.706 13.203 142.41 13.203l2e-3 6e-3h47.998v-0.0176c161.42 1e-3 161.42 138.96 322.85 138.96l10-0.10742-10-0.10547c-161.42 0-161.42-138.96-322.85-138.96v0.0117h-49.998v-0.0195c-63.91-0.2693-75.395-13.188-140.41-13.19z" style="fill:#dec580"/>
 <path id="path34252" class="sankey-link" d="m468.22 139.06v3.4336c65.704 3e-3 76.706 28.303 142.41 28.303l2e-3 6e-3h47.998v-4e-3c161.42 0 161.42 195.22 322.85 195.22l10-1.7188-10-1.7188c-161.42 0-161.42-195.22-322.85-195.22v0.01h-50v-0.0332c-63.91-0.57705-75.395-28.274-140.41-28.277z" style="fill:#f2f78a"/>
 <path id="path34254" class="sankey-link" d="m658.63 363.21c161.43 0 161.43 4.2165 322.85 4.2165l10 0.10749-10 0.10749c-161.43 0-161.43-4.2165-322.85-4.2165z" style="fill:#a5d7d4"/>
 <path id="path34256" class="sankey-link" d="m658.63 213.41c161.43 0 161.43 152.61 322.85 152.61l10 0.70565-10 0.70564c-161.43 0-161.43-152.61-322.85-152.61z" style="fill:#a5d7d4"/>
 <path id="path34258" class="sankey-link" d="m468.21 135.79v2.2422c65.713 0 76.712 28.303 142.42 28.303l2e-3 6e-3h47.998c161.42 0 161.42-12.479 322.85-12.479l10-1.1211-10-1.123c-161.42 0-161.42 12.479-322.85 12.479v4e-3h-50v-0.0332c-63.913-0.57708-75.396-28.277-140.42-28.277z" style="fill:#f2f78a"/>
 <path id="path34264" class="sankey-link" d="m658.63 362.56c161.43 0 161.43-201.88 322.85-201.88l10 0.32607-10 0.32606c-161.43 0-161.43 201.88-322.85 201.88z" style="fill:#a5d7d4"/>
 <path id="path34266" class="sankey-link" d="m658.63 203.03c161.43 0 161.43-49.17 322.85-49.17l10 3.4055-10 3.4054c-161.43 0-161.43 49.17-322.85 49.17z" style="fill:#a5d7d4"/>
 <path id="path34268" class="sankey-link" d="m468.21 138.03v0.68554c65.713 0 76.712 28.303 142.42 28.303l2e-3 6e-3h47.998v-4e-3c161.42 0 161.42 28.883 322.85 28.883l10-0.34179-10-0.3418c-161.42 0-161.42-28.883-322.85-28.883v4e-3h-50v-0.0332c-63.913-0.57708-75.396-28.277-140.42-28.277z" style="fill:#f2f78a"/>
 <path id="path34274" class="sankey-link" d="m658.63 209.84c161.43 0 161.43-13.938 322.85-13.938l10 1.2885-10 1.2885c-161.43 0-161.43 13.938-322.85 13.938z" style="fill:#a5d7d4"/>
 <path id="path34276" class="sankey-link" d="m468.21 142.49v1.791c65.713 0 76.712 28.303 142.42 28.303l2e-3 6e-3h47.998v-1.7891h-50v-0.0332c-63.913-0.57708-75.396-28.277-140.42-28.277zm190.42 28.311v1.7891c65.708 0 76.816 115.29 142.53 115.29l0.35742-0.89844-0.45703-1.0078c-65.717 0-76.717-115.17-142.43-115.17z" style="fill:#f2f78a" sodipodi:nodetypes="ccccccccccccccc"/>
 <path id="path34278" class="sankey-link" d="m468.22 117.78v3.0117c65.708 8.3e-4 76.708 13.203 142.41 13.203l2e-3 6e-3h47.998v-0.0117c65.71 6e-3 76.775 143.61 142.49 143.61l0.30664-1.4082-0.36914-1.4726c-65.717 0-76.717-143.74-142.43-143.74v0.0117h-49.998v-0.0195c-63.91-0.26934-75.395-13.188-140.41-13.19z" style="fill:#dec580"/>
 <path id="path34280" class="sankey-link" d="m658.63 216.09c65.713 0 76.812 71.79 142.52 71.79l0.18103 1.0951c-65.713 0-76.993-71.953-142.71-71.953z" style="fill:#a5d7d4" sodipodi:nodetypes="cccccc"/>
 <path id="path34282" class="sankey-link" d="m658.63 214.82c65.713 0 76.776 62.779 142.49 62.779l0.0385 0.77967-0.0974 0.69928c-65.713 0-76.717-62.99-142.43-62.99z" style="fill:#a5d7d4" sodipodi:nodetypes="cccccc"/>
 <path id="path34286" class="sankey-link" d="m850.06 285.97c65.713 0 65.713-53.099 131.43-53.099l10 1.3614-10 1.3614c-65.713 0-65.713 53.099-131.43 53.099z" style="fill:#f2f78a"/>
 <path id="path34288" class="sankey-link" d="m850.06 274.72c65.713 0 65.713-46.125 131.43-46.125l10 2.1403-10 2.1403c-65.713 0-65.713 46.125-131.43 46.125z" style="fill:#dec580"/>
 <path id="path34290" class="sankey-link" d="m850.06 256.24c65.713 0 65.713-31.297 131.43-31.297l10 1.8255-10 1.8255c-65.713 0-65.713 31.297-131.43 31.297z" style="fill:#ae9e80"/>
 <path id="path34292" class="sankey-link" d="m468.22 146.76-0.01 0.35742c65.024 0 76.507 27.7 140.42 28.277v0.0332h50l5.0098 4e-3c6.38 3e-3 11.553 5.1727 11.553 11.553v182.16c0 6.38-5.1728 11.553-11.553 11.553h-644.28c-6.38 0-11.553-5.1728-11.553-11.553v-17.963c0-6.38 5.1727-11.551 11.553-11.551h5l10-0.17969-10-0.17968h-5c-6.5779 0-11.912 5.3323-11.912 11.91v17.963c0 6.5783 5.3338 11.912 11.912 11.912h644.28c6.5783 0 11.912-5.3338 11.912-11.912v-182.16c0-6.5783-5.3338-11.91-11.912-11.91l-5.0098-2e-3h-49.99v-0.0332c-63.913-0.57704-75.396-28.277-140.42-28.277z" style="fill:#f2f78a"/>
 <path id="path34294" class="sankey-link" d="m468.22 122.59v0.88281c65.024 0 76.507 12.92 140.42 13.189v0.0195h50l4.998-0.0137c6.5782-0.0182 11.912 5.3319 11.912 11.91v220.57c0 6.5783-5.3338 11.91-11.912 11.91h-644.28c-6.5783 0-11.912-5.3319-11.912-11.91v-17.963c5.523e-4 -6.5779 5.3342-11.91 11.912-11.91h5l10-0.4414-10-0.44141h-5c-7.0654 0-12.793 5.7276-12.793 12.793v17.963c0 7.0654 5.7276 12.793 12.793 12.793h644.28c7.0654 0 12.793-5.7276 12.793-12.793v-220.57c0-7.0654-5.7276-12.793-12.793-12.793l-5.0078 0.0137h-50v-0.0195c-63.91-0.26924-75.395-13.188-140.41-13.19z" style="fill:#dec580"/>
 <path id="path34298" class="sankey-link" d="m24.359 340.88h-5a10.296 10.296 0 0 0-10.296 10.296v27.541a10.296 10.296 0 0 0 10.296 10.296h644.28a10.296 10.296 0 0 0 10.296-10.296v-5a10.296 10.296 0 0 0-10.296-10.296h-5v0.29593h5a10 10 0 0 1 10 10v5a10 10 0 0 1-10 10h-644.28a10 10 0 0 1-10-10v-27.541a10 10 0 0 1 10-10h5l10-0.14796z" style="fill:#a5d7d4"/>
 <path id="path34300" class="sankey-link" d="m24.359 339.63h-5a11.552 11.552 0 0 0-11.552 11.552v17.963a11.552 11.552 0 0 0 11.552 11.552h644.28a11.552 11.552 0 0 0 11.552-11.552v-140.57a11.552 11.552 0 0 0-11.552-11.552h-5v1.2557h5a10.296 10.296 0 0 1 10.296 10.296v140.57a10.296 10.296 0 0 1-10.296 10.296h-644.28a10.296 10.296 0 0 1-10.296-10.296v-17.963a10.296 10.296 0 0 1 10.296-10.296h5l10-0.62784z" style="fill:#a5d7d4"/>
 <path id="path34302" class="sankey-link" d="m468.21 144.28v1.2422c65.713 0 76.712 28.303 142.42 28.303l2e-3 6e-3h47.998v-2e-3c65.717 0 65.717 152.17 131.43 152.17l10-0.61914-10-0.61914c-65.717 0-65.717-152.17-131.43-152.17h-50v-0.0332c-63.913-0.57708-75.396-28.277-140.42-28.277z" style="fill:#f2f78a"/>
 <path id="path34304" class="sankey-link" d="m468.22 120.8v1.793c65.713 0 76.712 13.203 142.42 13.203l2e-3 6e-3h47.998c65.705 0.0228 65.709 188.97 131.42 188.97l10-0.89649-10-0.89648c-65.717 0-65.711-188.97-131.42-188.97l-50.004 1.7e-4v-0.0195c-63.91-0.26938-75.395-13.188-140.41-13.19z" style="fill:#dec580" sodipodi:nodetypes="cccccccccccccc"/>
 <path id="path34306" class="sankey-link" d="m468.21 145.52v1.2422c65.713 0 76.712 28.303 142.42 28.303l2e-3 6e-3h47.998v-2e-3c65.717 0 65.717 162.28 131.43 162.28l10-0.61914-10-0.61914c-65.717 0-65.717-162.28-131.43-162.28h-50v-0.0332c-63.913-0.57708-75.396-28.277-140.42-28.277z" style="fill:#f2f78a"/>
 <path id="path34308" class="sankey-link" d="m850.06 322.97c65.713 0 65.713 5.4661 131.43 5.4661l10 1.5156-10 1.5156c-65.713 0-65.713-5.4661-131.43-5.4661z" style="fill:#e3a6aa"/>
 <path id="path34310" class="sankey-link" d="m850.06 336.11c65.713 0 65.713-4.64 131.43-4.64l10 0.61929-10 0.6193c-65.713 0-65.713 4.64-131.43 4.64z" style="fill:#e3a6aa"/>
 <rect id="rect34312" class="node-rect" x="35.359" y="274.63" width="50" height="4.6548" style="fill:#a5d7d4"/>
 <text id="text34314" class="node-label" x="-0.40869141" y="280.06335" style="font-family:'Liberation Sans';font-size:9px">Secondary Aggregates</text>
 <rect id="rect34316" class="node-rect" x="35.359" y="308.19" width="50" height=".53699" style="fill:#c5e9df"/>
 <text id="text34322" class="node-label" x="60.288574" y="304.05942"><tspan id="tspan34318" x="60.288574" y="304.05942" style="font-family:'Liberation Sans';font-size:9px;text-align:center;text-anchor:middle" sodipodi:role="line">Marine Dredged</tspan><tspan id="tspan34320" x="60.288574" y="319.05942" style="font-family:'Liberation Sans';font-size:9px;text-align:center;text-anchor:middle">Outside English Waters</tspan></text>
 <rect id="rect34324" class="node-rect" x="35.359" y="334.97" width="50" height="6.2065" style="fill:#d980b7"/>
 <text id="text34326" class="node-label" x="6.2680664" y="341.17816" style="font-family:'Liberation Sans';font-size:9px">Scalpings and Fines</text>
 <rect id="rect34328" class="node-rect" x="35.359" y="201.46" width="50" height="30.304" style="fill:#d980b7"/>
 <text id="text34330" class="node-label" x="31.908684" y="220.90132" style="font-family:'Liberation Sans';font-size:9px">Demolition</text>
 <text id="text34334" class="node-label" x="208.57057" y="157.92307" style="font-family:'Liberation Sans';font-size:9px">Sand</text>
 <text id="text34338" class="node-label" x="204.06354" y="131.05695" style="font-family:'Liberation Sans';font-size:9px">Gravel</text>
 <text id="text34342" class="node-label" x="190.16293" y="66.066597" style="font-family:'Liberation Sans';font-size:9px">Crushed Rock</text>
 <rect id="rect34344" class="node-rect" x="35.359" y="22.221" width="50" height="132.99" style="fill:#a7e66f"/>
 <text id="text34346" class="node-label" x="34.456894" y="93.502838" style="font-family:'Liberation Sans';font-size:9px">Extraction</text>
 <rect id="rect34348" class="node-rect" x="418.21" y="70.04" width="50" height="153.74" style="fill:#a7e66f"/>
 <text id="text34350" class="node-label" x="442.83981" y="143.6123" style="font-family:'Liberation Sans';font-size:9px"><tspan id="tspan41438" x="442.83981" y="143.6123" style="text-align:center;text-anchor:middle" sodipodi:role="line">Processing /</tspan><tspan id="tspan41440" x="442.83981" y="154.8623" style="text-align:center;text-anchor:middle" sodipodi:role="line">production</tspan></text>
 <text id="text34354" class="node-label" x="589.87408" y="163.42035" style="font-family:'Liberation Sans';font-size:9px">Sand</text>
 <rect id="rect34356" class="node-rect" x="609.63" y="362.56" width="50" height="1.163" style="fill:#a5d7d4"/>
 <text id="text34358" class="node-label" x="541.07141" y="355.58255" style="font-family:'Liberation Sans';font-size:9px">Secondary Aggregates</text>
 <path id="path34360" class="node-rect" d="m608.63 192.4h50v25.878h-50z" style="fill:#d980b7"/>
 <text id="text34362" class="node-label" x="612.43738" y="208.65866" style="font-family:'Liberation Sans';font-size:9px">C&amp;D Waste</text>
 <text id="text34366" class="node-label" x="588.99615" y="130.98013" style="font-family:'Liberation Sans';font-size:9px">Gravel</text>
 <text id="text34370" class="node-label" x="571.55591" y="85.839005" style="font-family:'Liberation Sans';font-size:9px">Crushed Rock</text>
 <rect id="rect34372" class="node-rect" x="801.06" y="285.97" width="50" height="3.964" style="fill:#f2f78a"/>
 <text id="text34374" class="node-label" x="810.37714" y="291.02887" style="font-family:'Liberation Sans';font-size:9px">Sand</text>
 <rect id="rect34376" class="node-rect" x="801.06" y="274.72" width="50" height="6.1219" style="fill:#dec580"/>
 <text id="text34378" class="node-label" x="808.09631" y="280.8288" style="font-family:'Liberation Sans';font-size:9px">Gravel</text>
 <rect id="rect34380" class="node-rect" x="801.06" y="256.24" width="50" height="12.479" style="fill:#ae9e80"/>
 <text id="text34382" class="node-label" x="798.495" y="265.45041" style="font-family:'Liberation Sans';font-size:9px">Crushed Rock</text>
 <rect id="rect34384" class="node-rect" x="801.06" y="322.97" width="50" height="3.0313" style="fill:#c48d98"/>
 <text id="text34386" class="node-label" x="846.15411" y="326.94952" style="font-family:'Liberation Sans';font-size:9px">Land Won</text>
 <rect id="rect34388" class="node-rect" x="801.06" y="336.11" width="50" height="1.2386" style="fill:#c5e9df"/>
 <text id="text34390" class="node-label" x="837.67047" y="338.88782" style="font-family:'Liberation Sans';font-size:9px">Marine Dredged</text>
 <rect id="rect34392" class="node-rect" x="992.47" y="65.6" width="50" height="38.292" style="fill:#ca91fd"/>
 <text id="text34394" class="node-label" x="1017.4601" y="82.573311" text-anchor="end" style="font-family:'Liberation Sans';font-size:9px;line-height:1"><tspan id="tspan46700" x="1017.4601" y="82.573311" style="text-align:center;text-anchor:middle" sodipodi:role="line">Concreting</tspan><tspan id="tspan46702" x="1017.4601" y="91.573311" style="text-align:center;text-anchor:middle" sodipodi:role="line">manufacturing</tspan></text>
 <rect id="rect34396" class="node-rect" x="992.47" y="267.01" width="50" height="4.2519" style="fill:#ca91fd"/>
 <text id="text34398" class="node-label" x="1017.4601" y="266.96326" text-anchor="end" style="font-family:'Liberation Sans';font-size:9px;line-height:1"><tspan id="tspan49350" x="1017.4601" y="266.96326" style="text-align:center;text-anchor:middle" sodipodi:role="line">Asphalt</tspan><tspan id="tspan49352" x="1017.4601" y="275.96326" style="text-align:center;text-anchor:middle" sodipodi:role="line">manufacturing</tspan></text>
 <rect id="rect34400" class="node-rect" x="992.47" y="362.58" width="50" height="5.0641" style="fill:#f2f78a"/>
 <text id="text34402" class="node-label" x="1017.4601" y="363.22455" text-anchor="end" style="font-family:'Liberation Sans';font-size:9px;line-height:0.9"><tspan id="tspan52084" x="1017.4601" y="363.22455" style="text-align:center;text-anchor:middle" sodipodi:role="line">Mortar</tspan><tspan id="tspan52086" x="1017.4601" y="371.32455" style="text-align:center;text-anchor:middle" sodipodi:role="line">manufacturing</tspan></text>
 <rect id="rect34404" class="node-rect" x="992.47" y="135.12" width="50" height="26.206" style="fill:#ca91fd"/>
 <text id="text34406" class="node-label" x="1047.6792" y="150.38551" text-anchor="end" style="font-family:'Liberation Sans';font-size:9px">Aggregate Use</text>
 <rect id="rect34408" class="node-rect" x="992.47" y="188.57" width="50" height="9.9123" style="fill:#ca91fd"/>
 <text id="text34410" class="node-label" x="1056.5737" y="195.68867" text-anchor="end" style="font-family:'Liberation Sans';font-size:9px">Non-aggregate Use</text>
 <rect id="rect34412" class="node-rect" x="992.47" y="224.94" width="50" height="10.654" style="fill:#ca91fd"/>
 <text id="text34414" class="node-label" x="1038.4265" y="233.48421" text-anchor="end" style="font-family:'Liberation Sans';font-size:9px">Use as Fill</text>
 <rect id="rect34416" class="node-rect" x="992.47" y="328.44" width="50" height="4.2699" style="fill:#a7e66f"/>
 <text id="text34418" class="node-label" x="1029.1562" y="333.79214" text-anchor="end" style="font-family:'Liberation Sans';font-size:9px">Trade</text>
 <rect id="rect34420" class="node-rect" x="992.47" y="8.2704" width="50" height="8.5046" style="fill:#d980b7"/>
 <text id="text34424" class="node-label" x="1018.6625" y="6.5214844" text-anchor="end" style="line-height:0.7"><tspan id="tspan44032" x="1018.6625" y="6.5214844" dy="0" style="font-family:'Liberation Sans';font-size:9px;text-align:center;text-anchor:middle" sodipodi:role="line">Overburden</tspan><tspan id="tspan44034" x="1018.6625" y="14.921484" style="font-family:'Liberation Sans';font-size:9px;text-align:center;text-anchor:middle" sodipodi:role="line">and</tspan><tspan id="tspan44038" x="1018.6625" y="23.321484" style="font-family:'Liberation Sans';font-size:9px;text-align:center;text-anchor:middle" sodipodi:role="line">Interburden</tspan></text>
</svg>
