<svg class="main-svg" width="1051.9" height="437.42" inkscape:version="1.1.2 (0a00cf5339, 2022-02-04)" sodipodi:docname="reserves.svg" version="1.1" viewBox="0 0 1051.9 437.42" xmlns="http://www.w3.org/2000/svg" xmlns:inkscape="http://www.inkscape.org/namespaces/inkscape" xmlns:sodipodi="http://sodipodi.sourceforge.net/DTD/sodipodi-0.dtd">
 <path class="sankey-link" d="m382.74 326.68v47.273c135.7 0 145.81 22.59 281.51 22.59v2e-3h49.895l2e-3 -47.494h-50.002c-135.7 0-145.7-22.371-281.41-22.371zm331.41 22.371v47.494h0.10551c135.07 0 141.64-8.4328 275.5-8.5117l5.8007-17.43-10.002-30.049c-135.7 0-135.7 8.4961-271.41 8.4961z" style="fill:#f2f78a;stroke-width:0px"/>
 <path class="sankey-link" d="m985.56 249.43c-135.7 0-135.7 2.4902-271.41 2.4902v70.939h12.031s164.79-1.6727 263.59-2.2676l5.791-26.098zm-321.41 2.4902c-135.7 0-145.7 2.9023-281.41 2.9023v70.861c135.7 0 145.54-2.8242 281.24-2.8242h0.16992-4e-3 50v-70.939z" style="fill:#dec580;stroke-width:0px" sodipodi:nodetypes="ccccccccscccccccs"/>
 <path class="sankey-link" d="m664.15 5e-7c-135.7 0-145.7 8.541-281.41 8.541v247.28c135.7 0 145.7-8.541 281.41-8.541h50v-247.28zm50.002 0v247.28c135.7 0 135.7 3.1484 271.41 3.1484l10-123.64-10-123.64c-135.7 0-135.7-3.1484-271.41-3.1484z" style="fill:#ae9e80;stroke-width:0px"/>
 <path class="sankey-link" d="m989.65 388.04c-133.87 0.0789-140.43 8.5117-275.5 8.5117v12.602c135.59-5e-3 135.64-8.4961 271.3-8.4961zm-325.4 8.5098c-135.7 0-145.81 7.3164-281.51 7.3164v12.824c135.7 0 145.7-7.5351 281.41-7.5352h49.895v-12.604h-49.787zm49.789 2e-3v12.602h0.10351v-12.602z" style="fill:#f2f78a;stroke-width:0px"/>
 <path class="sankey-link" d="m989.77 321.59c-98.792 0.5949-263.59 2.2676-263.59 2.2676h-12.025v19.188c135.7 0 135.7-2.4883 271.41-2.4883zm-325.79 2.2676c-135.7 0-145.54 60.736-281.24 60.736v19.268c135.7 0 145.7-60.816 281.41-60.816l-9e-5 -19.188zm0.16992 0v19.188h50.006l-6e-3 -19.188h-4e-3z" style="fill:#dec580;stroke-width:0px" sodipodi:nodetypes="cccccccccccccccccc"/>
 <path class="sankey-link" d="m51.335 33.668c135.7 0 135.7-25.128 271.41-25.128l10 182.71-10 182.71c-135.7 0-135.7 25.128-271.41 25.128z" style="fill:#e3a6aa;stroke-width:0px"/>
 <path class="sankey-link" d="m51.335 399.09c135.7 0 135.7-14.489 271.41-14.489l10 16.046-10 16.046c-135.7 0-135.7 14.489-271.41 14.489z" style="fill:#e3a6aa;stroke-width:0px"/>
 <rect class="node-rect" x="995.56" y="417.99" width="50" height="12.492" style="fill:#a7e66f;stroke-width:0px"/>
 <path class="sankey-link" d="m51.335 431.18c467.11 0 467.11-6.944 934.23-6.944l10 3.1231-10 3.1231c-467.11 0-467.11 6.944-934.23 6.944z" style="fill:#e3a6aa;stroke-width:0px"/>
 <path class="sankey-link" d="m382.74 416.69c301.41 0 301.75 1.6096 603.15 1.6096l9.6126 2.9938-9.9508 2.9416c-301.41 0-301.41-1.2988-602.82-1.2988z" style="fill:#e3a6aa;stroke-width:0px" sodipodi:nodetypes="cccccc"/>
 <rect class="node-rect" x="332.74" y="8.5401" width="50" height="365.42" style="fill:#c48d98;stroke-width:0px"/>
 <text class="node-label" x="338.18994" y="194.46524">Terrestrial</text>
 <rect class="node-rect" x="332.74" y="384.6" width="50" height="38.337" style="fill:#c5e9df;stroke-width:0px"/>
 <rect class="node-rect" x="1.3344" y="33.668" width="50" height="403.75" style="fill:#a7e66f;stroke-width:0px"/>
 <text class="node-label" x="7.1215439" y="238.59708">Reserves</text>
 <rect class="node-rect" x="995.56" y="3.1471" width="50" height="397.51" style="fill:#a7e66f;stroke-width:0px"/>
 <text class="node-label" x="1040.4919" y="205.11777">Extraction</text>
 <text class="node-label" x="1031.6035" y="427.44891">Stock</text>

 <text class="node-label" x="343.81934" y="406.98154">Marine</text>
 <text class="node-label" x="735.61121" y="381.00409">Sand</text>
 <text class="node-label" x="734.34863" y="300.4328">Gravel</text>
 <text class="node-label" x="660.40472" y="131.12793">Crushed Rock</text>
</svg>
