<svg class="main-svg" xmlns="http://www.w3.org/2000/svg" xmlns:xlink="http://www.w3.org/1999/xlink" width="700" height="500" style="" viewBox="0 0 700 500"><rect x="0" y="0" width="700" height="500" style="fill: rgb(255, 255, 255); fill-opacity: 1;"/><defs id="defs-09669e"><g class="clips"/><g class="gradients"/><g class="patterns"/></defs><g class="bglayer"/><g class="layer-below"><g class="imagelayer"/><g class="shapelayer"/></g><g class="cartesianlayer"/><g class="polarlayer"/><g class="smithlayer"/><g class="ternarylayer"/><g class="geolayer"/><g class="funnelarealayer"/><g class="pielayer"/><g class="iciclelayer"/><g class="treemaplayer"/><g class="sunburstlayer"/><g class="glimages"/><g class="sankey" style="box-sizing: content-box; position: absolute; left: 0px; shape-rendering: geometricprecision; pointer-events: auto;" transform="translate(80,100)matrix(1 0 0 1 0 0)"><g class="sankey-links" style="fill: none;"><path class="sankey-link" style="stroke: rgb(68, 68, 68); stroke-opacity: 1; fill: rgb(110, 104, 112); fill-opacity: 1; stroke-width: 0px; opacity: 1;" d="M15.648535564853557,253.22107243202166C53.51882845188285,253.22107243202166 53.51882845188285,246.97613389393294 91.38912133891213,246.97613389393294L101.38912133891213,275.2498527410477L91.38912133891213,303.52357158816244C53.51882845188285,303.52357158816244 53.51882845188285,309.76851012625116 15.648535564853557,309.76851012625116Z"/><path class="sankey-link" style="stroke: rgb(68, 68, 68); stroke-opacity: 1; fill: rgb(198, 124, 75); fill-opacity: 1; stroke-width: 0px; opacity: 1;" d="M15.648535564853557,194.55213086843622C53.51882845188285,194.55213086843622 53.51882845188285,190.97441869387524 91.38912133891213,190.97441869387524L101.38912133891213,220.30888947566794L91.38912133891213,249.64336025746064C53.51882845188285,249.64336025746064 53.51882845188285,253.22107243202163 15.648535564853557,253.22107243202163Z"/><path class="sankey-link" style="stroke: rgb(68, 68, 68); stroke-opacity: 1; fill: rgb(206, 206, 101); fill-opacity: 1; stroke-width: 0px; opacity: 1;" d="M15.648535564853557,53.81530800572219C53.51882845188285,53.81530800572219 53.51882845188285,56.03865519288097 91.38912133891213,56.03865519288097L101.38912133891213,126.40706662423798L91.38912133891213,196.775478055595C53.51882845188285,196.775478055595 53.51882845188285,194.55213086843622 15.648535564853557,194.55213086843622Z"/><path class="sankey-link" style="stroke: rgb(68, 68, 68); stroke-opacity: 1; fill: rgb(110, 104, 112); fill-opacity: 1; stroke-width: 0px; opacity: 1;" d="M121.38912133891213,246.97613389393297C159.25941422594144,246.97613389393297 159.25941422594144,121.83853196929788 197.12970711297072,121.83853196929788L207.12970711297072,131.26440485943255L197.12970711297072,140.6902777495672C159.25941422594144,140.6902777495672 159.25941422594144,265.8278796742023 121.38912133891213,265.8278796742023Z"/><path class="sankey-link" style="stroke: rgb(68, 68, 68); stroke-opacity: 1; fill: rgb(110, 104, 112); fill-opacity: 1; stroke-width: 0px; opacity: 1;" d="M121.38912133891213,265.8278796742023C159.25941422594144,265.8278796742023 159.25941422594144,212.51296217306844 197.12970711297072,212.51296217306844L207.12970711297072,221.9388350632031L197.12970711297072,231.36470795333776C159.25941422594144,231.36470795333776 159.25941422594144,284.6796254544716 121.38912133891213,284.6796254544716Z"/><path class="sankey-link" style="stroke: rgb(68, 68, 68); stroke-opacity: 1; fill: rgb(110, 104, 112); fill-opacity: 1; stroke-width: 0px; opacity: 1;" d="M121.38912133891213,284.6796254544716C159.25941422594144,284.6796254544716 159.25941422594144,303.11730388605673 197.12970711297072,303.11730388605673L207.12970711297072,312.5431767761914L197.12970711297072,321.96904966632604C159.25941422594144,321.96904966632604 159.25941422594144,303.5313712347409 121.38912133891213,303.5313712347409Z"/><path class="sankey-link" style="stroke: rgb(68, 68, 68); stroke-opacity: 1; fill: rgb(198, 124, 75); fill-opacity: 1; stroke-width: 0px; opacity: 1;" d="M121.38912133891213,190.97441869387524C159.25941422594144,190.97441869387524 159.25941422594144,102.28481799696225 197.12970711297072,102.28481799696225L207.12970711297072,112.06167498313006L197.12970711297072,121.83853196929788C159.25941422594144,121.83853196929788 159.25941422594144,210.52813266621087 121.38912133891213,210.52813266621087Z"/><path class="sankey-link" style="stroke: rgb(68, 68, 68); stroke-opacity: 1; fill: rgb(198, 124, 75); fill-opacity: 1; stroke-width: 0px; opacity: 1;" d="M121.38912133891213,210.52813266621087C159.25941422594144,210.52813266621087 159.25941422594144,192.95924820073282 197.12970711297072,192.95924820073282L207.12970711297072,202.73610518690063L197.12970711297072,212.51296217306844C159.25941422594144,212.51296217306844 159.25941422594144,230.0818466385465 121.38912133891213,230.0818466385465Z"/><path class="sankey-link" style="stroke: rgb(68, 68, 68); stroke-opacity: 1; fill: rgb(198, 124, 75); fill-opacity: 1; stroke-width: 0px; opacity: 1;" d="M121.38912133891213,230.0818466385465C159.25941422594144,230.0818466385465 159.25941422594144,283.5635899137211 197.12970711297072,283.5635899137211L207.12970711297072,293.3404468998889L197.12970711297072,303.1173038860567C159.25941422594144,303.1173038860567 159.25941422594144,249.63556061088212 121.38912133891213,249.63556061088212Z"/><path class="sankey-link" style="stroke: rgb(68, 68, 68); stroke-opacity: 1; fill: rgb(206, 206, 101); fill-opacity: 1; stroke-width: 0px; opacity: 1;" d="M121.38912133891213,56.03865519288096C159.25941422594144,56.03865519288096 159.25941422594144,54.94876291195829 197.12970711297072,54.94876291195829L207.12970711297072,78.61679045446027L197.12970711297072,102.28481799696226C159.25941422594144,102.28481799696226 159.25941422594144,103.37471027788493 121.38912133891213,103.37471027788493Z"/><path class="sankey-link" style="stroke: rgb(68, 68, 68); stroke-opacity: 1; fill: rgb(206, 206, 101); fill-opacity: 1; stroke-width: 0px; opacity: 1;" d="M121.38912133891213,103.37471027788493C159.25941422594144,103.37471027788493 159.25941422594144,146.21596625569595 197.12970711297072,146.21596625569595L207.12970711297072,169.58760722821438L197.12970711297072,192.95924820073282C159.25941422594144,192.95924820073282 159.25941422594144,150.1179922229218 121.38912133891213,150.1179922229218Z"/><path class="sankey-link" style="stroke: rgb(68, 68, 68); stroke-opacity: 1; fill: rgb(206, 206, 101); fill-opacity: 1; stroke-width: 0px; opacity: 1;" d="M121.38912133891213,150.1179922229218C159.25941422594144,150.1179922229218 159.25941422594144,236.90610408104786 197.12970711297072,236.90610408104786L207.12970711297072,260.23484699738447L197.12970711297072,283.56358991372105C159.25941422594144,283.56358991372105 159.25941422594144,196.77547805559502 121.38912133891213,196.77547805559502Z"/><path class="sankey-link" style="stroke: rgb(68, 68, 68); stroke-opacity: 1; fill: rgb(110, 104, 112); fill-opacity: 1; stroke-width: 0px; opacity: 1;" d="M227.12970711297072,121.83853196929788C265,121.83853196929788 265,118.62486092210064 302.8702928870292,118.62486092210064L312.8702928870292,128.0507338122353L302.8702928870292,137.47660670236996C265,137.47660670236996 265,140.6902777495672 227.12970711297072,140.6902777495672Z"/><path class="sankey-link" style="stroke: rgb(68, 68, 68); stroke-opacity: 1; fill: rgb(198, 124, 75); fill-opacity: 1; stroke-width: 0px; opacity: 1;" d="M227.12970711297072,102.28481799696225C265,102.28481799696225 265,99.95254312261208 302.8702928870292,99.95254312261208L312.8702928870292,109.7294001087799L302.8702928870292,119.50625709494771C265,119.50625709494771 265,121.83853196929788 227.12970711297072,121.83853196929788Z"/><path class="sankey-link" style="stroke: rgb(68, 68, 68); stroke-opacity: 1; fill: rgb(206, 206, 101); fill-opacity: 1; stroke-width: 0px; opacity: 1;" d="M227.12970711297072,54.94876291195829C265,54.94876291195829 265,53.42259595528768 302.8702928870292,53.42259595528768L312.8702928870292,77.09062349778966L302.8702928870292,100.75865104029165C265,100.75865104029165 265,102.28481799696226 227.12970711297072,102.28481799696226Z"/><path class="sankey-link" style="stroke: rgb(68, 68, 68); stroke-opacity: 1; fill: rgb(110, 104, 112); fill-opacity: 1; stroke-width: 0px; opacity: 1;" d="M227.12970711297072,212.51296217306844C265,212.51296217306844 265,210.43125094505268 302.8702928870292,210.43125094505268L312.8702928870292,219.85712383518734L302.8702928870292,229.282996725322C265,229.282996725322 265,231.36470795333776 227.12970711297072,231.36470795333776Z"/><path class="sankey-link" style="stroke: rgb(68, 68, 68); stroke-opacity: 1; fill: rgb(198, 124, 75); fill-opacity: 1; stroke-width: 0px; opacity: 1;" d="M227.12970711297072,192.95924820073282C265,192.95924820073282 265,191.7589331455641 302.8702928870292,191.7589331455641L312.8702928870292,201.53579013173191L302.8702928870292,211.31264711789973C265,211.31264711789973 265,212.51296217306844 227.12970711297072,212.51296217306844Z"/><path class="sankey-link" style="stroke: rgb(68, 68, 68); stroke-opacity: 1; fill: rgb(206, 206, 101); fill-opacity: 1; stroke-width: 0px; opacity: 1;" d="M227.12970711297072,146.21596625569595C265,146.21596625569595 265,147.18091975346277 302.8702928870292,147.18091975346277L312.8702928870292,170.5525607259812L302.8702928870292,193.92420169849964C265,193.92420169849964 265,192.95924820073282 227.12970711297072,192.95924820073282Z"/><path class="sankey-link" style="stroke: rgb(68, 68, 68); stroke-opacity: 1; fill: rgb(110, 104, 112); fill-opacity: 1; stroke-width: 0px; opacity: 1;" d="M227.12970711297072,303.11730388605673C265,303.11730388605673 265,300.3994520387183 302.8702928870292,300.3994520387183L312.8702928870292,309.825324928853L302.8702928870292,319.25119781898763C265,319.25119781898763 265,321.96904966632604 227.12970711297072,321.96904966632604Z"/><path class="sankey-link" style="stroke: rgb(68, 68, 68); stroke-opacity: 1; fill: rgb(198, 124, 75); fill-opacity: 1; stroke-width: 0px; opacity: 1;" d="M227.12970711297072,283.5635899137211C265,283.5635899137211 265,281.7271523237205 302.8702928870292,281.7271523237205L312.8702928870292,291.50400930988826L302.8702928870292,301.28086629605605C265,301.28086629605605 265,303.1173038860567 227.12970711297072,303.1173038860567Z"/><path class="sankey-link" style="stroke: rgb(68, 68, 68); stroke-opacity: 1; fill: rgb(206, 206, 101); fill-opacity: 1; stroke-width: 0px; opacity: 1;" d="M227.12970711297072,236.90610408104786C265,236.90610408104786 265,236.48900353647159 302.8702928870292,236.48900353647159L312.8702928870292,259.8177464528082L302.8702928870292,283.1464893691448C265,283.1464893691448 265,283.56358991372105 227.12970711297072,283.56358991372105Z"/><path class="sankey-link" style="stroke: rgb(68, 68, 68); stroke-opacity: 1; fill: rgb(110, 104, 112); fill-opacity: 1; stroke-width: 0px; opacity: 1;" d="M332.8702928870292,118.62486092210065C370.74058577405856,118.62486092210065 370.74058577405856,177.47965795299893 408.61087866108784,177.47965795299893L418.61087866108784,181.04019661609075L408.61087866108784,184.60073527918257C370.74058577405856,184.60073527918257 370.74058577405856,125.74593824828432 332.8702928870292,125.74593824828432Z"/><path class="sankey-link" style="stroke: rgb(68, 68, 68); stroke-opacity: 1; fill: rgb(198, 124, 75); fill-opacity: 1; stroke-width: 0px; opacity: 1;" d="M332.8702928870292,99.95254312261208C370.74058577405856,99.95254312261208 370.74058577405856,155.0256309566527 408.61087866108784,155.0256309566527L418.61087866108784,158.94105353906693L408.61087866108784,162.85647612148117C370.74058577405856,162.85647612148117 370.74058577405856,107.78338828744056 332.8702928870292,107.78338828744056Z"/><path class="sankey-link" style="stroke: rgb(68, 68, 68); stroke-opacity: 1; fill: rgb(206, 206, 101); fill-opacity: 1; stroke-width: 0px; opacity: 1;" d="M332.8702928870292,53.422595955287676C370.74058577405856,53.422595955287676 370.74058577405856,52.06737125279555 408.61087866108784,52.06737125279555L418.61087866108784,69.87396439154395L408.61087866108784,87.68055753029235C370.74058577405856,87.68055753029235 370.74058577405856,89.03578223278447 332.8702928870292,89.03578223278447Z"/><path class="sankey-link" style="stroke: rgb(68, 68, 68); stroke-opacity: 1; fill: rgb(110, 104, 112); fill-opacity: 1; stroke-width: 0px; opacity: 1;" d="M332.8702928870292,210.43125094505268C370.74058577405856,210.43125094505268 370.74058577405856,184.6007352791826 408.61087866108784,184.6007352791826L418.61087866108784,188.16127394227442L408.61087866108784,191.72181260536624C370.74058577405856,191.72181260536624 370.74058577405856,217.55232827123632 332.8702928870292,217.55232827123632Z"/><path class="sankey-link" style="stroke: rgb(68, 68, 68); stroke-opacity: 1; fill: rgb(198, 124, 75); fill-opacity: 1; stroke-width: 0px; opacity: 1;" d="M332.8702928870292,191.7589331455641C370.74058577405856,191.7589331455641 370.74058577405856,162.85647612148117 408.61087866108784,162.85647612148117L418.61087866108784,166.7718987038954L408.61087866108784,170.68732128630964C370.74058577405856,170.68732128630964 370.74058577405856,199.58977831039257 332.8702928870292,199.58977831039257Z"/><path class="sankey-link" style="stroke: rgb(68, 68, 68); stroke-opacity: 1; fill: rgb(206, 206, 101); fill-opacity: 1; stroke-width: 0px; opacity: 1;" d="M332.8702928870292,147.18091975346277C370.74058577405856,147.18091975346277 370.74058577405856,87.68055753029236 408.61087866108784,87.68055753029236L418.61087866108784,105.19076409905722L408.61087866108784,122.70097066782208C370.74058577405856,122.70097066782208 370.74058577405856,182.2013328909925 332.8702928870292,182.2013328909925Z"/><path class="sankey-link" style="stroke: rgb(68, 68, 68); stroke-opacity: 1; fill: rgb(110, 104, 112); fill-opacity: 1; stroke-width: 0px; opacity: 1;" d="M332.8702928870292,300.3994520387183C370.74058577405856,300.3994520387183 370.74058577405856,191.72181260536627 408.61087866108784,191.72181260536627L418.61087866108784,195.2823512684581L408.61087866108784,198.8428899315499C370.74058577405856,198.8428899315499 370.74058577405856,307.520529364902 332.8702928870292,307.520529364902Z"/><path class="sankey-link" style="stroke: rgb(68, 68, 68); stroke-opacity: 1; fill: rgb(198, 124, 75); fill-opacity: 1; stroke-width: 0px; opacity: 1;" d="M332.8702928870292,281.7271523237205C370.74058577405856,281.7271523237205 370.74058577405856,170.68732128630964 408.61087866108784,170.68732128630964L418.61087866108784,174.60274386872388L408.61087866108784,178.51816645113811C370.74058577405856,178.51816645113811 370.74058577405856,289.55799748854895 332.8702928870292,289.55799748854895Z"/><path class="sankey-link" style="stroke: rgb(68, 68, 68); stroke-opacity: 1; fill: rgb(206, 206, 101); fill-opacity: 1; stroke-width: 0px; opacity: 1;" d="M332.8702928870292,236.4890035364716C370.74058577405856,236.4890035364716 370.74058577405856,122.70097066782208 408.61087866108784,122.70097066782208L418.61087866108784,140.1682791804051L408.61087866108784,157.63558769298814C370.74058577405856,157.63558769298814 370.74058577405856,271.4236205616377 332.8702928870292,271.4236205616377Z"/><path class="sankey-link" style="stroke: rgb(68, 68, 68); stroke-opacity: 1; fill: rgb(110, 104, 112); fill-opacity: 1; stroke-width: 0px; opacity: 1;" d="M438.61087866108784,177.47965795299893C476.4811715481171,177.47965795299893 476.4811715481171,180.08943414196 514.3514644351465,180.08943414196L524.3514644351465,190.77494995452474L514.3514644351465,201.4604657670895C476.4811715481171,201.4604657670895 476.4811715481171,198.85068957812842 438.61087866108784,198.85068957812842Z"/><path class="sankey-link" style="stroke: rgb(68, 68, 68); stroke-opacity: 1; fill: rgb(198, 124, 75); fill-opacity: 1; stroke-width: 0px; opacity: 1;" d="M438.61087866108784,155.0256309566527C476.4811715481171,155.0256309566527 476.4811715481171,156.5968986474746 514.3514644351465,156.5968986474746L524.3514644351465,168.34316639471731L514.3514644351465,180.08943414196003C476.4811715481171,180.08943414196003 476.4811715481171,178.51816645113811 438.61087866108784,178.51816645113811Z"/><path class="sankey-link" style="stroke: rgb(68, 68, 68); stroke-opacity: 1; fill: rgb(206, 206, 101); fill-opacity: 1; stroke-width: 0px; opacity: 1;" d="M438.61087866108784,52.06737125279556C476.4811715481171,52.06737125279556 476.4811715481171,51.03648185386057 514.3514644351465,51.03648185386057L524.3514644351465,103.81669025066759L514.3514644351465,156.5968986474746C476.4811715481171,156.5968986474746 476.4811715481171,157.6277880464096 438.61087866108784,157.6277880464096Z"/><path class="sankey-link" style="stroke: rgb(68, 68, 68); stroke-opacity: 1; fill: rgb(110, 104, 112); fill-opacity: 1; stroke-width: 0px; opacity: 1;" d="M332.8702928870292,125.74593824828432C370.74058577405856,125.74593824828432 370.74058577405856,285.622624391499 408.61087866108784,285.622624391499L418.61087866108784,291.4879586185418L408.61087866108784,297.35329284558463C370.74058577405856,297.35329284558463 370.74058577405856,137.47660670237 332.8702928870292,137.47660670237Z"/><path class="sankey-link" style="stroke: rgb(68, 68, 68); stroke-opacity: 1; fill: rgb(198, 124, 75); fill-opacity: 1; stroke-width: 0px; opacity: 1;" d="M332.8702928870292,107.78338828744056C370.74058577405856,107.78338828744056 370.74058577405856,252.05987853675376 408.61087866108784,252.05987853675376L418.61087866108784,257.9252127637966L408.61087866108784,263.7905469908394C370.74058577405856,263.7905469908394 370.74058577405856,119.51405674152623 332.8702928870292,119.51405674152623Z"/><path class="sankey-link" style="stroke: rgb(68, 68, 68); stroke-opacity: 1; fill: rgb(206, 206, 101); fill-opacity: 1; stroke-width: 0px; opacity: 1;" d="M332.8702928870292,89.03578223278447C370.74058577405856,89.03578223278447 370.74058577405856,217.19206404015364 408.61087866108784,217.19206404015364L418.61087866108784,223.05739826719648L408.61087866108784,228.9227324942393C370.74058577405856,228.9227324942393 370.74058577405856,100.76645068687014 332.8702928870292,100.76645068687014Z"/><path class="sankey-link" style="stroke: rgb(68, 68, 68); stroke-opacity: 1; fill: rgb(110, 104, 112); fill-opacity: 1; stroke-width: 0px; opacity: 1;" d="M332.8702928870292,217.55232827123635C370.74058577405856,217.55232827123635 370.74058577405856,297.35329284558463 408.61087866108784,297.35329284558463L418.61087866108784,303.21862707262744L408.61087866108784,309.08396129967025C370.74058577405856,309.08396129967025 370.74058577405856,229.28299672532202 332.8702928870292,229.28299672532202Z"/><path class="sankey-link" style="stroke: rgb(68, 68, 68); stroke-opacity: 1; fill: rgb(198, 124, 75); fill-opacity: 1; stroke-width: 0px; opacity: 1;" d="M332.8702928870292,199.58977831039257C370.74058577405856,199.58977831039257 370.74058577405856,263.7905469908394 408.61087866108784,263.7905469908394L418.61087866108784,269.6558812178822L408.61087866108784,275.521215444925C370.74058577405856,275.521215444925 370.74058577405856,211.32044676447825 332.8702928870292,211.32044676447825Z"/><path class="sankey-link" style="stroke: rgb(68, 68, 68); stroke-opacity: 1; fill: rgb(206, 206, 101); fill-opacity: 1; stroke-width: 0px; opacity: 1;" d="M332.8702928870292,182.2013328909925C370.74058577405856,182.2013328909925 370.74058577405856,228.9227324942393 408.61087866108784,228.9227324942393L418.61087866108784,234.78806672128215L408.61087866108784,240.653400948325C370.74058577405856,240.653400948325 370.74058577405856,193.93200134507816 332.8702928870292,193.93200134507816Z"/><path class="sankey-link" style="stroke: rgb(68, 68, 68); stroke-opacity: 1; fill: rgb(110, 104, 112); fill-opacity: 1; stroke-width: 0px; opacity: 1;" d="M332.8702928870292,307.520529364902C370.74058577405856,307.520529364902 370.74058577405856,309.08396129967036 408.61087866108784,309.08396129967036L418.61087866108784,314.9492955267132L408.61087866108784,320.814629753756C370.74058577405856,320.814629753756 370.74058577405856,319.25119781898763 332.8702928870292,319.25119781898763Z"/><path class="sankey-link" style="stroke: rgb(68, 68, 68); stroke-opacity: 1; fill: rgb(198, 124, 75); fill-opacity: 1; stroke-width: 0px; opacity: 1;" d="M332.8702928870292,289.55799748854895C370.74058577405856,289.55799748854895 370.74058577405856,275.52121544492513 408.61087866108784,275.52121544492513L418.61087866108784,281.38654967196794L408.61087866108784,287.25188389901075C370.74058577405856,287.25188389901075 370.74058577405856,301.28866594263457 332.8702928870292,301.28866594263457Z"/><path class="sankey-link" style="stroke: rgb(68, 68, 68); stroke-opacity: 1; fill: rgb(206, 206, 101); fill-opacity: 1; stroke-width: 0px; opacity: 1;" d="M332.8702928870292,271.4236205616377C370.74058577405856,271.4236205616377 370.74058577405856,240.653400948325 408.61087866108784,240.653400948325L418.61087866108784,246.51873517536782L408.61087866108784,252.38406940241066C370.74058577405856,252.38406940241066 370.74058577405856,283.1542890157233 332.8702928870292,283.1542890157233Z"/><path class="sankey-link" style="stroke: rgb(68, 68, 68); stroke-opacity: 1; fill: rgb(110, 104, 112); fill-opacity: 1; stroke-width: 0px; opacity: 1;" d="M438.61087866108784,285.6226243914989C476.4811715481171,285.6226243914989 476.4811715481171,287.25188389901075 514.3514644351465,287.25188389901075L524.3514644351465,304.8478865801393L514.3514644351465,322.4438892612678C476.4811715481171,322.4438892612678 476.4811715481171,320.814629753756 438.61087866108784,320.814629753756Z"/><path class="sankey-link" style="stroke: rgb(68, 68, 68); stroke-opacity: 1; fill: rgb(198, 124, 75); fill-opacity: 1; stroke-width: 0px; opacity: 1;" d="M438.61087866108784,252.05987853675376C476.4811715481171,252.05987853675376 476.4811715481171,252.0598785367538 514.3514644351465,252.0598785367538L524.3514644351465,269.6558812178823L514.3514644351465,287.25188389901086C476.4811715481171,287.25188389901086 476.4811715481171,287.25188389901075 438.61087866108784,287.25188389901075Z"/><path class="sankey-link" style="stroke: rgb(68, 68, 68); stroke-opacity: 1; fill: rgb(206, 206, 101); fill-opacity: 1; stroke-width: 0px; opacity: 1;" d="M438.61087866108784,217.19206404015364C476.4811715481171,217.19206404015364 476.4811715481171,216.86787317449676 514.3514644351465,216.86787317449676L524.3514644351465,234.46387585562528L514.3514644351465,252.05987853675379C476.4811715481171,252.05987853675379 476.4811715481171,252.38406940241066 438.61087866108784,252.38406940241066Z"/></g><g class="sankey-node-set" style="cursor: ns-resize;"><g class="sankey-node" transform="translate(-4.351,53.815)" style="opacity: 1;"><rect class="node-rect" width="20" height="255.95320212052897" style="stroke-width: 0px; stroke: rgb(68, 68, 68); stroke-opacity: 1; fill: rgb(236, 236, 236); fill-opacity: 1;"/><text class="node-label" style="cursor: default; font-family: TOBESTRIPPEDOpen SansTOBESTRIPPED, verdana, arial, sans-serif; font-size: 12px; fill: rgb(68, 68, 68); fill-opacity: 1; white-space: pre; text-shadow: rgb(255, 255, 255) 1px 1px 1px, rgb(255, 255, 255) -1px -1px 1px, rgb(255, 255, 255) 1px -1px 1px, rgb(255, 255, 255) -1px 1px 1px;" data-notex="1" x="0" y="0" text-anchor="start" transform="translate(23,132.1766010602645)">Manufacturing</text></g><g class="sankey-node" transform="translate(101.389,246.976)" style="opacity: 1;"><rect class="node-rect" width="20" height="56.55523734080802" style="stroke-width: 0px; stroke: rgb(68, 68, 68); stroke-opacity: 1; fill: rgb(110, 104, 112); fill-opacity: 1;"/><text class="node-label" style="cursor: default; font-family: TOBESTRIPPEDOpen SansTOBESTRIPPED, verdana, arial, sans-serif; font-size: 12px; fill: rgb(68, 68, 68); fill-opacity: 1; white-space: pre; text-shadow: rgb(255, 255, 255) 1px 1px 1px, rgb(255, 255, 255) -1px -1px 1px, rgb(255, 255, 255) 1px -1px 1px, rgb(255, 255, 255) -1px 1px 1px;" data-notex="1" x="0" y="0" text-anchor="start" transform="translate(23,32.47761867040401)">Manufacturing gravel</text></g><g class="sankey-node" transform="translate(101.389,190.974)" style="opacity: 1;"><rect class="node-rect" width="20" height="58.66894156358518" style="stroke-width: 0px; stroke: rgb(68, 68, 68); stroke-opacity: 1; fill: rgb(198, 124, 75); fill-opacity: 1;"/><text class="node-label" style="cursor: default; font-family: TOBESTRIPPEDOpen SansTOBESTRIPPED, verdana, arial, sans-serif; font-size: 12px; fill: rgb(68, 68, 68); fill-opacity: 1; white-space: pre; text-shadow: rgb(255, 255, 255) 1px 1px 1px, rgb(255, 255, 255) -1px -1px 1px, rgb(255, 255, 255) 1px -1px 1px, rgb(255, 255, 255) -1px 1px 1px;" data-notex="1" x="0" y="0" text-anchor="start" transform="translate(23,33.53447078179259)">Manufacturing rock</text></g><g class="sankey-node" transform="translate(101.389,56.039)" style="opacity: 1;"><rect class="node-rect" width="20" height="140.736822862714" style="stroke-width: 0px; stroke: rgb(68, 68, 68); stroke-opacity: 1; fill: rgb(206, 206, 101); fill-opacity: 1;"/><text class="node-label" style="cursor: default; font-family: TOBESTRIPPEDOpen SansTOBESTRIPPED, verdana, arial, sans-serif; font-size: 12px; fill: rgb(68, 68, 68); fill-opacity: 1; white-space: pre; text-shadow: rgb(255, 255, 255) 1px 1px 1px, rgb(255, 255, 255) -1px -1px 1px, rgb(255, 255, 255) 1px -1px 1px, rgb(255, 255, 255) -1px 1px 1px;" data-notex="1" x="0" y="0" text-anchor="start" transform="translate(23,74.568411431357)">Manufacturing sand</text></g><g class="sankey-node" transform="translate(207.130,54.949)" style="opacity: 1;"><rect class="node-rect" width="20" height="85.74151483760889" style="stroke-width: 0px; stroke: rgb(68, 68, 68); stroke-opacity: 1; fill: rgb(236, 236, 236); fill-opacity: 1;"/><text class="node-label" style="cursor: default; font-family: TOBESTRIPPEDOpen SansTOBESTRIPPED, verdana, arial, sans-serif; font-size: 12px; fill: rgb(68, 68, 68); fill-opacity: 1; white-space: pre; text-shadow: rgb(255, 255, 255) 1px 1px 1px, rgb(255, 255, 255) -1px -1px 1px, rgb(255, 255, 255) 1px -1px 1px, rgb(255, 255, 255) -1px 1px 1px;" data-notex="1" x="0" y="0" text-anchor="start" transform="translate(23,47.07075741880445)">Commercial buildings</text></g><g class="sankey-node" transform="translate(207.130,146.216)" style="opacity: 1;"><rect class="node-rect" width="20" height="85.14874169764153" style="stroke-width: 0px; stroke: rgb(68, 68, 68); stroke-opacity: 1; fill: rgb(236, 236, 236); fill-opacity: 1;"/><text class="node-label" style="cursor: default; font-family: TOBESTRIPPEDOpen SansTOBESTRIPPED, verdana, arial, sans-serif; font-size: 12px; fill: rgb(68, 68, 68); fill-opacity: 1; white-space: pre; text-shadow: rgb(255, 255, 255) 1px 1px 1px, rgb(255, 255, 255) -1px -1px 1px, rgb(255, 255, 255) 1px -1px 1px, rgb(255, 255, 255) -1px 1px 1px;" data-notex="1" x="0" y="0" text-anchor="start" transform="translate(23,46.774370848820766)">Residential buildings</text></g><g class="sankey-node" transform="translate(207.130,236.906)" style="opacity: 1;"><rect class="node-rect" width="20" height="85.06294558527816" style="stroke-width: 0px; stroke: rgb(68, 68, 68); stroke-opacity: 1; fill: rgb(236, 236, 236); fill-opacity: 1;"/><text class="node-label" style="cursor: default; font-family: TOBESTRIPPEDOpen SansTOBESTRIPPED, verdana, arial, sans-serif; font-size: 12px; fill: rgb(68, 68, 68); fill-opacity: 1; white-space: pre; text-shadow: rgb(255, 255, 255) 1px 1px 1px, rgb(255, 255, 255) -1px -1px 1px, rgb(255, 255, 255) 1px -1px 1px, rgb(255, 255, 255) -1px 1px 1px;" data-notex="1" x="0" y="0" text-anchor="start" transform="translate(23,46.73147279263908)">Social buildings</text></g><g class="sankey-node" transform="translate(312.870,118.625)" style="opacity: 1;"><rect class="node-rect" width="20" height="18.85174578026937" style="stroke-width: 0px; stroke: rgb(68, 68, 68); stroke-opacity: 1; fill: rgb(110, 104, 112); fill-opacity: 1;"/><text class="node-label" style="cursor: default; font-family: TOBESTRIPPEDOpen SansTOBESTRIPPED, verdana, arial, sans-serif; font-size: 12px; fill: rgb(68, 68, 68); fill-opacity: 1; white-space: pre; text-shadow: rgb(255, 255, 255) 1px 1px 1px, rgb(255, 255, 255) -1px -1px 1px, rgb(255, 255, 255) 1px -1px 1px, rgb(255, 255, 255) -1px 1px 1px;" data-notex="1" x="0" y="0" text-anchor="start" transform="translate(23,13.625872890134684)">Commercial buildings gravel</text></g><g class="sankey-node" transform="translate(312.870,99.953)" style="opacity: 1;"><rect class="node-rect" width="20" height="19.561513618914205" style="stroke-width: 0px; stroke: rgb(68, 68, 68); stroke-opacity: 1; fill: rgb(198, 124, 75); fill-opacity: 1;"/><text class="node-label" style="cursor: default; font-family: TOBESTRIPPEDOpen SansTOBESTRIPPED, verdana, arial, sans-serif; font-size: 12px; fill: rgb(68, 68, 68); fill-opacity: 1; white-space: pre; text-shadow: rgb(255, 255, 255) 1px 1px 1px, rgb(255, 255, 255) -1px -1px 1px, rgb(255, 255, 255) 1px -1px 1px, rgb(255, 255, 255) -1px 1px 1px;" data-notex="1" x="0" y="0" text-anchor="start" transform="translate(23,13.980756809457102)">Commercial buildings rock</text></g><g class="sankey-node" transform="translate(312.870,53.423)" style="opacity: 1;"><rect class="node-rect" width="20" height="47.34385473158238" style="stroke-width: 0px; stroke: rgb(68, 68, 68); stroke-opacity: 1; fill: rgb(206, 206, 101); fill-opacity: 1;"/><text class="node-label" style="cursor: default; font-family: TOBESTRIPPEDOpen SansTOBESTRIPPED, verdana, arial, sans-serif; font-size: 12px; fill: rgb(68, 68, 68); fill-opacity: 1; white-space: pre; text-shadow: rgb(255, 255, 255) 1px 1px 1px, rgb(255, 255, 255) -1px -1px 1px, rgb(255, 255, 255) 1px -1px 1px, rgb(255, 255, 255) -1px 1px 1px;" data-notex="1" x="0" y="0" text-anchor="start" transform="translate(23,27.87192736579119)">Commercial buildings sand</text></g><g class="sankey-node" transform="translate(312.870,210.431)" style="opacity: 1;"><rect class="node-rect" width="20" height="18.85174578026931" style="stroke-width: 0px; stroke: rgb(68, 68, 68); stroke-opacity: 1; fill: rgb(110, 104, 112); fill-opacity: 1;"/><text class="node-label" style="cursor: default; font-family: TOBESTRIPPEDOpen SansTOBESTRIPPED, verdana, arial, sans-serif; font-size: 12px; fill: rgb(68, 68, 68); fill-opacity: 1; white-space: pre; text-shadow: rgb(255, 255, 255) 1px 1px 1px, rgb(255, 255, 255) -1px -1px 1px, rgb(255, 255, 255) 1px -1px 1px, rgb(255, 255, 255) -1px 1px 1px;" data-notex="1" x="0" y="0" text-anchor="start" transform="translate(23,13.625872890134655)">Residential buildings gravel</text></g><g class="sankey-node" transform="translate(312.870,191.759)" style="opacity: 1;"><rect class="node-rect" width="20" height="19.561513618914148" style="stroke-width: 0px; stroke: rgb(68, 68, 68); stroke-opacity: 1; fill: rgb(198, 124, 75); fill-opacity: 1;"/><text class="node-label" style="cursor: default; font-family: TOBESTRIPPEDOpen SansTOBESTRIPPED, verdana, arial, sans-serif; font-size: 12px; fill: rgb(68, 68, 68); fill-opacity: 1; white-space: pre; text-shadow: rgb(255, 255, 255) 1px 1px 1px, rgb(255, 255, 255) -1px -1px 1px, rgb(255, 255, 255) 1px -1px 1px, rgb(255, 255, 255) -1px 1px 1px;" data-notex="1" x="0" y="0" text-anchor="start" transform="translate(23,13.980756809457073)">Residential buildings rock</text></g><g class="sankey-node" transform="translate(312.870,147.181)" style="opacity: 1;"><rect class="node-rect" width="20" height="46.75108159161539" style="stroke-width: 0px; stroke: rgb(68, 68, 68); stroke-opacity: 1; fill: rgb(206, 206, 101); fill-opacity: 1;"/><text class="node-label" style="cursor: default; font-family: TOBESTRIPPEDOpen SansTOBESTRIPPED, verdana, arial, sans-serif; font-size: 12px; fill: rgb(68, 68, 68); fill-opacity: 1; white-space: pre; text-shadow: rgb(255, 255, 255) 1px 1px 1px, rgb(255, 255, 255) -1px -1px 1px, rgb(255, 255, 255) 1px -1px 1px, rgb(255, 255, 255) -1px 1px 1px;" data-notex="1" x="0" y="0" text-anchor="start" transform="translate(23,27.575540795807694)">Residential buildings sand</text></g><g class="sankey-node" transform="translate(312.870,300.399)" style="opacity: 1;"><rect class="node-rect" width="20" height="18.851745780269425" style="stroke-width: 0px; stroke: rgb(68, 68, 68); stroke-opacity: 1; fill: rgb(110, 104, 112); fill-opacity: 1;"/><text class="node-label" style="cursor: default; font-family: TOBESTRIPPEDOpen SansTOBESTRIPPED, verdana, arial, sans-serif; font-size: 12px; fill: rgb(68, 68, 68); fill-opacity: 1; white-space: pre; text-shadow: rgb(255, 255, 255) 1px 1px 1px, rgb(255, 255, 255) -1px -1px 1px, rgb(255, 255, 255) 1px -1px 1px, rgb(255, 255, 255) -1px 1px 1px;" data-notex="1" x="0" y="0" text-anchor="start" transform="translate(23,13.625872890134712)">Social buildings gravel</text></g><g class="sankey-node" transform="translate(312.870,281.727)" style="opacity: 1;"><rect class="node-rect" width="20" height="19.561513618914205" style="stroke-width: 0px; stroke: rgb(68, 68, 68); stroke-opacity: 1; fill: rgb(198, 124, 75); fill-opacity: 1;"/><text class="node-label" style="cursor: default; font-family: TOBESTRIPPEDOpen SansTOBESTRIPPED, verdana, arial, sans-serif; font-size: 12px; fill: rgb(68, 68, 68); fill-opacity: 1; white-space: pre; text-shadow: rgb(255, 255, 255) 1px 1px 1px, rgb(255, 255, 255) -1px -1px 1px, rgb(255, 255, 255) 1px -1px 1px, rgb(255, 255, 255) -1px 1px 1px;" data-notex="1" x="0" y="0" text-anchor="start" transform="translate(23,13.980756809457102)">Social buildings rock</text></g><g class="sankey-node" transform="translate(312.870,236.489)" style="opacity: 1;"><rect class="node-rect" width="20" height="46.66528547925179" style="stroke-width: 0px; stroke: rgb(68, 68, 68); stroke-opacity: 1; fill: rgb(206, 206, 101); fill-opacity: 1;"/><text class="node-label" style="cursor: default; font-family: TOBESTRIPPEDOpen SansTOBESTRIPPED, verdana, arial, sans-serif; font-size: 12px; fill: rgb(68, 68, 68); fill-opacity: 1; white-space: pre; text-shadow: rgb(255, 255, 255) 1px 1px 1px, rgb(255, 255, 255) -1px -1px 1px, rgb(255, 255, 255) 1px -1px 1px, rgb(255, 255, 255) -1px 1px 1px;" data-notex="1" x="0" y="0" text-anchor="start" transform="translate(23,27.532642739625896)">Social buildings sand</text></g><g class="sankey-node" transform="translate(418.611,177.480)" style="opacity: 1;"><rect class="node-rect" width="20" height="21.37103162512949" style="stroke-width: 0px; stroke: rgb(68, 68, 68); stroke-opacity: 1; fill: rgb(110, 104, 112); fill-opacity: 1;"/><text class="node-label" style="cursor: default; font-family: TOBESTRIPPEDOpen SansTOBESTRIPPED, verdana, arial, sans-serif; font-size: 12px; fill: rgb(68, 68, 68); fill-opacity: 1; white-space: pre; text-shadow: rgb(255, 255, 255) 1px 1px 1px, rgb(255, 255, 255) -1px -1px 1px, rgb(255, 255, 255) 1px -1px 1px, rgb(255, 255, 255) -1px 1px 1px;" data-notex="1" x="0" y="0" text-anchor="start" transform="translate(23,14.885515812564744)">Waste management gravel</text></g><g class="sankey-node" transform="translate(418.611,155.026)" style="opacity: 1;"><rect class="node-rect" width="20" height="23.492535494485367" style="stroke-width: 0px; stroke: rgb(68, 68, 68); stroke-opacity: 1; fill: rgb(198, 124, 75); fill-opacity: 1;"/><text class="node-label" style="cursor: default; font-family: TOBESTRIPPEDOpen SansTOBESTRIPPED, verdana, arial, sans-serif; font-size: 12px; fill: rgb(68, 68, 68); fill-opacity: 1; white-space: pre; text-shadow: rgb(255, 255, 255) 1px 1px 1px, rgb(255, 255, 255) -1px -1px 1px, rgb(255, 255, 255) 1px -1px 1px, rgb(255, 255, 255) -1px 1px 1px;" data-notex="1" x="0" y="0" text-anchor="start" transform="translate(23,15.946267747242683)">Waste management rock</text></g><g class="sankey-node" transform="translate(418.611,52.067)" style="opacity: 1;"><rect class="node-rect" width="20" height="105.56821644019261" style="stroke-width: 0px; stroke: rgb(68, 68, 68); stroke-opacity: 1; fill: rgb(206, 206, 101); fill-opacity: 1;"/><text class="node-label" style="cursor: default; font-family: TOBESTRIPPEDOpen SansTOBESTRIPPED, verdana, arial, sans-serif; font-size: 12px; fill: rgb(68, 68, 68); fill-opacity: 1; white-space: pre; text-shadow: rgb(255, 255, 255) 1px 1px 1px, rgb(255, 255, 255) -1px -1px 1px, rgb(255, 255, 255) 1px -1px 1px, rgb(255, 255, 255) -1px 1px 1px;" data-notex="1" x="0" y="0" text-anchor="start" transform="translate(23,56.9841082200963)">Waste management sand</text></g><g class="sankey-node" transform="translate(418.611,285.623)" style="opacity: 1;"><rect class="node-rect" width="20" height="35.192005362256964" style="stroke-width: 0px; stroke: rgb(68, 68, 68); stroke-opacity: 1; fill: rgb(110, 104, 112); fill-opacity: 1;"/><text class="node-label" style="cursor: default; font-family: TOBESTRIPPEDOpen SansTOBESTRIPPED, verdana, arial, sans-serif; font-size: 12px; fill: rgb(68, 68, 68); fill-opacity: 1; white-space: pre; text-shadow: rgb(255, 255, 255) 1px 1px 1px, rgb(255, 255, 255) -1px -1px 1px, rgb(255, 255, 255) 1px -1px 1px, rgb(255, 255, 255) -1px 1px 1px;" data-notex="1" x="0" y="0" text-anchor="start" transform="translate(23,21.79600268112848)">Stock gravel</text></g><g class="sankey-node" transform="translate(418.611,252.060)" style="opacity: 1;"><rect class="node-rect" width="20" height="35.192005362257106" style="stroke-width: 0px; stroke: rgb(68, 68, 68); stroke-opacity: 1; fill: rgb(198, 124, 75); fill-opacity: 1;"/><text class="node-label" style="cursor: default; font-family: TOBESTRIPPEDOpen SansTOBESTRIPPED, verdana, arial, sans-serif; font-size: 12px; fill: rgb(68, 68, 68); fill-opacity: 1; white-space: pre; text-shadow: rgb(255, 255, 255) 1px 1px 1px, rgb(255, 255, 255) -1px -1px 1px, rgb(255, 255, 255) 1px -1px 1px, rgb(255, 255, 255) -1px 1px 1px;" data-notex="1" x="0" y="0" text-anchor="start" transform="translate(23,21.796002681128552)">Stock rock</text></g><g class="sankey-node" transform="translate(418.611,217.192)" style="opacity: 1;"><rect class="node-rect" width="20" height="35.19200536225679" style="stroke-width: 0px; stroke: rgb(68, 68, 68); stroke-opacity: 1; fill: rgb(206, 206, 101); fill-opacity: 1;"/><text class="node-label" style="cursor: default; font-family: TOBESTRIPPEDOpen SansTOBESTRIPPED, verdana, arial, sans-serif; font-size: 12px; fill: rgb(68, 68, 68); fill-opacity: 1; white-space: pre; text-shadow: rgb(255, 255, 255) 1px 1px 1px, rgb(255, 255, 255) -1px -1px 1px, rgb(255, 255, 255) 1px -1px 1px, rgb(255, 255, 255) -1px 1px 1px;" data-notex="1" x="0" y="0" text-anchor="start" transform="translate(23,21.796002681128396)">Stock sand</text></g><g class="sankey-node" transform="translate(524.351,51.036)" style="opacity: 1;"><rect class="node-rect" width="20" height="150.42398391322894" style="stroke-width: 0px; stroke: rgb(68, 68, 68); stroke-opacity: 1; fill: rgb(236, 236, 236); fill-opacity: 1;"/><text class="node-label" style="cursor: default; font-family: TOBESTRIPPEDOpen SansTOBESTRIPPED, verdana, arial, sans-serif; font-size: 12px; fill: rgb(68, 68, 68); fill-opacity: 1; white-space: pre; text-shadow: rgb(255, 255, 255) 1px 1px 1px, rgb(255, 255, 255) -1px -1px 1px, rgb(255, 255, 255) 1px -1px 1px, rgb(255, 255, 255) -1px 1px 1px;" data-notex="1" x="0" y="0" text-anchor="end" transform="translate(-3,79.41199195661447)">Waste management</text></g><g class="sankey-node" transform="translate(524.351,216.868)" style="opacity: 1;"><rect class="node-rect" width="20" height="105.57601608677123" style="stroke-width: 0px; stroke: rgb(68, 68, 68); stroke-opacity: 1; fill: rgb(236, 236, 236); fill-opacity: 1;"/><text class="node-label" style="cursor: default; font-family: TOBESTRIPPEDOpen SansTOBESTRIPPED, verdana, arial, sans-serif; font-size: 12px; fill: rgb(68, 68, 68); fill-opacity: 1; white-space: pre; text-shadow: rgb(255, 255, 255) 1px 1px 1px, rgb(255, 255, 255) -1px -1px 1px, rgb(255, 255, 255) 1px -1px 1px, rgb(255, 255, 255) -1px 1px 1px;" data-notex="1" x="0" y="0" text-anchor="end" transform="translate(-3,56.98800804338562)">Stock</text></g></g></g><defs id="topdefs-09669e"><g class="clips"/></defs><g class="layer-above"><g class="imagelayer"/><g class="shapelayer"/></g><g class="infolayer"><g class="g-gtitle"><text class="gtitle" style="font-family: TOBESTRIPPEDOpen SansTOBESTRIPPED, verdana, arial, sans-serif; font-size: 17px; fill: rgb(68, 68, 68); opacity: 1; font-weight: normal; white-space: pre;" x="350" y="50" text-anchor="middle" dy="0em">Use - buildings</text></g><g class="first-render"/></g></svg>